<?xml version="1.0" standalone="no"?>
<!DOCTYPE svg PUBLIC "-//W3C//DTD SVG 1.1//EN" "http://www.w3.org/Graphics/SVG/1.1/DTD/svg11.dtd" >
<svg>
<metadata>
Created by FontForge 20090914 at Sun Aug  1 10:38:38 2021
 By www-data
Copyright (c) Gophamann A.L., 2007. All rights reserved.
</metadata>
<defs>
<font id="LombardinaTwo" horiz-adv-x="287" >
  <font-face 
    font-family="Lombardina Two"
    font-weight="400"
    font-stretch="normal"
    units-per-em="1000"
    panose-1="2 0 4 0 0 0 0 0 0 0"
    ascent="800"
    descent="-200"
    x-height="536.001"
    cap-height="689.999"
    bbox="-195 -358.001 1426 913"
    underline-thickness="20"
    underline-position="-123"
    unicode-range="U+0020-U+F002"
  />
<missing-glyph horiz-adv-x="500" 
d="M63 0v712h375v-712h-375zM125 63h250v587h-250v-587z" />
    <glyph glyph-name=".notdef" horiz-adv-x="500" 
d="M63 0v712h375v-712h-375zM125 63h250v587h-250v-587z" />
    <glyph glyph-name="space" unicode=" " horiz-adv-x="229" 
 />
    <glyph glyph-name="exclam" unicode="!" horiz-adv-x="200" 
d="M13 52c20.667 14.667 42.335 37.999 65.002 69.999c10 -15.333 18 -26.333 24 -33c15.333 -17.333 29.666 -29.666 42.999 -36.999c-22.667 -8.66699 -45.334 -31 -68.001 -67c-10 18.667 -31.333 41 -64 67zM162.001 688.999c-6 -4 -13.665 -10.666 -22.998 -19.999
c-15.333 -18 -23 -38 -23 -60l-1 -178l-28 -252l-24 -1l-29 253c0.666992 30 1 65.667 1 107c0 28 -12.333 56.333 -37 85c11.333 -0.666992 38.166 11.666 80.499 36.999s70.166 38.333 83.499 39v-10z" />
    <glyph glyph-name="quotedbl" unicode="&#x22;" 
d="M158 675h72l-20 -225h-32zM28 675h72l-20 -225h-32z" />
    <glyph glyph-name="numbersign" unicode="#" horiz-adv-x="460" 
d="M306 439h-136l-52 -197h135zM86 502h67l46 173h35l-47 -173h136l46 173h35l-47 -173h70l-17 -63h-70l-52 -197h69l-17 -63h-69l-49 -181h-34l48 181h-135l-49 -181h-34l48 181h-66l17 63h66l53 197h-67z" />
    <glyph glyph-name="dollar" unicode="$" horiz-adv-x="383" 
d="M329 388c-12.667 -10.667 -20.333 -23.3311 -23 -37.998c-0.666992 -2 -1 -15 -1 -39v-41c3.33301 -18.667 10.333 -32.667 21 -42c-23.333 -2.66699 -46.666 -5.66699 -69.999 -9c-16.667 -4 -38.667 -15 -66 -33l-12 -8v-112h-23v96l-12.5 -9.5l-13.5 -10.5
c-46.667 26.667 -79.667 40 -99 40c-18 0 -31.333 -2.33301 -40 -7c2 4 14.167 18.833 36.5 44.5s36.5 38.5 42.5 38.5c1.33301 0 17.166 -7 47.499 -21s50.833 -21 61.5 -21c20 0 32.667 9.66699 38 29c1.33301 9.33301 2 26 2 50c0 29.333 -2 48.666 -6 57.999
c-8 18 -24.333 27 -49 27c-25.333 0 -51 -14 -77 -42l-64 52c-1.33301 3.33301 -1.66602 5.33301 -0.999023 6c13.333 5.33301 20 26 20 62c0 34.667 -6.66699 57.667 -20 69c-0.666992 1.33301 -1 3.33301 -1 6c11.333 2 28 5.33301 50 10c18.667 4 35.667 10.333 51 19
c7.33301 4.66699 19.333 14 36 28v82h23v-61l4 3c35.333 -22.667 63.666 -34 84.999 -34c2.66699 0 15.667 2.66699 39 8c-48 -55.333 -74 -83 -78 -83s-17.667 5.66699 -41 17s-36 17.166 -38 17.499s-5 0.5 -9 0.5c-11.333 0 -17 -7.66699 -17 -23l1 -80
c5.33301 -25.333 20.333 -38 45 -38c18.667 0 38 7.83301 58 23.5s29.333 23.5 28 23.5c2.66699 0 12.667 -7.33301 30 -22z" />
    <glyph glyph-name="percent" unicode="%" horiz-adv-x="806" 
d="M753 218c0 -33.333 -16.667 -76 -50 -128c-38.667 -60.667 -81.667 -91 -129 -91c-46 0 -88.333 30.333 -127 91c-32.667 51.333 -49 94 -49 128c0 23.333 17 62.333 51 117c40.667 65.333 82.667 98 126 98c42.667 0 84.667 -32.667 126 -98
c34.667 -54.667 52 -93.667 52 -117zM353 478c0 -33.333 -16.667 -76 -50 -128c-38.667 -60.667 -81.667 -91 -129 -91c-46 0 -88.333 30.333 -127 91c-32.667 51.333 -49 94 -49 128c0 23.333 17 62.333 51 117c40.667 65.333 82.667 98 126 98
c42.667 0 84.667 -32.667 126 -98c34.667 -54.667 52 -93.667 52 -117zM646 235c1.33301 113.333 -22.332 171.334 -70.999 174.001c-28.667 -0.666992 -49.667 -27 -63 -79c-5.33301 -20 -7.33301 -51.667 -6 -95l3 -97c3.33301 -15.333 8 -39 14 -71
c9.33301 -27.333 26.333 -41 51 -41c26 0 43.667 13.667 53 41l15 71c1.33301 17.333 2.66602 49.666 3.99902 96.999zM246.002 495.001c1.33301 113.333 -22.332 171.334 -70.999 174.001c-28.667 -0.666992 -49.667 -27 -63 -79c-5.33301 -20 -7.33301 -51.667 -6 -95
l3 -97c3.33301 -15.333 8 -39 14 -71c9.33301 -27.333 26.333 -41 51 -41c26 0 43.667 13.667 53 41l15 71c1.33301 17.333 2.66602 49.666 3.99902 96.999zM143.004 -19.998l-29 20l479 682l28 -20z" />
    <glyph glyph-name="ampersand" unicode="&#x26;" horiz-adv-x="773" 
d="M743 -17c0 -13.333 -9.67188 -24.333 -29.0049 -33c-16 -7.33301 -31.667 -11 -47 -11c-25.333 0 -55.666 8.83301 -90.999 26.5s-62.333 36.5 -81 56.5c-62 -21.333 -125.333 -32 -190 -32c-71.333 0 -136.333 15 -195 45c-72 36.667 -109 87.667 -111 153
c-1.33301 51.333 20.334 97 65.001 137c37.333 33.333 79 56 125 68c-21.333 38 -32.666 57.667 -33.999 59c-10 21.333 -15.667 42 -17 62c-2.66699 53.333 17.333 96 60 128c38 28 82.667 42 134 42c38.667 0 72.334 -11.333 101.001 -34c30 -24.667 45 -56 45 -94
c0 -41.333 -21 -77.333 -63 -108c-26 -18.667 -65.667 -38 -119 -58c6.66699 -10.667 37 -45.334 91 -104.001c44 -47.333 66 -81.666 66 -102.999c0 -23.333 -8.33301 -42.333 -25 -57l76 -65c40 8 79.5 37.667 118.5 89s58.5 97.666 58.5 138.999
c0 38 -10.667 69.667 -32 95s-50.666 38 -87.999 38c-24.667 0 -45.834 -8.33301 -63.501 -25s-26.5 -37.667 -26.5 -63c0 -15.333 4.33301 -29.333 13 -42s19.667 -19 33 -19c12.667 0 19 6.33301 19 19c0 4.66699 -1.33301 13 -4 25s-4 18.667 -4 20
c0 8 4.33301 15.667 13 23s17.334 11 26.001 11c13.333 0 24.333 -5 33 -15s13 -22 13 -36c0 -22 -8 -41.5 -24 -58.5s-35 -25.5 -57 -25.5c-26 0 -48.667 10.333 -68 31s-29 44.334 -29 71.001c0 32 12.833 59.167 38.5 81.5s54.834 33.5 87.501 33.5
c49.333 0 89.166 -14.667 119.499 -44s45.5 -68.333 45.5 -117c0 -96 -63 -179.667 -189 -251l1 -4c29.333 -22 59.333 -33 90 -33c5.33301 0 29 4.33301 71 13c10 2 19.833 -0.666992 29.5 -8s14.5 -16 14.5 -26zM406.995 562c0 25.333 -7.83301 47.666 -23.5 66.999
s-35.167 29 -58.5 29c-28 0 -50.167 -11.167 -66.5 -33.5s-24.5 -48.166 -24.5 -77.499c0 -38 14 -80 42 -126c87.333 20.667 131 67.667 131 141zM465.995 45l-12.999 16.9971c-18.667 24.667 -60.667 71.334 -126 140.001c-47.333 50 -86.333 101 -117 153
c-28.667 -5.33301 -52.834 -21.166 -72.501 -47.499s-29.5 -54.166 -29.5 -83.499c0 -59.333 30 -108.333 90 -147c51.333 -32.667 109 -49 173 -49c27.333 0 59 5.66699 95 17z" />
    <glyph glyph-name="quotesingle" unicode="'" horiz-adv-x="155" 
d="M28 675h72l-20 -225h-32z" />
    <glyph glyph-name="parenleft" unicode="(" horiz-adv-x="198" 
d="M122 -44c-80 159.333 -120 287.334 -120 384.001c0 99.333 40 228 120 386h42c-45.333 -184.667 -68 -313.334 -68 -386.001c0 -82.667 23 -210.667 69 -384h-43z" />
    <glyph glyph-name="parenright" unicode=")" horiz-adv-x="198" 
d="M8 -44c46 173.333 69 301 69 383c0 50 -6 105.667 -18 167c-8 40 -25 113.333 -51 220h42c80.667 -156.667 121 -285 121 -385c0 -98 -40.333 -226.333 -121 -385h-42z" />
    <glyph glyph-name="asterisk" unicode="*" horiz-adv-x="385" 
d="M161 500c-22.667 -13.333 -46.666 -37.3311 -71.999 -71.998c-10.667 -12 -22.667 -18 -36 -18c-10.667 0 -19.667 3.66699 -27 11s-11 16.333 -11 27c0 25.333 23.667 40.666 71 45.999c17.333 2 39 9.66699 65 23c-22 13.333 -41 21 -57 23
c-29.333 3.33301 -46.333 6.33301 -51 9c-18.667 6.66699 -28 19.334 -28 38.001c0 10.667 3.66699 19.5 11 26.5s16.333 10.5 27 10.5c15.333 0 33.666 -14.667 54.999 -44c11.333 -15.333 29 -30.333 53 -45v15c0 12.667 -4.83301 30.667 -14.5 54s-14.5 39 -14.5 47
c0 12 3.66699 22 11 30s16.666 12 27.999 12s20.833 -4.16699 28.5 -12.5s11.5 -18.5 11.5 -30.5c0 -4 -4.83301 -19.667 -14.5 -47s-14.5 -50 -14.5 -68c21.333 14 37.333 26.667 48 38c23.333 34 43.333 51 60 51c10.667 0 19.667 -3.5 27 -10.5s11 -15.833 11 -26.5
c0 -16.667 -7.66699 -28.667 -23 -36c-8 -4 -24.667 -7.33301 -50 -10c-22 -2.66699 -43 -10.667 -63 -24c19.333 -12.667 38.333 -20.334 57 -23.001c15.333 -1.33301 36.333 -6.33301 63 -15c10.667 -7.33301 16 -18 16 -32c0 -23.333 -12 -35 -36 -35
c-16.667 0 -35.667 14.333 -57 43c-11.333 15.333 -29 30.333 -53 45v-16c0 -12.667 4.66699 -30.5 14 -53.5s14 -38.5 14 -46.5c0 -28.667 -13 -43 -39 -43c-11.333 0 -20.666 4.16699 -27.999 12.5s-11 18.5 -11 30.5c0 5.33301 5.66699 20.666 17 45.999
c8 18 12 41.333 12 70z" />
    <glyph glyph-name="plus" unicode="+" horiz-adv-x="482" 
d="M254 277l1 -206l-57 2v202h-183v45h182v196h54v-193h181v-46h-178z" />
    <glyph glyph-name="comma" unicode="," horiz-adv-x="186" 
d="M109 17c-18.667 -24.667 -28.999 -39.333 -30.999 -44s-5 -21.667 -9 -51l-25 3c0 28 6.66699 56 20 84c-2 3.33301 -19.667 18 -53 44c27.333 22 50 49.667 68 83c15.333 -37.333 40.666 -65.333 75.999 -84c-18.667 -8 -34 -19.667 -46 -35z" />
    <glyph glyph-name="hyphen" unicode="-" horiz-adv-x="273" 
d="M213 186h-207l21 58l3 -1l202 1z" />
    <glyph glyph-name="hyphen" unicode="&#x2010;" horiz-adv-x="273" 
d="M213 186h-207l21 58l3 -1l202 1z" />
    <glyph glyph-name="period" unicode="." horiz-adv-x="195" 
d="M78 -13c-15.333 24.667 -39.333 50.333 -72 77c16.667 12.667 30 24.5 40 35.5s20.333 26.833 31 47.5c18 -24 29 -39 33 -45c12 -14 26 -27.333 42 -40c-35.333 -19.333 -60 -44.333 -74 -75z" />
    <glyph glyph-name="slash" unicode="/" horiz-adv-x="357" 
d="M14 -54l-29 20l327 754l29 -20z" />
    <glyph glyph-name="zero" unicode="0" horiz-adv-x="540" 
d="M-3 347c0 5.33301 3.33203 14.666 9.99902 27.999c10 19.333 17.667 36.333 23 51c68 176 139.667 264 215 264c73.333 0 145 -89 215 -267c6.66699 -17.333 14.667 -35.666 24 -54.999c8 -16.667 12 -26.667 12 -30c0 -7.33301 -4.66699 -21.333 -14 -42
c-11.333 -24.667 -17.666 -39.334 -18.999 -44.001c-22 -73.333 -48.333 -132.666 -79 -177.999c-42 -62 -88.667 -93 -140 -93c-53.333 0 -101.666 34.667 -144.999 104c-33.333 52.667 -59.333 115.334 -78 188.001c-0.666992 5.33301 -5.33398 18.666 -14.001 39.999
c-6.66699 16.667 -10 28 -10 34zM245.999 664c-25.333 0 -46.001 -12.333 -62.001 -37c-14 -21.333 -25.667 -54.666 -35 -99.999c-6 -28 -9 -73.667 -9 -137c0 -18 1.66699 -79.667 5 -185l21 -122c12.667 -46.667 38.667 -70 78 -70c38.667 0 65.334 23.333 80.001 70
l23 122l4 182c0 65.333 -3 112 -9 140c-9.33301 45.333 -21 78.666 -35 99.999c-16 24.667 -36.333 37 -61 37z" />
    <glyph glyph-name="one" unicode="1" horiz-adv-x="374" 
d="M324 -217l-98.001 149.998c-30.667 48 -54 104 -70 168l-74 -116c18 41.333 30 78.333 36 111c5.33301 30 8 68.667 8 116v242c0 48.667 0.333008 71 1 67c-2.66699 40 -10.667 60 -24 60c-2 0 -11.5 -9.5 -28.5 -28.5s-27.167 -28.5 -30.5 -28.5
c-1.33301 0 -3.66602 2.5 -6.99902 7.5s-5.33301 7.5 -6 7.5l134 153l64 -49c27.333 -21.333 41 -32.666 41 -33.999c0 12 -4.5 6.16699 -13.5 -17.5s-13.5 -41.167 -13.5 -52.5v-333c0 -97.333 3 -163.666 9 -198.999c7.33301 -43.333 31.333 -118 72 -224z" />
    <glyph glyph-name="two" unicode="2" horiz-adv-x="553" 
d="M498 458c0 -11.333 -4.99805 -24.6699 -14.998 -40.0029l-28 -40c-72 -82.667 -135.333 -132 -190 -148c-30.667 -9.33301 -67.334 -30.5 -110.001 -63.5s-71 -62.833 -85 -89.5l2 -10c45.333 22 80.666 36.333 105.999 43c29.333 8 67.333 12 114 12
c8.66699 0 22 -0.5 40 -1.5s31.667 -1.5 41 -1.5c34 0 61.5 8.33301 82.5 25s34.167 25.334 39.5 26.001c-12.667 -32 -48 -86.667 -106 -164c-4 -7.33301 -8.66699 -15 -14 -23c-6.66699 2.66699 -27 10.334 -61 23.001c-40.667 10 -86 15 -136 15
c-22.667 0 -52 -4 -88 -12c-39.333 -8.66699 -66.666 -18 -81.999 -28c-2.66699 2 -4 6.33301 -4 13c0 64.667 31.667 122.334 95 173.001l175 131c62.667 50 93.334 109 92.001 177c-0.666992 47.333 -15 89.333 -43 126c-30.667 40 -69 60 -115 60
c-36 0 -66 -9.66699 -90 -29c-26 -20.667 -39 -48.667 -39 -84c0 -30.667 12 -55.334 36 -74.001c22 -17.333 48.667 -26 80 -26c11.333 0 28.666 3.66699 51.999 11c21.333 6 36.333 8.66699 45 8c-28 -46 -62.333 -89.333 -103 -130l-2 -2
c-49.333 0 -89.333 19.667 -120 59c-28.667 36 -43 79.333 -43 130c0 47.333 19.667 86.333 59 117c35.333 28 77.666 43.333 126.999 46c56.667 3.33301 104.667 -8.66699 144 -36c28 -19.333 61.667 -55.333 101 -108c6.66699 -8.66699 15 -22.667 25 -42
c12 -21.333 18 -35.666 18 -42.999z" />
    <glyph glyph-name="three" unicode="3" horiz-adv-x="544" 
d="M497 213c0 -7.33301 -6.99707 -22 -20.9971 -44c-6 -8.66699 -14.333 -22 -25 -40c-52.667 -98.667 -139.667 -148 -261 -148c-52.667 0 -96 10 -130 30c-42.667 25.333 -64 62.333 -64 111c0 36 13.5 65.667 40.5 89s58.833 35 95.5 35c50.667 0 89.667 -26.667 117 -80
c-24.667 -18.667 -64.667 -45.667 -120 -81c7.33301 20 11 35.333 11 46c0 13.333 -5 24.333 -15 33s-22.333 13 -37 13c-40.667 0 -61 -23 -61 -69c0 -34 16.667 -60 50 -78c27.333 -15.333 59.333 -23 96 -23c59.333 0 104.333 19.667 135 59c28 36 42 84.333 42 145
c0 48 -8.33301 87.333 -25 118c-20.667 38.667 -53 58 -97 58c-23.333 0 -47 -7.33301 -71 -22l-67 -41c-3.33301 0 -7 2 -11 6v13c140 98 229.333 178.333 268 241c-1.33301 1.33301 -3.66602 2 -6.99902 2c28 0 10.667 -6.33301 -52 -19s-104.334 -19 -125.001 -19
c-22.667 0 -57.667 4 -105 12c-6.66699 -9.33301 -18 -28.333 -34 -57c-8.66699 -0.666992 -14.334 2.33301 -17.001 9l70 172c72 -23.333 135.667 -35 191 -35c47.333 0 86.333 4 117 12c1.33301 0 27.333 9 78 27c-33.333 -70 -108 -158 -224 -264
c1.33301 -6 7.66602 -8.66699 18.999 -8c17.333 0.666992 26.666 0.666992 27.999 0c53.333 -15.333 108.333 -56.333 165 -123c30.667 -36 46 -62.667 46 -80z" />
    <glyph glyph-name="four" unicode="4" horiz-adv-x="565" 
d="M522 10c-8.66699 70.667 -37.3311 105.998 -85.998 105.998c-16 0 -25.333 -2.33301 -28 -7v-124c0 -54.667 8 -116.667 24 -186c21.333 -91.333 48.666 -143.666 81.999 -156.999c-46.667 36.667 -82.334 78 -107.001 124c-18.667 35.333 -34.667 80 -48 134l-35 143
c-14 -23.333 -36.667 -46 -68 -68c18 29.333 33.667 78.666 47 147.999l-67 -1h-222c-2.66699 0.666992 -4 3 -4 7c5.33301 8.66699 20.666 35.334 45.999 80.001c86.667 152.667 131 263.334 133 332.001c6.66699 42.667 13.334 89 20.001 139h132l-54 -183
c-20 -46 -62.667 -115.333 -128 -208l-86 -121h231v137c0 26.667 -0.666992 44.667 -2 54c-0.666992 1.33301 -5.66699 13.333 -15 36l161 159c-27.333 -33.333 -40.666 -95 -39.999 -185l1 -199l26 -2c41.333 0 70.666 38.667 87.999 116z" />
    <glyph glyph-name="five" unicode="5" horiz-adv-x="493" 
d="M455 250c-7.33301 -16 -15.6689 -35.666 -25.002 -58.999c-14 -52 -42 -98.333 -84 -139c-46.667 -45.333 -95 -68 -145 -68h-40c-41.333 0 -77.333 9 -108 27c-38.667 22.667 -58 56.334 -58 101.001c0 36 12.833 65.833 38.5 89.5s57.5 35.5 95.5 35.5
c13.333 0 32.333 -8.16699 57 -24.5s37 -30.5 37 -42.5l-86 -94c-2.66699 34 -4.66699 52 -6 54c-8 25.333 -26 38 -54 38c-16 0 -29.833 -5.83301 -41.5 -17.5s-17.5 -25.5 -17.5 -41.5c0 -36 16.667 -62.333 50 -79c23.333 -11.333 49 -17 77 -17
c111.333 0 167 66.667 167 200c0 142.667 -44.333 214 -133 214c-39.333 0 -66.666 -11 -81.999 -33c-6 -8.66699 -13.667 -29.667 -23 -63c-6 -22 -17.333 -33 -34 -33c-6.66699 0 -14 4 -22 12c-5.33301 40 13 78 55 114l-4 93c-1.33301 34.667 -5.66602 92 -12.999 172
c6.66699 -2 17.334 -5.66699 32.001 -11l33 -12c28 -9.33301 57 -14 87 -14c83.333 0 146.666 10.333 189.999 31c-16.667 -38.667 -39 -85.334 -67 -140.001c-38.667 0.666992 -73.667 5.66699 -105 15c-36.667 10.667 -80 29.667 -130 57
c-0.666992 -34.667 3 -91.334 11 -170.001c30 9.33301 58.333 14 85 14c40.667 0 85.667 -15.667 135 -47c45.333 -29.333 78.333 -63.333 99 -102c19.333 -27.333 29 -47.333 29 -60z" />
    <glyph glyph-name="six" unicode="6" horiz-adv-x="498" 
d="M459 221c-8 -15.333 -20.667 -42.334 -38 -81.001c-42.667 -110.667 -104.667 -163 -186 -157c-53.333 4 -93.666 19 -120.999 45c-44.667 42 -72.334 117.667 -83.001 227l-34 93c8 12.667 22.333 42.334 43 89.001c12 68 34.667 124.333 68 169
c41.333 54.667 93 82.667 155 84c46 0.666992 84.5 -12.833 115.5 -40.5s46.5 -64.167 46.5 -109.5c0 -25.333 -13.667 -46 -41 -62c-24.667 -14 -50.334 -20.667 -77.001 -20l-72 81c4.66699 -2 24.334 -5.66699 59.001 -11c47.333 13.333 71 32.666 71 57.999
c0 23.333 -11 43 -33 59c-19.333 14 -41.333 21 -66 21c-82.667 0 -124.334 -60.667 -125.001 -182c0 -10 -1.16699 -25.5 -3.5 -46.5s-3.5 -36.833 -3.5 -47.5c0 -11.333 1 -19.666 3 -24.999c20.667 20.667 37.334 34 50.001 40c16 7.33301 39 11 69 11
c32 0 64.5 -13.333 97.5 -40s54.167 -55.667 63.5 -87c7.33301 -13.333 21.333 -36 42 -68zM330 196.999c0 56 -2.33203 93.334 -6.99902 112.001c-12 48 -38 72 -78 72c-46 0 -76.667 -25.333 -92 -76c-8 -26.667 -12 -64.667 -12 -114c0 -52.667 3 -89.334 9 -110.001
c13.333 -45.333 41.666 -68 84.999 -68c46.667 0 76 21.667 88 65c4.66699 17.333 7 57 7 119z" />
    <glyph glyph-name="seven" unicode="7" horiz-adv-x="434" 
d="M401 645c-5.33301 -23.333 -16.6611 -63.9971 -33.9941 -121.997c-16.667 -49.333 -55.334 -119.666 -116.001 -210.999c-42 -63.333 -63 -115 -63 -155c0 -34.667 13.333 -61 40 -79l-41 -50c-18.667 -23.333 -29.334 -41 -32.001 -53
c-10 5.33301 -27.667 20.666 -53 45.999c-27.333 27.333 -41 44.333 -41 51c20.667 28 30.667 45 30 51c-1.33301 11.333 -2 18.666 -2 21.999c0 49.333 23.667 101 71 155l132 142c47.333 53.333 71 101.666 71 144.999l-2 19c-57.333 -37.333 -119.333 -58.333 -186 -63
c-27.333 -2 -58.333 -3 -93 -3c-4.66699 0 -12 0.666992 -22 2l-14 2c-4.66699 0.666992 -7.33398 1 -8.00098 1c-8.66699 0 -13.334 -2.33301 -14.001 -7c-1.33301 -8 -5 -19.667 -11 -35c-0.666992 -1.33301 -3.33398 -4.33301 -8.00098 -9
c-5.33301 5.33301 -8 9.66602 -8 12.999c0 8.66699 6.66699 35.5 20 80.5s22.333 70.167 27 75.5c11.333 -2.66699 32 -7 62 -13c37.333 -6 74.666 -9 111.999 -9c32.667 0 71 4 115 12c12 2.66699 33.333 9 64 19z" />
    <glyph glyph-name="eight" unicode="8" horiz-adv-x="518" 
d="M458 181c0 -1.33301 -5.00195 -10.9971 -15.002 -28.9971c-5.33301 -9.33301 -9.66602 -17.666 -12.999 -24.999c-46.667 -103.333 -113.334 -155 -200.001 -155c-88 0 -164 58 -228 174c-6 10.667 -9 20 -9 28c0 11.333 9.33301 28.333 28 51l37 59
c15.333 21.333 31.666 37.666 48.999 48.999c11.333 6.66699 24.333 13 39 19c-21.333 12 -39.666 28.667 -54.999 50l-34 56c-1.33301 2 -14.666 21 -39.999 57c12 11.333 27 27.666 45 48.999c33.333 49.333 54 77.666 62 84.999c21.333 19.333 55.333 30.666 102 33.999
c64.667 5.33301 121.334 -35.667 170.001 -123l16 -16c8 -7.33301 17.667 -17 29 -29c-16 -16 -31 -33.667 -45 -53c-16.667 -23.333 -30.667 -44.333 -42 -63c-16.667 -21.333 -36 -37.333 -58 -48c30 -22.667 60.667 -49 92 -79c46.667 -44.667 70 -75 70 -91z
M306.998 517.003c0 90.667 -28.332 136 -84.999 136c-50.667 0 -76 -46.667 -76 -140c0 -44 2.66699 -75.333 8 -94c11.333 -38.667 36.666 -58 75.999 -58c51.333 0 77 52 77 156zM321.999 181.003c0 27.333 -4.33398 53.001 -13.001 77.001
c-16.667 46 -44.334 69 -83.001 69c-64.667 0 -97 -54 -97 -162c0 -47.333 5.66699 -82 17 -104c16.667 -32 46.334 -48 89.001 -48c28.667 0 51.334 21.667 68.001 65c12.667 33.333 19 67.666 19 102.999z" />
    <glyph glyph-name="nine" unicode="9" horiz-adv-x="532" 
d="M474 378c0 -9.33301 -3.83301 -26.499 -11.5 -51.499s-12.5 -37.5 -14.5 -37.5c3.33301 0 -9.33398 -39.667 -38.001 -119c-82.667 -230 -184.334 -357.333 -305.001 -382c72.667 59.333 126 120.166 160 182.499s54.667 139.166 62 230.499l-2 20
c-21.333 -24.667 -53.666 -39 -96.999 -43c-44 -4 -85.667 11 -125 45c-35.333 30.667 -60.333 68 -75 112c-1.33301 2.66699 -7.33301 16.334 -18 41.001c-8 18.667 -12 32 -12 40c0 6.66699 3.66699 18.334 11 35.001c12 26.667 18.333 41.667 19 45
c14 50 37.667 92.667 71 128c38 40.667 81 61.667 129 63c66.667 2 117.334 -22 152.001 -72c17.333 -24.667 40 -78.334 68 -161.001zM341 422.001c0 160 -39.334 239.999 -118.001 239.999c-30.667 0 -54.667 -15 -72 -45c-19.333 -31.333 -29 -75.666 -29 -132.999
c0 -20 1.33301 -41.333 4 -64l9 -84c8.66699 -81.333 39.334 -122 92.001 -122c44.667 0 76.667 28.333 96 85c12 35.333 18 76.333 18 123z" />
    <glyph glyph-name="colon" unicode=":" horiz-adv-x="201" 
d="M78 -13c-15.333 24.667 -39.333 50.333 -72 77c16.667 12.667 30 24.5 40 35.5s20.333 26.833 31 47.5c18 -24 29 -39 33 -45c12 -14 26 -27.333 42 -40c-35.333 -19.333 -60 -44.333 -74 -75zM78 286.999c-15.333 24.667 -39.333 50.333 -72 77
c16.667 12.667 30 24.5 40 35.5s20.333 26.833 31 47.5c18 -24 29 -39 33 -45c12 -14 26 -27.333 42 -40c-35.333 -19.333 -60 -44.333 -74 -75z" />
    <glyph glyph-name="semicolon" unicode=";" horiz-adv-x="204" 
d="M155 62c-10.667 -4 -26 -18.998 -46 -44.998c-9.33301 -12 -19.666 -28.333 -30.999 -49l-9 -46l-25 3c4 27.333 6.33301 41.666 7 42.999c2.66699 16 7 29.667 13 41c-10.667 15.333 -18 25.666 -22 30.999c-10 11.333 -20.333 19 -31 23c27.333 22 50 49.667 68 83
c11.333 -27.333 36.666 -55.333 75.999 -84zM78 287.002c-15.333 24.667 -39.333 50.333 -72 77c16.667 12.667 30 24.5 40 35.5s20.333 26.833 31 47.5c18 -24 29 -39 33 -45c12 -14 26 -27.333 42 -40c-35.333 -19.333 -60 -44.333 -74 -75z" />
    <glyph glyph-name="less" unicode="&#x3c;" horiz-adv-x="388" 
d="M33 317l280 221l34 -31l-243 -190l240 -178l-34 -32z" />
    <glyph glyph-name="equal" unicode="=" horiz-adv-x="530" 
d="M13 329l1 49h455v-49h-456zM13 199l1 50l455 -1v-49h-456z" />
    <glyph glyph-name="greater" unicode="&#x3e;" horiz-adv-x="368" 
d="M57 107l-34 32l240 178l-243 190l34 31l280 -222z" />
    <glyph glyph-name="question" unicode="?" horiz-adv-x="529" 
d="M198 266l34.999 30c60.667 48.667 93.334 108 98.001 178c1.33301 20 2 36 2 48c0 90.667 -39 136 -117 136c-39.333 0 -75.666 -10.333 -108.999 -31c-38.667 -23.333 -58 -53.666 -58 -90.999c0 -30 12 -54 36 -72c22 -16.667 48.667 -25 80 -25c24 0 42 3.33301 54 10
c16.667 9.33301 27.334 14.666 32.001 15.999c-19.333 -49.333 -48 -91.666 -86 -126.999c-0.666992 -0.666992 -3.33398 -1.66699 -8.00098 -3c-50 0 -89 16 -117 48s-42 72.333 -42 121c0 51.333 24.333 95 73 131c44.667 34 93.334 50.333 146.001 49
c46.667 -0.666992 92.167 -14.5 136.5 -41.5s75.166 -61.167 92.499 -102.5c8 -18.667 21 -40 39 -64c-24.667 -28 -38.334 -50 -41.001 -66c-28 -62 -79.333 -104.333 -154 -127c-34 -10 -51 -27.333 -51 -52c0 -20.667 13.333 -36.334 40 -47.001
c-16 -21.333 -35 -32 -57 -32c-16 0 -29.833 5.5 -41.5 16.5s-17.5 24.167 -17.5 39.5c0 20.667 11.667 40 35 58zM288.999 53c-19.333 -14 -41.001 -38.667 -65.001 -74c-6.66699 10 -17 24.667 -31 44c-10 12 -22 22 -36 30c22.667 8.66699 45.334 31 68.001 67
c10 -18.667 31.333 -41 64 -67z" />
    <glyph glyph-name="A" unicode="A" horiz-adv-x="794" 
d="M781 -25c0 -18 -11.332 -26.9951 -33.999 -26.9951c-14.667 0 -26.667 6.66699 -36 20c-11.333 15.333 -24.333 25 -39 29c-28 7.33301 -78 11 -150 11c-21.333 0 -54 -2 -98 -6l-98 -9c-8.66699 -1.33301 -17 6.66699 -25 24l-15 35l36 -12c14 -4.66699 26.667 -7 38 -7
c80 0 120 57 120 171c0 28.667 -0.666992 49 -2 61c-19.333 0 -47.833 -0.333008 -85.5 -1s-66.167 -1 -85.5 -1c-31.333 0 -59.666 1 -84.999 3v-129c0 -15.333 1.16699 -38 3.5 -68s3.5 -52.667 3.5 -68c0 -50.667 -13 -96.334 -39 -137.001c-30 -47.333 -69 -71 -117 -71
c-42 0 -63 14.333 -63 43c0 10 4.83301 18.833 14.5 26.5s20.5 11.5 32.5 11.5c9.33301 0 22 -4.66699 38 -14s26.667 -14 32 -14c17.333 0 31.666 11.333 42.999 34c8.66699 18.667 13 38 13 58c0 41.333 -14 79 -42 113c-10.667 13.333 -30 31 -58 53
c-0.666992 1.33301 -2.33398 2.66602 -5.00098 3.99902c0 75.333 20.667 173 62 293c46.667 136.667 98 215 154 235h-210c-18.667 0 -37 4 -55 12c-22 9.33301 -33 22.333 -33 39c0 5.33301 3.33301 10.833 10 16.5s12.667 8.5 18 8.5c12 0 29.833 -6 53.5 -18
s41.167 -18 52.5 -18h480c21.333 0 66.333 9.66699 135 29c24 0 36 -8.66699 36 -26c0 -22.667 -15.667 -34.334 -47 -35.001c-46 -1.33301 -75.667 -5.33301 -89 -12c-31.333 -16.667 -47 -53.667 -47 -111v-377c0 -52.667 15.667 -87.334 47 -104.001
c7.33301 -4 37 -10 89 -18c31.333 -4.66699 47 -20.334 47 -47.001zM480.001 320.005l-0.000976562 108c0 71.333 -1.66699 115 -5 131c-10.667 51.333 -38.334 77 -83.001 77c-55.333 0 -98.666 -41 -129.999 -123c-21.333 -57.333 -33.666 -122.333 -36.999 -195z" />
    <glyph glyph-name="B" unicode="B" horiz-adv-x="776" 
d="M742 178c-54.667 -124.667 -146.336 -187.001 -275.003 -187.001c-57.333 0 -111.666 11.333 -162.999 34l-115 65c-40 22.667 -76 34 -108 34c-8.66699 0 -17 -2 -25 -6c6.66699 -9.33301 10 -18 10 -26c0 -9.33301 -3.5 -17.833 -10.5 -25.5s-15.167 -11.5 -24.5 -11.5
c-22.667 0 -34 14 -34 42c0 38.667 29.333 58 88 58c4 0 13 -0.333008 27 -1s23.333 -1 28 -1c28.667 0 48.334 8.33301 59.001 25c8 12.667 12 34 12 64v216c0 14 -3.66699 29.333 -11 46c-8.66699 19.333 -19 29 -31 29h-83c-20 0 -37.833 8 -53.5 24s-23.5 34 -23.5 54
c0 10 4 19 12 27s17 12 27 12s18.667 -4.16699 26 -12.5s11 -17.5 11 -27.5c0 -2 -4.66699 -14.333 -14 -37l6 -6h8c44 0 85.333 11 124 33l105 62c40 22 85.333 33 136 33c52 0 107 -17.667 165 -53c12 -7.33301 34 -26.666 66 -57.999c34 -33.333 51 -53.666 51 -60.999
c0 -20 -13.333 -41 -40 -63c-34.667 -28.667 -66.667 -49.334 -96 -62.001c-24 -10 -58 -20 -102 -30c132.667 -42.667 215.334 -106 248.001 -190zM598.998 170.999c0 46.667 -10.333 85.998 -31 117.998c-24 37.333 -58.333 56 -103 56c-17.333 0 -48.333 -12.333 -93 -37
c1.33301 1.33301 2 2.33301 2 3c0 2.66699 -1.16699 3.83398 -3.5 3.50098s-3.5 0.166992 -3.5 1.5c0 2 0.333008 3.33301 1 4c16 20 46.333 40.667 91 62c51.333 24.667 83.333 42.667 96 54c29.333 26.667 44 62 44 106c0 33.333 -15.333 62.833 -46 88.5
s-63 38.5 -97 38.5c-56.667 0 -95.667 -27 -117 -81c-14 -35.333 -21 -86.666 -21 -153.999v-179c0 -68 8 -119.667 24 -155c22.667 -50.667 64.667 -76 126 -76c42.667 0 75.667 14 99 42c21.333 26.667 32 61.667 32 105z" />
    <glyph glyph-name="C" unicode="C" horiz-adv-x="645" 
d="M614 700c-8 -16.667 -15.999 -44.335 -23.999 -83.002c-12.667 -60 -19 -123 -19 -189v-139c0 -76 13 -172.667 39 -290c-8 6 -32 39 -72 99c-6 -6.66699 -17.667 -19 -35 -37c-32.667 -31.333 -61.667 -52.333 -87 -63c-22 -9.33301 -54.667 -14 -98 -14
c-134.667 0 -229.334 91.333 -284.001 274c-1.33301 5.33301 -7.5 18 -18.5 38s-16.5 31.333 -16.5 34c0.666992 2 5.66699 12.667 15 32c5.33301 10.667 12 27 20 49c36 142 104 231.333 204 268l74 18c74 -5.33301 144.667 -34.666 212 -87.999
c3.33301 2.66699 8.66602 8.33398 15.999 17.001c34.667 41.333 59.334 66 74.001 74zM532.001 279.999l0.000976562 72c0 57.333 -16.333 117.333 -49 180c-43.333 83.333 -99 125 -167 125c-70.667 0 -118 -42.333 -142 -127c-12 -42.667 -18 -105 -18 -187
c0 -215.333 56.667 -323 170 -323c71.333 0 125.666 31.333 162.999 94c28.667 48 43 103.333 43 166z" />
    <glyph glyph-name="D" unicode="D" horiz-adv-x="809" 
d="M775 343l-17 -35.001c-12 -26 -20.333 -46 -25 -60c-54.667 -170 -154.334 -255 -299.001 -255c-48.667 0 -95.667 10.667 -141 32l-101 61c-36 21.333 -68.333 32 -97 32c-25.333 0 -38 -9.33301 -38 -28v-12c0 -16 -10 -24 -30 -24s-30 13.333 -30 40
c0 16.667 8.66699 31.334 26 44.001c15.333 12 31.666 18 48.999 18h89c26 0 39 51.333 39 154v75c0 36.667 -1.33301 61.667 -4 75c-7.33301 37.333 -23.666 56 -48.999 56c-5.33301 0 -13.5 -0.333008 -24.5 -1s-19.167 -1 -24.5 -1c-62.667 0 -94 21.333 -94 64
c0 28 12.667 42 38 42c8 0 15.5 -3.33301 22.5 -10s10.5 -13 10.5 -19c0 -4 -3.33301 -15 -10 -33c4 -4 9.33301 -6 16 -6c38.667 0 78 11.667 118 35l106 64c42.667 23.333 92.334 35 149.001 35c88 0 159.667 -44.333 215 -133c14 -22 36.333 -68.667 67 -140
c4.66699 -10.667 11.667 -24 21 -40c6 -9.33301 12 -19.333 18 -30zM622 346.999c0 204 -55 306 -165 306c-103.333 0 -155 -81.333 -155 -244c0 -20 0.333008 -36 1 -48c0.666992 -16 1 -27.333 1 -34c-0.666992 -23.333 -1 -43.333 -1 -60
c0 -70.667 8.33301 -124.667 25 -162c24 -54 67 -81 129 -81c73.333 0 122.333 43.333 147 130c12 42 18 106.333 18 193z" />
    <glyph glyph-name="E" unicode="E" horiz-adv-x="627" 
d="M641 859c0 -6.66699 -7.49805 -29.501 -22.498 -68.501s-25.167 -70.5 -30.5 -94.5c-16.667 -69.333 -25 -140 -25 -212l-1 -242c2 -20.667 3 -43 3 -67v-73c0 -40 4.33301 -80 13 -120c2.66699 -12.667 12.667 -36 30 -70c16 -30.667 24 -52 24 -64
c0 -19.333 -8.33301 -29 -25 -29c-29.333 0 -50 39.667 -62 119l-21 167c-50.667 -46 -82.334 -72.667 -95.001 -80c-29.333 -17.333 -66.333 -26.666 -111 -27.999c-142 -4 -238 87.667 -288 275c-1.33301 4.66699 -7.5 16.667 -18.5 36s-16.5 30.333 -16.5 33l15.5 36.5
c10.333 24.333 16.166 39.5 17.499 45.5c17.333 75.333 49.333 138 96 188c53.333 56 116 84 188 84c91.333 0 163.333 -43 216 -129c8 32.667 15.333 83 22 151c5.33301 58.667 11 98.667 17 120c8.66699 32.667 24 49 46 49c18.667 0 28 -9 28 -27zM519.002 389.999
c0 67.333 -17.667 127.333 -53 180c-40 60 -92 90 -156 90c-97.333 0 -151 -93.333 -161 -280h367c2 6 3 9.33301 3 10zM520.002 309.999h-376c0 -64 14.333 -123.667 43 -179c34.667 -67.333 80.667 -100.333 138 -99c71.333 1.33301 123.333 32 156 92
c26 47.333 39 109.333 39 186z" />
    <glyph glyph-name="F" unicode="F" horiz-adv-x="714" 
d="M704 -150c0 -21.333 -8.66406 -31.998 -25.9971 -31.998c-54 0 -81 79 -81 237c0 52 3 136 9 252h-300c-0.666992 -23.333 -1 -76.666 -1 -159.999c0 -38 10.333 -64.333 31 -79c17.333 -12 45.666 -18 84.999 -18c40.667 0 82 6.66699 124 20
c-16.667 -46.667 -30 -70 -40 -70c-14.667 0 -36.334 2 -65.001 6s-50 6 -64 6l-148 3c-50.667 0 -91.334 -6.33301 -122.001 -19c-2.66699 -1.33301 -15 -8 -37 -20c-18.667 -10.667 -30 -16 -34 -16c-18 0 -27 6.66699 -27 20c0 18.667 20.333 34 61 46
c50.667 14.667 77.667 23.667 81 27c14 10 22.667 24.333 26 43s6.66602 34.667 9.99902 48c-0.666992 52.667 -1 172 -1 358c0 61.333 -19.667 103.666 -59 126.999c-4 2 -27.333 5.66699 -70 11c-32 4 -48 15.667 -48 35c0 17.333 10 26 30 26
c3.33301 0 14.333 -5.5 33 -16.5s37 -16.5 55 -16.5c12 0 30.333 -0.833008 55 -2.5s43.334 -2.5 56.001 -2.5c146.667 0 302 9 466 27c-46 -262.667 -69 -458.334 -69 -587.001c0 -92 6.66699 -151 20 -177c2 -3.33301 12 -15 30 -35c13.333 -14.667 20 -28.334 20 -41.001
zM416.003 630.002c-49.333 0 -81 -11.668 -95 -35.001c-9.33301 -15.333 -14.333 -49.666 -15 -102.999c-0.666992 -4.66699 -1 -25.667 -1 -63c0 -38 0.333008 -57.333 1 -58l303 1c1.33301 4 2 12 2 24c0 83.333 -11 141 -33 173c-28 40.667 -82 61 -162 61z" />
    <glyph glyph-name="G" unicode="G" horiz-adv-x="727" 
d="M695 253c0 -1.33301 -3.66504 -11.333 -10.998 -30l-17 -42c-20.667 -60 -59.334 -108.667 -116.001 -146c-50 -32.667 -101.667 -49 -155 -49c-2 0 -7.33301 -0.333008 -16 -1h-18c-158 0 -264 86.667 -318 260c-1.33301 4.66699 -7.66602 20.667 -18.999 48
c-10.667 24.667 -16 37.667 -16 39c2 6.66699 6.33301 19 13 37c8 22 14.667 41 20 57c54.667 175.333 159 263 313 263c63.333 0 138.666 -23.667 225.999 -71c7.33301 10.667 19.666 25 36.999 43c8.66699 7.33301 19 12.666 31 15.999c-9.33301 -20 -14 -56 -14 -108
c0 -20.667 11.667 -69.334 35 -146.001c-32.667 31.333 -77 79.333 -133 144c-32 36.667 -59.667 61 -83 73c-27.333 14 -69.333 21 -126 21c-112.667 0 -167 -99.333 -163 -298l2 -103c1.33301 -76.667 14 -134 38 -172c30 -47.333 80.667 -71 152 -71
c81.333 0 136 22.667 164 68c20 32 30 86.667 30 164c0 47.333 -6 88 -18 122c-21.333 59.333 -57.333 89 -108 89c-34 0 -63 -8.66699 -87 -26c-26 -19.333 -39 -45.666 -39 -78.999c0 -27.333 8.66699 -49.833 26 -67.5s39.333 -26.5 66 -26.5c21.333 0 39 4.33301 53 13
c18.667 12 33 19 43 21c-5.33301 -11.333 -20 -33.666 -44 -66.999l-56 -78c-98.667 22.667 -148 76.667 -148 162c0 47.333 18.333 87.666 55 120.999s79 50 127 50c102 0 182.667 -59.667 242 -179c1.33301 -3.33301 7 -12.166 17 -26.499s15 -22.5 15 -24.5z" />
    <glyph glyph-name="H" unicode="H" horiz-adv-x="823" 
d="M781 689c-8 -18.667 -29.0049 -34.3291 -63.0049 -46.9961c-30.667 -11.333 -46 -18 -46 -20c-2 -3.33301 -2 -9.33301 0 -18c2 -9.33301 3 -16.333 3 -21c0 -6 -1.66699 -11.667 -5 -17c-42.667 26 -78 43 -106 51c-56 15.333 -99 23 -129 23
c-73.333 0 -110.333 -40.667 -111 -122l-1 -126c46 70 105 103 177 99c49.333 -2.66699 98.333 -20.334 147 -53.001s83.334 -71.334 104.001 -116.001l18 -31c7.33301 -12.667 11 -22.667 11 -30c0 -4.66699 -3 -14 -9 -28l-12 -28c-12.667 -40.667 -52 -95 -118 -163
c-58.667 -60.667 -88 -103 -88 -127c0 -36 19.333 -54 58 -54h16c18 4 30.667 13.667 38 29c1.33301 1.33301 4.33301 12 9 32c31.333 -12 47 -30 47 -54c0 -25.333 -8.66699 -45.5 -26 -60.5s-39 -22.5 -65 -22.5c-29.333 0 -54.666 11.167 -75.999 33.5
s-32 48.166 -32 77.499c0 28 10.333 61 31 99l58 106c20.667 41.333 31 87.666 31 138.999c0 56.667 -11.667 104 -35 142c-28 45.333 -68.667 68 -122 68c-54 0 -96 -22.333 -126 -67c-25.333 -38 -38 -85.333 -38 -142v-60c0 -40.667 4 -70.334 12 -89.001
c14 -32.667 42 -49 84 -49c15.333 0 34.5 1.83301 57.5 5.5s38.167 5.5 45.5 5.5l-30 -58c-81.333 10.667 -145 16 -191 16c-10 2.66699 -23.333 4 -40 4c-55.333 0 -99.333 -4.66699 -132 -14c-29.333 -8.66699 -47.333 -21.334 -54 -38.001
c-3.33301 -8.66699 -13.666 -13 -30.999 -13c-16.667 0 -25 9.66699 -25 29c0 16.667 20.667 32.334 62 47.001c22.667 5.33301 45.334 11 68.001 17c26.667 8 44 21 52 39c2.66699 6.66699 5.66699 22.334 9 47.001v2l3 303c0.666992 50 0.333984 82 -0.999023 96
c-4.66699 59.333 -36 93 -94 101c-18 2.66699 -45.333 6.33398 -82 11.001c-19.333 5.33301 -29 15.666 -29 30.999c0 14.667 8.33301 22 25 22c8.66699 0 20 -3.66699 34 -11c18.667 -8.66699 30.334 -13.667 35.001 -15l588 3c9.33301 0 40.666 5.33301 93.999 16z" />
    <glyph glyph-name="I" unicode="I" horiz-adv-x="558" 
d="M539 673c0 -22 -17.667 -34.667 -53 -38c-1.33301 0 -34 -2 -98 -6c-31.333 -4.66699 -51.666 -20.334 -60.999 -47.001c-2.66699 -8 -5 -36 -7 -84c-1.33301 -26 -1.33301 -141.333 0 -346c0 -22.667 3.5 -42 10.5 -58s15.5 -28.667 25.5 -38
c14 -13.333 48.667 -23 104 -29c42.667 -4.66699 64 -18.667 64 -42c0 -12.667 -8 -20 -24 -22c-16 9.33301 -46.333 22.666 -91 39.999c-74 6 -132.333 9 -175 9c-44.667 0 -80.667 -3 -108 -9c-41.333 -18.667 -73 -31.667 -95 -39
c-17.333 -3.33301 -26 6.33398 -26 29.001c0 16 17 28 51 36l102 24c14.667 3.33301 27.667 17.666 39 42.999c9.33301 21.333 14 41 14 59l3 346c0.666992 38.667 -1.33301 64.334 -6 77.001c-8 22.667 -26 37.334 -54 44.001l-97 12c-35.333 4.66699 -53 17.667 -53 39
c0 16 9.33301 23.667 28 23c25.333 -1.33301 42.333 -8.33301 51 -21c52 -8 115.667 -12 191 -12c80 0 140.333 4 181 12c11.333 7.33301 22.333 12.333 33 15c7.33301 0.666992 17.666 1.66699 30.999 3c13.333 -4 20 -10.667 20 -20z" />
    <glyph glyph-name="J" unicode="J" horiz-adv-x="534" 
d="M502 691c-42.667 -140 -64.001 -290.667 -64.001 -452c0 -142 -11 -243 -33 -303c-38.667 -105.333 -115 -158 -229 -158c-40.667 0 -77 10.333 -109 31c-37.333 23.333 -56 54.333 -56 93c0 16 5.5 29.667 16.5 41s24.5 17 40.5 17c16.667 0 30.167 -5.83301 40.5 -17.5
s15.5 -26.167 15.5 -43.5c0 -5.33301 -2.33301 -15.333 -7 -30s-7 -24 -7 -28c0 -26 27.667 -39 83 -39c42.667 0 79 12.667 109 38s45 59 45 101s-14.667 81.333 -44 118c-10.667 13.333 -16 20.666 -16 21.999c0 41.333 59 228.333 177 561c-22 -6.66699 -65 -29 -129 -67
c-57.333 -34 -99 -51 -125 -51c-23.333 0 -48.333 12 -75 36c-35.333 31.333 -57.666 50 -66.999 56c6.66699 -160 10 -260.667 10 -302c0 -104.667 -18.667 -157 -56 -157c-16.667 0 -25 9 -25 27c0 8 8 23 24 45s24.667 40 26 54l5 46c0 100.667 -8 217.334 -24 350.001
c5.33301 2 20 3 44 3c9.33301 0 32.833 -7 70.5 -21s67.167 -21 88.5 -21c92 0 182.333 17 271 51z" />
    <glyph glyph-name="K" unicode="K" horiz-adv-x="856" 
d="M844 679c0 -17.333 -14.001 -28.6641 -42.001 -33.9971c-16 -0.666992 -40 -2 -72 -4c-12.667 -0.666992 -25.334 -9.33398 -38.001 -26.001s-18.334 -31.667 -17.001 -45c0.666992 -3.33301 1 -9 1 -17c0 -47.333 -23.167 -93.333 -69.5 -138s-93.5 -69 -141.5 -73
c45.333 -13.333 91 -39.333 137 -78c52.667 -44.667 79 -87.334 79 -128.001v-41c0 -26.667 10.333 -47 31 -61c13.333 -8.66699 36.333 -16.667 69 -24c40 -9.33301 60 -22.666 60 -39.999c0 -12.667 -8.33301 -19 -25 -19l-41 27c-27.333 18 -54.666 27 -81.999 27l-285 3
l-229 -6c-10.667 -1.33301 -26.667 -2.33301 -48 -3c-17.333 -0.666992 -30.666 -3.33398 -39.999 -8.00098c-2 -1.33301 -11.333 -9.33301 -28 -24c-12 -10.667 -22.667 -16 -32 -16c-15.333 0 -23 7 -23 21c0 14.667 17 28.667 51 42c29.333 11.333 52 17.333 68 18
c26 1.33301 42.667 17 50 47c3.33301 14.667 5 41 5 79v361c0 83.333 -40 125 -120 125c-7.33301 0 -19.333 -0.666992 -36 -2c-6 -0.666992 -12.5 2.33301 -19.5 9s-10.5 13.667 -10.5 21c0 17.333 9.33301 26 28 26c10.667 0 16.334 -1 17.001 -3
c9.33301 -14 28.333 -22 57 -24c16 -0.666992 40 -1.33398 72 -2.00098c86 -3.33301 181 -4.33301 285 -3l284 4c18.667 0 34.5 5.5 47.5 16.5s24.167 16.5 33.5 16.5c16 0 24 -8 24 -24zM566.999 519.002c0 45.333 -11.001 76.332 -33.001 92.999
c-18 13.333 -50.667 20 -98 20c-0.666992 0 -6.66699 0.333008 -18 1s-19.666 1 -24.999 1c-68 0 -101.667 -24 -101 -72c1.33301 -67.333 1.33301 -134.666 0 -201.999h128c48 0 85.333 16.667 112 50c23.333 28.667 35 65 35 109zM565.998 117.001
c0 68 -18.832 120.833 -56.499 158.5s-90.834 56.5 -159.501 56.5c-26 0 -45 0.666992 -57 2l-1 -176c0 -44.667 5.66699 -75.334 17 -92.001c14.667 -20.667 42.667 -31 84 -31h53c41.333 0 68.333 2.66699 81 8c26 10.667 39 35.334 39 74.001z" />
    <glyph glyph-name="L" unicode="L" horiz-adv-x="752" 
d="M697 498c0 -11.333 -8.66504 -36.501 -25.998 -75.501s-26 -72.167 -26 -99.5c0 -87.333 15.333 -195.333 46 -324c-1.33301 -1.33301 -3 -2 -5 -2c-29.333 0 -70 1.66699 -122 5c-62 4 -102.667 6 -122 6h-220c-52 0 -91.667 -5.33301 -119 -16
c-4 -1.33301 -17.333 -9 -40 -23c-17.333 -10.667 -31 -16 -41 -16c-4 0 -7.83301 2.66699 -11.5 8s-5.5 10 -5.5 14c0 20 18.333 35 55 45c24 6 50.333 9 79 9c19.333 0 32.5 3 39.5 9s12.5 18.333 16.5 37s6 31 6 37v468c0 23.333 -17 39.333 -51 48
c-20.667 3.33301 -52 8 -94 14c-34 5.33301 -51 15.333 -51 30c0 16 10.667 24 32 24c0.666992 0 8.16699 -4.16699 22.5 -12.5s23.833 -13.166 28.5 -14.499c16 -4 36.333 -6 61 -6h214c49.333 0 85 3.33301 107 10l28 14c11.333 6 21 9 29 9
c4.66699 0 10.167 -2.33301 16.5 -7s9.5 -9 9.5 -13c0 -14 -20 -24 -60 -30c-64.667 -9.33301 -102.334 -15.666 -113.001 -18.999c-40 -12.667 -60 -34.334 -60 -65.001c0 -1.33301 -0.666992 -71 -2 -209c-0.666992 -75.333 -0.333984 -144.666 0.999023 -207.999
c0.666992 -35.333 3 -58.333 7 -69c8.66699 -23.333 26.334 -35 53.001 -35c24 0 52.667 15.833 86 47.5s55.666 47.5 66.999 47.5c24 0 46.667 -13 68 -39c26.667 -32.667 43 -50.334 49 -53.001l-41 203c-3.33301 16.667 -5 37 -5 61c0 43.333 5 85 15 125
c14.667 58.667 35.667 88 63 88c10.667 0 16 -7.66699 16 -23z" />
    <glyph glyph-name="M" unicode="M" horiz-adv-x="937" 
d="M892 357l-35.002 -86.001c-43.333 -108 -105 -185.667 -185 -233c29.333 -3.33301 73.333 -8.66602 132 -15.999c55.333 -8 83 -25.333 83 -52c0 -19.333 -10.667 -29 -32 -29c-20 0 -36.333 7.33301 -49 22c-18 20 -30.667 31.833 -38 35.5s-55 6.16699 -143 7.5
c-64.667 0.666992 -145.667 0.666992 -243 0l-161 -2c-40.667 0 -73 -6.66699 -97 -20c-10.667 -6 -25 -18.333 -43 -37c-12.667 -13.333 -27.334 -20 -44.001 -20c-20.667 0 -31 10 -31 30c0 25.333 28.333 43.333 85 54c28.667 5.33301 71.334 12.666 128.001 21.999
c-11.333 2.66699 -39 31 -83 85c-25.333 30.667 -51.666 67.334 -78.999 110.001c-37.333 58 -56 97.667 -56 119c0 4 11 27.667 33 71c48 94.667 93.333 161.667 136 201c60 56 136 84 228 84h76c74 0 147.333 -26.333 220 -79c68.667 -49.333 120 -109 154 -179
c26.667 -54.667 41.334 -84 44.001 -88zM736.998 338.999c0 59.333 -10.667 119 -32 179c-32 90 -81.333 135 -148 135c-40.667 0 -61 -42 -61 -126v-31c0 -4.66699 0.333008 -9.66699 1 -15v-9l-1 -299c0 -0.666992 -0.333008 -4 -1 -10v-17v-26
c0 -30 6.16699 -51.333 18.5 -64s33.5 -19 63.5 -19c60.667 0 105 42.667 133 128c18 54.667 27 112.667 27 174zM384.998 172.999l1.99902 303.999c0.666992 117.333 -25 176 -77 176c-64.667 0 -108.667 -39.333 -132 -118c-12.667 -43.333 -19.667 -107.333 -21 -192
c-0.666992 -58.667 8 -116.667 26 -174c28 -88 72.667 -132 134 -132c34 0 55 14.667 63 44c2.66699 10.667 4.33398 41.334 5.00098 92.001z" />
    <glyph glyph-name="N" unicode="N" horiz-adv-x="827" 
d="M783 340c0 -5.33301 -5.66211 -21.833 -16.9951 -49.5s-19.333 -44.5 -24 -50.5l-117 -157c-52 -70.667 -78 -126 -78 -166c0 -22.667 6.66699 -43.167 20 -61.5s30 -27.5 50 -27.5c18 0 33 5.5 45 16.5s18 25.167 18 42.5c0 5.33301 -4 18.666 -12 39.999
c21.333 -3.33301 39.666 -12.5 54.999 -27.5s23 -32.167 23 -51.5c0 -24.667 -9.83301 -44.834 -29.5 -60.501s-42.834 -23.5 -69.501 -23.5c-46.667 0 -83.334 20 -110.001 60c-18 27.333 -27 59.333 -27 96c0 24.667 10.667 61.334 32 110.001
c11.333 24 27.333 60.333 48 109c26.667 68 40 143 40 225c0 72 -12.667 134.667 -38 188c-32.667 68.667 -81 103 -145 103c-51.333 0 -86.666 -20.333 -105.999 -61c-12.667 -26.667 -20.334 -69 -23.001 -127c0 -4 -0.666992 -14.333 -2 -31
c-1.33301 -19.333 -2 -29.666 -2 -30.999c0 -56 0.666992 -130.667 2 -224c0.666992 -45.333 5.33398 -78 14.001 -98c13.333 -31.333 39 -47 77 -47c3.33301 0 30.666 2.66699 81.999 8c0 -8 -2.33301 -18 -7 -30c-5.33301 -14.667 -11 -21.667 -17 -21l-147 14
c-21.333 2 -52 3 -92 3c-42 0 -75.667 -5.66699 -101 -17c-11.333 -4.66699 -26.333 -15.334 -45 -32.001c-13.333 -11.333 -25.333 -17 -36 -17c-17.333 0 -26 7.66699 -26 23c0 22.667 16 39 48 49c54 16.667 84.333 27 91 31c32 20 48 52.333 48 97
c0 6.66699 0.333008 23 1 49v67v115c0 62 -17.667 101 -53 117c-39.333 6 -72.333 11.333 -99 16c-35.333 6 -53 29 -53 69c0 12 5.16699 23.667 15.5 35s21.166 17 32.499 17c23.333 0 35 -10.667 35 -32c0 -12.667 -11 -25.667 -33 -39c11.333 -13.333 27 -20 47 -20
c33.333 0 68 13 104 39l99 74c38 26 80.333 39 127 39c80 0 147.333 -27.333 202 -82c41.333 -41.333 81 -104.666 119 -189.999c21.333 -48 32.666 -74 33.999 -78z" />
    <glyph glyph-name="O" unicode="O" horiz-adv-x="689" 
d="M651 337c0 -0.666992 -4.16504 -13.334 -12.498 -38.001l-14.5 -43c-20 -73.333 -56.333 -135.666 -109 -186.999c-58.667 -57.333 -123.667 -86 -195 -86c-70.667 0 -131.834 23.333 -183.501 70s-88.834 112.667 -111.501 198c-2 7.33301 -6.66699 21.333 -14 42
c-8.66699 24 -13 38 -13 42s4 15.333 12 34c6.66699 14 14.334 32 23.001 54c26.667 74.667 61.667 134.334 105 179.001c53.333 55.333 114.666 83 183.999 83c68 0 128.333 -24.667 181 -74c50 -46.667 88.667 -112.334 116 -197.001zM497.002 326
c0 101.333 -6.33301 171 -19 209c-25.333 75.333 -77.666 113 -156.999 113c-74.667 0 -124.667 -36.667 -150 -110c-14 -40.667 -21 -109 -21 -205c0 -102 5.33301 -170 16 -204c23.333 -73.333 74.666 -110 153.999 -110c80 0 132.333 36.333 157 109
c13.333 38.667 20 104.667 20 198z" />
    <glyph glyph-name="P" unicode="P" horiz-adv-x="791" 
d="M763 448c-10 -11.333 -22.6729 -32.665 -38.0059 -63.998c-12 -48.667 -43 -87.667 -93 -117c-44.667 -26.667 -93.667 -40 -147 -40c-40.667 0 -74.667 14.167 -102 42.5s-41 63.166 -41 104.499c0 32.667 12 60.5 36 83.5s52.333 34.5 85 34.5
c26.667 0 49.834 -8.16699 69.501 -24.5s29.5 -36.5 29.5 -60.5c0 -18.667 -9.16699 -34.834 -27.5 -48.501s-37.166 -20.5 -56.499 -20.5c-15.333 0 -27.666 3.66699 -36.999 11c2 6 9.66699 11.333 23 16c10 3.33301 15 15.333 15 36c0 30.667 -17 46 -51 46
c-16 0 -28.833 -7.16699 -38.5 -21.5s-14.5 -31.166 -14.5 -50.499c0 -34.667 10.833 -62.834 32.5 -84.501s49.834 -32.5 84.501 -32.5c42.667 0 74.334 18.333 95.001 55c17.333 30.667 26 68.667 26 114c0 66 -7 115.667 -21 149c-21.333 50.667 -60.666 76 -117.999 76
c-112 0 -168 -75.667 -168 -227v-275c0 -42 10.333 -70.667 31 -86c17.333 -14 47.666 -21 90.999 -21c79.333 0 162 15.667 248 47c-8.66699 -30.667 -22 -64.334 -40 -101.001c-104 17.333 -227.667 26 -371 26c-96 0 -153.333 -7.33301 -172 -22
c-2 -0.666992 -11.333 -11.667 -28 -33c-11.333 -14 -23 -21 -35 -21c-17.333 0 -26 9.33301 -26 28c0 30.667 16.667 49.334 50 56.001c54 11.333 85.333 20 94 26c33.333 23.333 50 68.333 50 135v136c0 100.667 -20.333 151 -61 151c-4 0 -13.167 -0.833008 -27.5 -2.5
s-23.833 -2.5 -28.5 -2.5c-21.333 0 -39.333 5.66699 -54 17c-16.667 12 -25 28.333 -25 49c0 28 12.333 42 37 42c23.333 0 35 -9 35 -27c0 -2.66699 -0.5 -8.16699 -1.5 -16.5s-1.5 -13.5 -1.5 -15.5c0 -12 6.33301 -18 19 -18c35.333 0 73.333 16.333 114 49
c24.667 20.667 62.334 50.667 113.001 90c45.333 32.667 97.333 49 156 49c57.333 0 107.333 -17.333 150 -52c32.667 -26 66.667 -67.667 102 -125c8 -25.333 20.667 -45.333 38 -60z" />
    <glyph glyph-name="Q" unicode="Q" horiz-adv-x="696" 
d="M651 337c0 -0.666992 -4.16504 -13.335 -12.498 -38.002l-14.5 -43c-18.667 -67.333 -50 -124.666 -94 -171.999c-48 -52.667 -104 -85 -168 -97c8.66699 -4.66699 25.667 -16.334 51 -35.001c15.333 -13.333 25.333 -21.333 30 -24c35.333 -22 69.666 -33 102.999 -33
c25.333 0 45.666 7.66699 60.999 23c8.66699 8.66699 17 22.667 25 42c6 15.333 11.667 23 17 23c1.33301 0 3 -0.5 5 -1.5s3.33301 -1.5 4 -1.5v-20c0 -4.66699 -1.33301 -11.667 -4 -21c-1.33301 -6.66699 -3 -14 -5 -22c-5.33301 -33.333 -22 -62.833 -50 -88.5
s-58.667 -38.5 -92 -38.5c-30.667 0 -61.667 13.667 -93 41l-71 77c-26 27.333 -50.667 41 -74 41c-16 0 -30.167 -4.33301 -42.5 -13s-18.5 -20 -18.5 -34c0 -12 4.33301 -21.833 13 -29.5s19 -11.5 31 -11.5c20.667 0 35 13.667 43 41c16.667 -8 25 -21.333 25 -40
c0 -15.333 -6.5 -28.5 -19.5 -39.5s-27.833 -16.5 -44.5 -16.5c-23.333 0 -41.833 7.83301 -55.5 23.5s-20.5 35.834 -20.5 60.501c0 48 26.667 81 80 99c-56 12 -103.333 40.667 -142 86c-34.667 40.667 -65.667 99.334 -93 176.001l-15 42c-8 22.667 -12 36.667 -12 42
c0 4 4 15.333 12 34c6.66699 14 14.334 32 23.001 54c26.667 74.667 61.667 134.334 105 179.001c53.333 55.333 114.666 83 183.999 83c68 0 128.333 -24.667 181 -74c50 -46.667 88.667 -112.334 116 -197.001zM497.002 325.999c0 101.333 -6.33301 171 -19 209
c-25.333 75.333 -77.666 113 -156.999 113c-74.667 0 -124.667 -36.667 -150 -110c-14 -40.667 -21 -109 -21 -205c0 -102 5.33301 -170 16 -204c23.333 -73.333 74.666 -110 153.999 -110c80 0 132.333 36.333 157 109c13.333 38.667 20 104.667 20 198z" />
    <glyph glyph-name="R" unicode="R" horiz-adv-x="776" 
d="M768 -157c0 -42 -22.668 -62.9941 -68.001 -62.9941c-39.333 0 -72 23.333 -98 70c-11.333 20 -20.666 43.333 -27.999 70l-21 78c-14 50.667 -31.667 103 -53 157c-28.667 72 -75.667 133 -141 183c-8.66699 5.33301 -13 8.66602 -13 9.99902c0 8 3.66699 15.667 11 23
c46.667 -28.667 87.667 -43 123 -43c40.667 0 72 16.667 94 50c19.333 28.667 29 64.334 29 107.001c0 51.333 -12 93.666 -36 126.999c-26.667 37.333 -65 56 -115 56c-33.333 0 -63.5 -10 -90.5 -30s-43.833 -46 -50.5 -78c-8 -38.667 -12 -76 -12 -112v-340
c0 -32.667 9.66699 -54.667 29 -66c13.333 -8 38 -12 74 -12c0.666992 0 8.66699 1 24 3s26 3.33301 32 4c0 -9.33301 -9 -26 -27 -50c-60.667 14.667 -123.667 22 -189 22c-50.667 0 -69 0.333008 -55 1c-20 -1.33301 -47 -5.33301 -81 -12
c-8 -1.33301 -17.333 -10 -28 -26l-21 -31c-6.66699 -5.33301 -15.334 -8 -26.001 -8c-18.667 0 -28 7.33301 -28 22c0 25.333 25.667 46.666 77 63.999c34 11.333 55.333 19 64 23c24.667 11.333 37 23.666 37 36.999c0.666992 63.333 1 194 1 392
c0 12 -4.33301 22.333 -13 31s-19 13.667 -31 15c-17.333 2 -43.666 4.66699 -78.999 8c-42 9.33301 -63 27.666 -63 54.999c0 12 3.66699 23 11 33s15.666 15 24.999 15c8 0 16.333 -3.83301 25 -11.5s13 -15.5 13 -23.5c0 -0.666992 -1.33301 -5.66699 -4 -15
s-4.33398 -15.333 -5.00098 -18c6 -4 12.667 -6 20 -6c34.667 0 72.667 12.333 114 37l114 70c43.333 24.667 86.333 37 129 37c130.667 0 223.667 -60.667 279 -182c1.33301 -3.33301 6.5 -11.833 15.5 -25.5s13.5 -22.167 13.5 -25.5c0 -0.666992 -6 -7.33398 -18 -20.001
c-12.667 -14.667 -19.667 -22.667 -21 -24c-21.333 -28.667 -36.666 -48 -45.999 -58c-22 -24.667 -39 -40 -51 -46c-31.333 -16 -60.333 -24 -87 -24c-9.33301 0 -33.333 2.66699 -72 8h-8c63.333 -72 140.333 -114 231 -126c-36 -100.667 -54 -170.667 -54 -210
c0 -32 3.66699 -62.333 11 -91c10.667 -40.667 26.334 -62.334 47.001 -65.001c1.33301 0 2.33301 1 3 3c-2.66699 6 -4 13.333 -4 22c0 15.333 4.33301 28 13 38s20.667 15 36 15c28 0 42 -14.667 42 -44z" />
    <glyph glyph-name="S" unicode="S" horiz-adv-x="613" 
d="M308 -20c-77.333 0 -149.334 32 -216.001 96l-1 -3c-18.667 -55.333 -41.667 -109 -69 -161c-35.333 -66.667 -71.333 -115.334 -108 -146.001v19c4 4.66699 15 22 33 52c59.333 97.333 89 205.333 89 324c0 34.667 -6 85.334 -18 152.001v15
c9.33301 -1.33301 22.333 -13.666 39 -36.999c22.667 -31.333 43 -72 61 -122c36 -99.333 99.333 -149 190 -149c44 0 84.333 9 121 27c45.333 22.667 68 53.667 68 93c0 64.667 -49.667 106.334 -149 125.001c-16.667 3.33301 -39.667 -1.66699 -69 -15
c-8.66699 14 -19.667 23 -33 27c-0.666992 0.666992 -10.667 2.33398 -30 5.00098c-54.667 7.33301 -99.834 29.666 -135.501 66.999s-53.5 83.333 -53.5 138c0 56 19.167 103.167 57.5 141.5s85.5 57.5 141.5 57.5c50 0 106.333 -22.667 169 -68
c15.333 20.667 25.333 33.667 30 39c12 14.667 24 26 36 34l14 -8c-16 -38.667 -24 -83.334 -24 -134.001c0 -58.667 12.333 -105.334 37 -140.001l-11 -7c-18 6.66699 -37.667 26.334 -59 59.001l-44 75c-44.667 72 -93.334 108 -146.001 108
c-38 0 -68.833 -10.167 -92.5 -30.5s-35.5 -48.166 -35.5 -83.499c0 -38.667 15 -68.334 45 -89.001c20.667 -14 53.334 -25.667 98.001 -35c4.66699 -0.666992 13.334 0.666016 26.001 3.99902c18 5.33301 32.333 9 43 11c19.333 -12.667 36 -26 50 -40
c76.667 -18 128.334 -41 155.001 -69c32 -33.333 48 -77.333 48 -132c0 -68 -27 -119.667 -81 -155c-46 -30 -104.667 -45 -176 -45z" />
    <glyph glyph-name="T" unicode="T" horiz-adv-x="707" 
d="M667 230c-10 -15.333 -20.998 -33.9971 -32.998 -55.9971c-25.333 -69.333 -63.666 -119 -114.999 -149c-46.667 -26.667 -108.667 -40 -186 -40c-59.333 0 -112.333 12.333 -159 37c-51.333 26.667 -89.333 65 -114 115c-20 41.333 -40.333 76.666 -61 105.999
c14 15.333 32.333 53 55 113c17.333 46 49.666 90 96.999 132s94.666 67.667 141.999 77l21 6c0 3.33301 -1.66699 5.66602 -5 6.99902c-80.667 46 -144 69 -190 69c-20.667 0 -40.334 -5.33301 -59.001 -16c-22.667 -12.667 -34 -28.334 -34 -47.001
c0 -26 13.333 -39 40 -39s40 11.333 40 34c0 2 -0.666992 6 -2 12c-0.666992 3.33301 0.333008 7.33301 3 12c22 -8 33 -27.667 33 -59c0 -13.333 -6.83301 -25.333 -20.5 -36s-27.5 -16 -41.5 -16c-22.667 0 -41.5 7.5 -56.5 22.5s-22.5 34.167 -22.5 57.5
c0 76.667 56.667 115 170 115c40.667 0 79.334 -7 116.001 -21c25.333 20 44.666 29.667 57.999 29c30 -1.33301 70 -22.166 120 -62.499s84.667 -60.5 104 -60.5c17.333 0 32.666 5.16699 45.999 15.5s20 23.166 20 38.499c0 6.66699 -2.33301 12.667 -7 18
c-19.333 -19.333 -34.333 -29 -45 -29c-26.667 0 -40 12.333 -40 37c0 11.333 5.16699 22.166 15.5 32.499s20.833 15.5 31.5 15.5c44 0 66 -25.667 66 -77c0 -39.333 -22 -67 -66 -83c-23.333 -8.66699 -48.333 -12.334 -75 -11.001c-15.333 0.666992 -40.333 4 -75 10
c-32 5.33301 -56.667 8 -74 8c-34 0 -68.667 -8.33301 -104 -25c-42.667 -20 -72 -49.333 -88 -88c-13.333 -30.667 -20 -72.667 -20 -126c0 -136 24 -223 72 -261c26 -20.667 63.667 -31 113 -31c66.667 0 115 16.667 145 50c28 31.333 42 80.666 42 147.999
c0 52.667 -8.66699 95.667 -26 129c-22 43.333 -57 65 -105 65c-28.667 0 -51.5 -8.16699 -68.5 -24.5s-25.5 -38.833 -25.5 -67.5c0 -21.333 8.16699 -39.666 24.5 -54.999s35.5 -23 57.5 -23c12.667 0 25 4.33301 37 13c1.33301 0.666992 11 9.33398 29 26.001
c2.66699 0 8.33398 -3 17.001 -9c-26 -26 -45 -45.667 -57 -59c-24.667 -27.333 -40 -48.333 -46 -63c-0.666992 0 -7 1 -19 3c-29.333 0 -55.5 14 -78.5 42s-34.5 56.667 -34.5 86c0 50 18 89.667 54 119c33.333 28 75.333 42 126 42c47.333 0 91 -14.167 131 -42.5
s71.333 -66.833 94 -115.5c0.666992 -1.33301 7 -9.66602 19 -24.999c9.33301 -12 14 -20.333 14 -25z" />
    <glyph glyph-name="U" unicode="U" horiz-adv-x="816" 
d="M787 688c0 -6.66699 -3.49707 -14.334 -10.4971 -23.001s-13.5 -13 -19.5 -13c-116 -4 -174 -39 -174 -105l-1 -367c0 -44.667 2 -75.667 6 -93c10.667 -46 34 -69 70 -69c27.333 0 47.333 27 60 81c-2 36 -14.667 54 -38 54c-0.666992 0 -6.33398 -2.5 -17.001 -7.5
s-18.667 -7.5 -24 -7.5c-6.66699 0 -9.33398 5 -8.00098 15c4 26 13 42.667 27 50c8 3.33301 22.667 5 44 5c26.667 0 47.334 -10.333 62.001 -31c14 -18 21 -40.667 21 -68c0 -30.667 -14.167 -59 -42.5 -85s-58.166 -39 -89.499 -39c-32.667 0 -59.667 11 -81 33
c-16.667 16.667 -35.667 48.667 -57 96c-0.666992 0 -2.33398 -1.33301 -5.00098 -4c-42.667 -80 -105.667 -120 -189 -120c-130 0 -224 83.667 -282 251c-2.66699 6.66699 -8.33398 19.334 -17.001 38.001c-8 16.667 -12 25.667 -12 27c0 2 5.33301 11 16 27
c3.33301 4.66699 10.666 16.667 21.999 36c36 75.333 63 126.333 81 153c35.333 51.333 80 88 134 110h-160c-18.667 -2 -39.667 1 -63 9c-28 10 -42 22.667 -42 38c0 14 1.33301 23 4 27c6 9.33301 19.667 14 41 14c7.33301 0 19.5 -7.16699 36.5 -21.5
s33.5 -21.5 49.5 -21.5c-4.66699 0 4.33301 -0.333008 27 -1c27.333 0 60 -0.333008 98 -1l228 -2c139.333 0 214.333 3 225 9l31 27c6 4 14.667 6 26 6c15.333 0 23 -9 23 -27zM469.003 542c1.33301 62.667 -28.3311 94 -88.998 94
c-72.667 0 -129.334 -37.333 -170.001 -112c-32.667 -60 -49 -130 -49 -210c0 -61.333 10.333 -118 31 -170c29.333 -73.333 71.333 -110 126 -110c98.667 0 148.667 48.333 150 145c-0.666992 69.333 -0.333984 190.333 0.999023 363z" />
    <glyph glyph-name="V" unicode="V" horiz-adv-x="856" 
d="M850 694c0 -27.333 -31.998 -43.3359 -95.998 -48.0029c-25.333 -2 -40.333 -4.66699 -45 -8c-12 -9.33301 -24.333 -20.666 -37 -33.999c-23.333 -33.333 -45.666 -75.333 -66.999 -126c-7.33301 -17.333 -24.333 -61.666 -51 -132.999l-66 -202
c-38.667 -116 -61.334 -174 -68.001 -174c-0.666992 -0.666992 -3.33398 -1.33398 -8.00098 -2.00098c-2.66699 -0.666992 -4.33398 0 -5.00098 2c-28.667 60.667 -72.334 163.334 -131.001 308.001c-65.333 162 -108.666 264.667 -129.999 308
c-4.66699 9.33301 -13.667 21 -27 35c-15.333 16 -28 24 -38 24h-64c-17.333 0 -26 9.33301 -26 28c0 12.667 5.33301 20.334 16 23.001c17.333 1.33301 34.333 -5 51 -19c6 -0.666992 11.667 -1 17 -1c6 0 11.333 0.333008 16 1h556c57.333 0 79.333 -0.333008 66 -1
c24 1.33301 45.333 5.33301 64 12c18 18 30.333 27 37 27c0.666992 0.666992 4 1 10 1c17.333 0 26 -7 26 -21zM542.002 564.997c0 32.667 -14.334 54.665 -43.001 65.998c-15.333 6 -40.666 9 -75.999 9c-33.333 0 -57 -2 -71 -6c-32 -9.33301 -48 -27.666 -48 -54.999
c0 -35.333 17.667 -114.666 53 -237.999c26.667 -92 47.667 -158.667 63 -200l71 213c34 108.667 51 179 51 211z" />
    <glyph glyph-name="W" unicode="W" horiz-adv-x="994" 
d="M968 677c0 -6.66699 -6.33105 -13.3301 -18.998 -19.9971c-10 -5.33301 -18.667 -9 -26 -11c-17.333 -1.33301 -48 -5.33301 -92 -12c-30.667 -6 -46 -46 -46 -120l-1 -375c0 -15.333 1.66699 -30.333 5 -45c9.33301 -42 28.666 -63 57.999 -63
c15.333 0 28.166 5.16699 38.499 15.5s15.166 23.833 14.499 40.5c-1.33301 34.667 -13 52 -35 52c-7.33301 0 -17.333 -2.66699 -30 -8c1.33301 11.333 9.33301 22.666 24 33.999s28 17 40 17c19.333 0 35.333 -8.16699 48 -24.5s19 -34.5 19 -54.5
c0 -36.667 -14 -65 -42 -85c-24.667 -16.667 -56.334 -25 -95.001 -25c-22 0 -43.667 12.667 -65 38s-34.666 50.333 -39.999 75h-3c-29.333 -63.333 -68.666 -101.333 -117.999 -114c-13.333 -3.33301 -29 -5 -47 -5c-50 0 -106 30.333 -168 91l-42 -46
c-26.667 -27.333 -58.667 -41 -96 -41c-50.667 0 -95.667 25.333 -135 76c-36 46 -57.667 95.333 -65 148c-2.66699 20 -13.334 50 -32.001 90c6.66699 11.333 19.334 37 38.001 77c17.333 59.333 43 107.666 77 144.999c31.333 35.333 64 60.666 98 75.999l78 36h-262
c-36 0 -54 11 -54 33c0 7.33301 3.5 14.5 10.5 21.5s13.833 10.5 20.5 10.5c2.66699 0 9.83398 -5.16699 21.501 -15.5s20.834 -15.5 27.501 -15.5l825 4c9.33301 9.33301 19.666 18 30.999 26c5.33301 2 9.66602 3 12.999 3c17.333 0 26 -9.66699 26 -29zM673.002 242.004
l-3 300.002c-10 41.333 -16.333 63.666 -19 66.999c-10.667 20 -32 29.667 -64 29c-6 0 -12 0.333008 -18 1c-7.33301 0.666992 -13 0.666992 -17 0c-6 -1.33301 -10.667 -3.33301 -14 -6c-36.667 -30.667 -65 -79.334 -85 -146.001c-16.667 -56 -25 -118.667 -25 -188
c0 -128 23 -211 69 -249c23.333 -19.333 46.333 -29 69 -29c54 0 86.333 38.333 97 115zM299.002 606.006c-100.667 -63.333 -151.002 -172.667 -151.002 -328c0 -52 5 -98 15 -138c18.667 -74.667 51.667 -112 99 -112c22 0 42.333 8 61 24s32.667 35 42 57
c1.33301 1.33301 -6 17.333 -22 48c-20 39.333 -32.333 68.333 -37 87c-7.33301 29.333 -20 54.666 -38 75.999c16 16 31.333 40.333 46 73c24.667 54.667 85 136.334 181 245.001c-9.33301 0 -23.166 0.333008 -41.499 1s-32.166 1 -41.499 1
c-39.333 0 -77 -11.333 -113 -34z" />
    <glyph glyph-name="X" unicode="X" horiz-adv-x="878" 
d="M868 -22c0 -6.66699 -2.99805 -13.0029 -8.99805 -19.0029s-12.667 -9 -20 -9c-5.33301 0 -18.833 9.33301 -40.5 28s-45.834 28 -72.501 28h-560c-29.333 0 -55.333 -8 -78 -24s-37 -24 -43 -24c-7.33301 0 -14 2.83301 -20 8.5s-9 12.167 -9 19.5
c0 17.333 22.333 31.666 67 42.999c48.667 12.667 76 27.334 82 44.001c5.33301 14.667 11.333 43.334 18 86.001c5.33301 36.667 13.333 64.334 24 83.001c16 28 42 54 78 78c12.667 8 38 19 76 33l-42 65l-77 120c-42 60.667 -73.667 94.334 -95 101.001
c-9.33301 3.33301 -26.333 6 -51 8c-60 5.33301 -90 19.666 -90 42.999c0 20 10.667 30 32 30c12.667 0 26.667 -10.333 42 -31c3.33301 -3.33301 13.166 -6.66602 29.499 -9.99902s27.833 -5 34.5 -5h569c31.333 0 53.666 2.66699 66.999 8
c3.33301 1.33301 9.33301 6.66602 18 15.999s18.334 14 29.001 14c19.333 0 29 -8 29 -24c0 -30 -31.333 -45 -94 -45h-19c-13.333 3.33301 -26.5 -0.166992 -39.5 -10.5s-19.5 -22.166 -19.5 -35.499c0 -5.33301 1 -17.5 3 -36.5s3 -31.5 3 -37.5
c0 -68 -30.333 -114.333 -91 -139c-48 -13.333 -84 -23.666 -108 -30.999c10 -16.667 31.333 -49.334 64 -98.001l73 -117c29.333 -45.333 62.666 -75 99.999 -89c18.667 -4.66699 46.334 -12 83.001 -22c38 -12 57 -28.333 57 -49zM589.002 494.997
c0 28.667 -5.66895 56.667 -17.002 84c-13.333 33.333 -31.666 53.333 -54.999 60c-14 4 -32.667 6 -56 6c-66 0 -99 -18.667 -99 -56c0 -8.66699 2.33301 -18.667 7 -30c6.66699 -15.333 41.334 -74.333 104.001 -177c9.33301 1.33301 18.333 3 27 5
c59.333 13.333 89 49.333 89 108zM513 77.9971c0 14 -46.334 96.667 -139.001 248c-3.33301 -2 -12.666 -6.33301 -27.999 -13c-51.333 -30.667 -77 -71 -77 -121c0 -4.66699 0.666992 -11.667 2 -21c11.333 -79.333 37 -122.333 77 -129c19.333 -3.33301 49.333 -5 90 -5
c50 0 75 13.667 75 41z" />
    <glyph glyph-name="Y" unicode="Y" horiz-adv-x="838" 
d="M822 678c0 -16.667 -14.3311 -27.998 -42.998 -33.998c-22 -2 -43.667 -4.33301 -65 -7c-25.333 -7.33301 -38 -22 -38 -44c0 -3.33301 3.66699 -24 11 -62c11.333 -59.333 17 -105.666 17 -138.999c0 -90.667 -32.667 -168.667 -98 -234
c-26.667 -26.667 -87.334 -68.334 -182.001 -125.001c-65.333 -39.333 -98 -74 -98 -104c0 -44.667 30.667 -67 92 -67c20 0 37.667 6.16699 53 18.5s23 27.5 23 45.5c0 10.667 -1.33301 18.334 -4 23.001c-4.66699 8 -7.33398 14 -8.00098 18c22 0 41.5 -8 58.5 -24
s25.5 -35 25.5 -57c0 -34.667 -12.833 -62.167 -38.5 -82.5s-57.5 -30.5 -95.5 -30.5c-41.333 0 -77.333 12 -108 36c-33.333 26 -50 59 -50 99c0 25.333 13 54.166 39 86.499s39 52.166 39 59.499c0 23.333 -40.333 152.333 -121 387
c-21.333 61.333 -34.333 97.666 -39 108.999c-22 50 -43.667 78.667 -65 86c-30 4.66699 -54.667 9 -74 13c-34.667 6.66699 -52 18.667 -52 36c0 12.667 8.33301 19 25 19c4 0 14 -5 30 -15s30.333 -15 43 -15h604c18 0 36.833 5 56.5 15s33.167 15 40.5 15
c6 0 11.167 -2.83301 15.5 -8.5s6.5 -11.5 6.5 -17.5zM609.002 332.002c0 44.667 -9.33496 96.665 -28.002 155.998c-17.333 55.333 -35.666 93.333 -54.999 114c-26 28 -64 42 -114 42c-21.333 0 -40 -4.33301 -56 -13c-20 -10.667 -30 -26 -30 -46c0 -22 19 -107 57 -255
c38.667 -150 63 -232.667 73 -248c44.667 22.667 81.334 57.334 110.001 104.001s43 95.334 43 146.001z" />
    <glyph glyph-name="Z" unicode="Z" horiz-adv-x="649" 
d="M619 406c0 -2.66699 -9 -23.332 -27 -61.999c-17.333 -40 -26 -74.667 -26 -104c0 -30.667 5 -73 15 -127l13 -78c3.33301 -20.667 5.66602 -36.667 6.99902 -48h-17c-18 0 -47.333 3.66699 -88 11c-37.333 6.66699 -66.666 10 -87.999 10h-191c-26 0 -62 -4 -108 -12
c-24.667 -4.66699 -45.834 -8 -63.501 -10s-32.167 -3.33301 -43.5 -4l-3 6l66.5 78.5l52.5 64.5c23.333 28.667 43.5 55.834 60.5 81.501s31.167 49.834 42.5 72.501c-4 0.666992 -10.167 1.16699 -18.5 1.5s-18.833 0.5 -31.5 0.5c-18 0 -33.667 -7.66699 -47 -23
s-23.333 -25.333 -30 -30l-6 7c0.666992 38.667 22 71.334 64 98.001c37.333 24 75.333 35.667 114 35c0 2 20.667 40.667 62 116c42 76 63 120.667 63 134l-46 -1c-27.333 -4 -60.666 -20.667 -99.999 -50s-64.333 -44 -75 -44c-18.667 0 -37.334 9.33301 -56.001 28
l-46 46l-1 -17c-0.666992 -12.667 1 -32.667 5 -60c4 -26 6 -45 6 -57c0 -128 -18.667 -192 -56 -192c-15.333 0 -23 8.33301 -23 25c0 2 7.66699 15.667 23 41s23 50.333 23 75c0 17.333 -1 37 -3 59s-4.66699 46 -8 72c-4.66699 30 -8.33398 55.667 -11.001 77
s-4.66699 38.666 -6 51.999c38.667 -8 96.667 -12 174 -12c87.333 0 156.833 0.333008 208.5 1s86.167 1.66699 103.5 3c2.66699 0 5 0.333008 7 1l30 5c8 1.33301 15 2.33301 21 3s11.333 1 16 1l3 -6c-79.333 -93.333 -154.666 -196.666 -225.999 -309.999
c16 -4 36.667 -6 62 -6c32 0 55.667 17 71 51h8c0.666992 -0.666992 2 -4.33398 4 -11.001c-25.333 -83.333 -80.666 -125 -165.999 -125h-13.5c-3.66699 0 -6.83398 0.333008 -9.50098 1l-39.5 -63.5c-11 -18.333 -20.167 -34.166 -27.5 -47.499
c-31.333 -55.333 -47 -94.333 -47 -117c2.66699 -2.66699 14.334 -4 35.001 -4c40.667 0 74.667 7.66699 102 23c6.66699 3.33301 14.167 8.66602 22.5 15.999l29.5 27c16.667 15.333 31.334 23 44.001 23c17.333 0 37.666 -11.667 60.999 -35c30 -30 49.667 -46.667 59 -50
c-0.666992 9.33301 -2.16699 22.166 -4.5 38.499l-8.5 58.5c-3.33301 20.667 -5.83301 39.167 -7.5 55.5s-2.5 30.166 -2.5 41.499c0 35.333 5 72.666 15 111.999c14 54 33.333 81 58 81c13.333 0 20 -9 20 -27z" />
    <glyph glyph-name="bracketleft" unicode="[" horiz-adv-x="186" 
d="M1 711l-1.00098 -801c26.667 0 46.334 0.333008 59.001 1c24 -1.33301 43.667 -8 59 -20c0 8 -0.333008 18.333 -1 31l-66 29v719l65 25v29c-12.667 -10 -26.667 -15 -42 -15c-2.66699 0 -10.5 0.666992 -23.5 2s-21.833 2 -26.5 2c-6 0 -13.667 -0.666992 -23 -2z" />
    <glyph glyph-name="backslash" unicode="\" horiz-adv-x="249" 
d="M172 -36c0 -9.33301 3.66797 -19.665 11.001 -30.998l15 -18c-28.667 -4 -49.667 -21 -63 -51c-2 -4 -9 -30.667 -21 -80c-6.66699 -28.667 -17.334 -43.334 -32.001 -44.001v626c-17.333 1.33301 -30.333 2 -39 2c-7.33301 0 -22.333 -0.666992 -45 -2
c-1.33301 1.33301 -2 7.66602 -2 18.999c0 12 0.666992 29.333 2 52h87c2.66699 68 -6 119.333 -26 154c31.333 1.33301 67 13.166 107 35.499s67.333 46.5 82 72.5c10.667 -13.333 37 -41.666 79 -84.999c0 -1.33301 -9 -10 -27 -26s-32.667 -29.667 -44 -41
c-12 12 -32 33.667 -60 65l-24 -15v-633z" />
    <glyph glyph-name="bracketright" unicode="]" horiz-adv-x="187" 
d="M121 -95l0.998047 800h-61c-19.333 0 -38.333 6.33301 -57 19c0 -8 0.333008 -18 1 -30l66 -29v-719l-65 -26v-29c12.667 10.667 27.334 16 44.001 16c2.66699 0 10.334 -0.666992 23.001 -2s21 -2 25 -2c6 0 13.667 0.666992 23 2z" />
    <glyph glyph-name="asciicircum" unicode="^" 
d="M131 754c-14.667 -10 -47.668 -26.333 -99.001 -49l-10 19l106 85l2 -1l1 1l2 -3l104 -82l-10 -19c-14 4.66699 -30.667 12.667 -50 24c-21.333 12.667 -36.666 21 -45.999 25z" />
    <glyph glyph-name="underscore" unicode="_" horiz-adv-x="377" 
d="M-1 -50h378v-30h-378v30z" />
    <glyph glyph-name="grave" unicode="`" horiz-adv-x="359" 
d="M232 484l13 20l-113 79c-22.667 -34.667 -33 -56 -31 -64c23.333 -4 67 -15.667 131 -35z" />
    <glyph glyph-name="a" unicode="a" horiz-adv-x="369" 
d="M360 102c-47.333 -33.333 -75.001 -72.335 -83.001 -117.002c-15.333 2 -29.333 12.667 -42 32s-18.334 37 -17.001 53c-10.667 -1.33301 -27.667 -13.666 -51 -36.999s-38.666 -41.333 -45.999 -54c-36.667 41.333 -62.667 62 -78 62
c-7.33301 0 -18.666 -2.66699 -33.999 -8v7c0 4 5.33301 11 16 21s16.334 16 17.001 18s1 14.333 1 37v45v25c-0.666992 10 -1 16.333 -1 19c-10.667 22 -23 37 -37 45c14 1.33301 26.667 3 38 5c27.333 6 46.666 13.333 57.999 22c-16 6 -29.833 18 -41.5 36
s-17.5 35.333 -17.5 52c0 26.667 8.33301 50 25 70c10 11.333 28.667 27 56 47s46.333 36.667 57 50c29.333 -48.667 72 -73 128 -73l3 -6c-11.333 -16 -17 -32.667 -17 -50v-274l23 -31c7.33301 2.66699 21 7.33398 41 14.001zM62.999 372.998
c0 -26 8.16699 -46.5 24.5 -61.5s37.833 -22.5 64.5 -22.5c10.667 0 22.5 5.83301 35.5 17.5s20.5 23.167 22.5 34.5c0.666992 2 1 10.333 1 25c0 54 -24.667 81 -74 81c-21.333 0 -39 -6.83301 -53 -20.5s-21 -31.5 -21 -53.5zM211.999 284.998
c-6.66699 -1.33301 -17.334 -5.33203 -32.001 -11.999c-7.33301 -4.66699 -22.666 -7 -45.999 -7c-8.66699 0 -13 -17.667 -13 -53v-30c0 -2.66699 0.333008 -8.33398 1 -17.001v-24v-42c26 -17.333 42.667 -26 50 -26c9.33301 0 23 12 41 36z" />
    <glyph glyph-name="b" unicode="b" horiz-adv-x="363" 
d="M318 111c-74 -42 -134.333 -85.002 -181 -129.002c-44.667 54.667 -86 86 -124 94c18 22.667 27 46 27 70l2 411c0 56 -13.667 98.667 -41 128c4.66699 2.66699 9 4 13 4c18 0 37 -20.333 57 -61c2.66699 2 14.334 28.667 35.001 80c14 36 32.667 54 56 54
c15.333 0 26 -6 32 -18c1.33301 -10.667 -3.33398 -16 -14.001 -16c-7.33301 0 -16 3 -26 9c-23.333 -15.333 -35 -51.666 -35 -108.999v-171c26 4 59.333 28.667 100 74c20 -26.667 53 -56.667 99 -90c-15.333 -18 -23 -39.667 -23 -65v-207
c0 -15.333 7.66699 -34.666 23 -57.999zM218 402.998l-56 45l-43 -23v-298c0 -13.333 23.667 -35.333 71 -66l27 21z" />
    <glyph glyph-name="c" unicode="c" horiz-adv-x="278" 
d="M244 490c-46.667 -52.667 -69.999 -97.334 -69.999 -134.001c0 -4 1 -6.66699 3 -8c8 8 14.667 12 20 12c10.667 0 16 -7.33301 16 -22c0 -17.333 -8.33301 -26 -25 -26c-22.667 0 -34 14.333 -34 43c0 4.66699 2.33301 14 7 28s7 22.333 7 25
c0 12.667 -7.33301 23.667 -22 33l-36 23l-10 -5c-0.666992 -72.667 -0.666992 -182 0 -328c40.667 -40.667 65.667 -61 75 -61c3.33301 0 9.66602 5.83301 18.999 17.5s14 19.5 14 23.5c0 0.666992 -0.666992 3.5 -2 8.5s-1.66602 8.16699 -0.999023 9.5
c1.33301 1.33301 6 2 14 2c7.33301 0 11 -4 11 -12c0 -24.667 -37 -66.334 -111 -125.001c-24.667 32.667 -63 64 -115 94c14.667 28.667 22 51.334 22 68.001l-1 241c-2.66699 9.33301 -4.33398 17.333 -5.00098 24c-3.33301 12 -9.33301 21.667 -18 29
c26 10 55.333 24 88 42c12 6.66699 30.333 23.334 55 50.001c30.667 -39.333 54 -59 70 -59l24 12z" />
    <glyph glyph-name="d" unicode="d" horiz-adv-x="343" 
d="M144 -7c-28 25.333 -72.666 50.333 -133.999 75c1.33301 12.667 7.33301 27 18 43v274l-20 39c38.667 12 67.667 23 87 33c22 10.667 47.667 28 77 52c-28 28.667 -61.667 75.334 -101 140.001l60 46c59.333 -94.667 118 -173.334 176 -236.001
c-14.667 -8 -22 -23.333 -22 -46v-262c0 -19.333 7.66699 -33 23 -41c-74.667 -48 -129.334 -87 -164.001 -117zM207.001 458c-12.667 23.333 -22 35 -28 35l-2 -1c-16 -12.667 -39 -27.667 -69 -45l-1 -345l79 -49l21 15v390z" />
    <glyph glyph-name="e" unicode="e" horiz-adv-x="296" 
d="M275 468l-6.00195 -10.002c-34.667 -18.667 -65.334 -54.667 -92.001 -108c-24.667 -50 -37 -96.667 -37 -140c0 -30.667 8.33301 -45.334 25 -44.001l8 3c-4.66699 4 -7 9 -7 15c0 8.66699 6 16.334 18 23.001c8.66699 -1.33301 16.334 -9.33301 23.001 -24
c-8 -24 -22.667 -36 -44 -36c-27.333 0 -41 21.667 -41 65c0 30.667 18.333 89.334 55 176.001c-12.667 14.667 -28.667 41.667 -48 81c-4.66699 -3.33301 -13.667 -8.66602 -27 -15.999l-1 -354c12.667 -9.33301 38 -24.333 76 -45c30 14.667 43.667 34.334 41 59.001l9 4
c8.66699 -0.666992 13 -6.66699 13 -18c0 -14.667 -13.333 -36 -40 -64c-24 -24.667 -44 -41.334 -60 -50.001l-137 78c18.667 14 28 32.333 28 55l1 287c0 26 -8.33301 47.667 -25 65c44.667 0.666992 76.834 5.5 96.501 14.5s43.834 29.833 72.501 62.5
c4 -3.33301 12 -20 24 -50c12 -26.667 22 -40 30 -40c-2 0 8 5.33301 30 16h9z" />
    <glyph glyph-name="f" unicode="f" horiz-adv-x="227" 
d="M267 754c0 -44.667 -12.3359 -77 -37.0029 -97c-16.667 -14 -33.667 -21 -51 -21c-23.333 0 -43.666 12 -60.999 36c-0.666992 -2 -2.16699 -3.66699 -4.5 -5s-3.5 -2.33301 -3.5 -3v-139h66c2.66699 0 7 2.66699 13 8s9.66699 8 11 8l6 -2c3.33301 -2 5 -4.66699 5 -8
c0 13.333 -5.83301 7 -17.5 -19s-17.5 -45 -17.5 -57c0 -3.33301 4.66699 -12.333 14 -27c0 -6 -4.33301 -9 -13 -9c-13.333 0 -21 14.667 -23 44h-43v-371c26 -25.333 43.333 -38 52 -38c0.666992 0 4.83398 3.33301 12.501 10s12.167 10 13.5 10c4 0 7 -4.33301 9 -13
c-2.66699 -5.33301 -15.667 -19.166 -39 -41.499s-37 -33.5 -41 -33.5c-11.333 0 -44 23 -98 69c8 12.667 12 22.667 12 30v523c0 25.333 -4 42 -12 50v6h27c20.667 0 42 10.5 64 31.5s35.667 41.833 41 62.5h9c3.33301 -12 11.333 -23 24 -33s24.334 -15 35.001 -15
c8.66699 0 16.5 4 23.5 12s10.5 16.667 10.5 26c0 2 -3.16699 5.66699 -9.5 11s-9.5 8.66602 -9.5 9.99902c0 10 4.33301 15 13 15c12.667 0 19 -10 19 -30z" />
    <glyph glyph-name="g" unicode="g" horiz-adv-x="330" 
d="M329 -37c0 -38 -8.33301 -67.333 -25 -88c-8.66699 -10.667 -28.667 -26 -60 -46c-28.667 -18 -50.334 -35.667 -65.001 -53c-6 0 -6.66699 -1 -2 -3l-3 3c-7.33301 73.333 -35 110 -83 110c-24 0 -39 -5.66699 -45 -17c-3.33301 -6.66699 -5 -10.667 -5 -12
c0 -8 6.16699 -13.167 18.5 -15.5s18.5 -7.5 18.5 -15.5c0 -4 -2.66699 -9.33301 -8 -16s-10.333 -10 -15 -10c-9.33301 0 -17.166 5.83301 -23.499 17.5s-9.5 22.5 -9.5 32.5c0 46 30.667 71.667 92 77c24.667 2.66699 49 -3.66602 73 -18.999
c26.667 -18 40 -38.667 40 -62l8 2c10 8 20.333 20.667 31 38s16 31 16 41c0 19.333 -9.33301 37 -28 53c-26 22.667 -40.667 37.334 -44 44.001c-3.33301 11.333 -7 21.666 -11 30.999l-69 -59l-116 69c2.66699 5.33301 5.66699 12.833 9 22.5
s5.66602 16.834 6.99902 21.501c2 8 3 23 3 45v228c0 17.333 -7.33301 37.666 -22 60.999c8 0.666992 23.333 3.66699 46 9c34.667 7.33301 73.334 35.666 116.001 84.999c28.667 -26.667 48.334 -43.667 59.001 -51c19.333 -8.66699 41.666 -21.334 66.999 -38.001
c-14 -14 -21 -31.667 -21 -53v-263c0 -19.333 8.5 -47.666 25.5 -84.999s25.5 -65.333 25.5 -84zM197 410c-34.667 34.667 -57 52 -67 52c-4.66699 0 -10 -3.33301 -16 -10l2 -350c27.333 -23.333 47.333 -35 60 -35c6 0 11.167 3.83301 15.5 11.5s6.5 15.5 6.5 23.5z" />
    <glyph glyph-name="h" unicode="h" horiz-adv-x="398" 
d="M400 73c-46.667 -53.333 -73.667 -79.998 -81 -79.998c-13.333 0 -31.166 9.5 -53.499 28.5s-33.5 34.833 -33.5 47.5v338c-22.667 26.667 -38.334 40 -47.001 40c-4 -2.66699 -23.333 -12.667 -58 -30v-156v-92c-1.33301 -34.667 -2 -56.667 -2 -66
c0 -14.667 10.333 -30 31 -46c-12.667 -4 -26.167 -13.333 -40.5 -28s-24.166 -28.667 -29.499 -42c-14.667 30 -39 52.667 -73 68c18 13.333 27 30.666 27 51.999v419c0 32 -3 59.333 -9 82c-1.33301 6.66699 -10.333 32.667 -27 78
c9.33301 -1.33301 18.666 -8.66602 27.999 -21.999c0.666992 -1.33301 7 -8 19 -20s24 -37.333 36 -76c4.66699 44 18.667 90.667 42 140c29.333 62.667 62 94 98 94c4.66699 0 10.334 -2.5 17.001 -7.5s10 -9.83301 10 -14.5c0 -16 -6.66699 -24 -20 -24
c-2 0 -6.5 2.5 -13.5 7.5s-11.167 7.5 -12.5 7.5c-18.667 0 -35.334 -22 -50.001 -66c-24 -72.667 -36 -154 -36 -244c0 -6.66699 0.666992 -13.667 2 -21c26 0 61.333 32.333 106 97c6 -6.66699 16 -19.334 30 -38.001c17.333 -12 43 -31 77 -57
c-10.667 -10 -17 -18 -19 -24c-0.666992 -2 -1 -12 -1 -30v-277c0 -9.33301 4.5 -18.833 13.5 -28.5s18.5 -14.5 28.5 -14.5c11.333 0 22.333 5.33301 33 16c5.33301 -4.66699 8 -8.33398 8 -11.001z" />
    <glyph glyph-name="i" unicode="i" horiz-adv-x="232" 
d="M194 689c0 -21.333 -12.665 -41.333 -37.998 -60s-49.333 -28 -72 -28c-20 0 -33.667 3 -41 9c-0.666992 1.33301 -3.33398 5 -8.00098 11s-8.33398 9 -11.001 9c-3.33301 0 -11 -3.66699 -23 -11l-4 9c50.667 44 81 77.333 91 100l4 -1
c1.33301 -4 2.33301 -9.66699 3 -17c0 -40 14 -60 42 -60c12 0 21.667 3.66699 29 11l3 7c-4 8.66699 -8.66699 16.667 -14 24c0 14.667 6.33301 22 19 22c13.333 0 20 -8.33301 20 -25zM213.002 68c-10 -9.33301 -36.6689 -36.3311 -80.002 -80.998
c-16.667 1.33301 -31.667 12.166 -45 32.499s-20 39.166 -20 56.499v334c0 26.667 -10.333 40 -31 40c-4.66699 0 -7 -3 -7 -9c0 -1.33301 0.666992 -4.5 2 -9.5s2 -8.5 2 -10.5c0 -4 -3 -6 -9 -6c-10.667 0 -16 6 -16 18c0 14 29 46.667 87 98l78 -81
c-16 -12 -24 -22.333 -24 -31c0 -153.333 -1.66699 -262.333 -5 -327c10.667 -18.667 21.334 -28 32.001 -28c1.33301 0 6.5 3.33301 15.5 10s14.167 10 15.5 10c0.666992 -2 2.33398 -7.33301 5.00098 -16z" />
    <glyph glyph-name="j" unicode="j" horiz-adv-x="249" 
d="M155 -102c0 -9.33301 -4.49805 -20.833 -13.498 -34.5s-17.5 -21.834 -25.5 -24.501c-22.667 56 -60.334 84 -113.001 84c-22.667 0 -41.834 -7.66699 -57.501 -23s-23.5 -34.333 -23.5 -57c0 -18.667 7.33301 -28 22 -28c11.333 0 17 7.66699 17 23c0 6 -2 12 -6 18
s-6 9.33301 -6 10c0 6 9 16.333 27 31c51.333 -25.333 77 -64.333 77 -117c50.667 28 84.667 50.667 102 68c30.667 30 46 67 46 111c0 12 -8.33301 36.667 -25 74c-5.33301 12 -9 42 -11 90c-0.666992 26.667 -0.666992 70.334 0 131.001l1 84v81c0 8.66699 8 19 24 31
l-78 81c-58 -51.333 -87 -84 -87 -98c0 -12 5.66699 -18 17 -18c6 0 9 2 9 6c0 2 -0.833008 5.5 -2.5 10.5s-2.5 8.16699 -2.5 9.5c0 6 2.66699 9 8 9c20.667 0 31 -13.333 31 -40l-1 -351c0 -36.667 11.833 -70 35.5 -100s35.5 -50.333 35.5 -61zM205.002 689
c0 -21.333 -12.667 -41.333 -38 -60s-49.333 -28 -72 -28c-20 0 -33.667 3 -41 9c-0.666992 1.33301 -3.5 5 -8.5 11s-8.5 9 -10.5 9c-3.33301 0 -11 -3.66699 -23 -11l-4 9c50.667 44 81 77.333 91 100l4 -1c1.33301 -4 2.33301 -9.66699 3 -17c0 -40 14 -60 42 -60
c12 0 21.667 3.66699 29 11l3 7c-4 8.66699 -8.66699 16.667 -14 24c0 14.667 6.33301 22 19 22c13.333 0 20 -8.33301 20 -25z" />
    <glyph glyph-name="k" unicode="k" horiz-adv-x="414" 
d="M112 452c44 21.333 71.667 35.666 83 42.999c24.667 16 46.667 38.333 66 67l5 1c0 -3.33301 0.333008 -11.833 1 -25.5s1 -22.834 1 -27.501c0 -14.667 6.33301 -39.667 19 -75c13.333 -38.667 25 -60 35 -64c-19.333 -16.667 -54.666 -41.667 -105.999 -75
c24 -4 44.333 -14.5 61 -31.5s26 -37.167 28 -60.5c2.66699 -46 5.33398 -77.667 8.00098 -95c8.66699 -49.333 21 -74 37 -74c22 0 35 11.667 39 35c5.33301 0 10.333 -3.66699 15 -11c-1.33301 -15.333 -13.5 -31 -36.5 -47s-42.5 -24 -58.5 -24
c-37.333 0 -61.333 23.667 -72 71c-2 7.33301 -5.66699 52.333 -11 135c-3.33301 47.333 -14.333 71 -33 71c-24 0 -36 -13 -36 -39c13.333 -10 20 -18.333 20 -25c0 -14.667 -8.66699 -22 -26 -22c-11.333 0 -17 9.33301 -17 28c0 34 10 60.333 30 79
c15.333 10.667 38.333 28 69 52c-10 38.667 -23 81.334 -39 128.001c-6.66699 0 -34.334 -12 -83.001 -36l-1 -296c0 -19.333 2 -33.666 6 -42.999c4 -10.667 13.333 -21.334 28 -32.001c-32 -22 -57 -48 -75 -78c-8.66699 24.667 -31.334 49.334 -68.001 74.001
c20.667 16 31 44.333 31 85v333c0 60.667 -0.666992 96.667 -2 108c-2.66699 18 -12.667 53 -30 105c13.333 -0.666992 29 -17 47 -49c14 -24 24 -46.667 30 -68c4.66699 42 19.667 89 45 141c30.667 61.333 64 92 100 92c5.33301 0 11.333 -2.5 18 -7.5
s10 -9.83301 10 -14.5c0 -16 -6.66699 -24 -20 -24c-2 0 -6.5 2.5 -13.5 7.5s-11.167 7.5 -12.5 7.5c-13.333 0 -27.666 -15 -42.999 -45c-12.667 -24 -21.334 -45.167 -26.001 -63.5s-11 -45.833 -19 -82.5c-2.66699 -15.333 -4 -31.333 -4 -48v-80z" />
    <glyph glyph-name="l" unicode="l" horiz-adv-x="190" 
d="M163 63c-35.333 -25.333 -60 -51.334 -74 -78.001c-9.33301 24.667 -32.333 49 -69 73c20 16 30.333 43.333 31 82c0.666992 31.333 1 161.333 1 390c0 28 -6.33301 56.667 -19 86l-37 79c48 -28 78 -62.667 90 -104c5.33301 52.667 27.666 108.334 66.999 167.001
c21.333 31.333 44.666 47 69.999 47c5.33301 0 11.333 -2.5 18 -7.5s10 -9.83301 10 -14.5c0 -16 -6.66699 -24 -20 -24c-1.33301 0 -5.66602 2.5 -12.999 7.5s-11.666 7.5 -12.999 7.5c-12 0 -25.667 -16 -41 -48c-12 -24.667 -19.667 -46.334 -23 -65.001
c-8 -43.333 -12 -90.333 -12 -141v-387c4 -35.333 15.333 -58.666 34 -69.999z" />
    <glyph glyph-name="m" unicode="m" horiz-adv-x="602" 
d="M593 94c0 -4 -24.3291 -36.333 -72.9961 -97h-23c-18.667 0 -34.667 12 -48 36c-11.333 20 -17 40.667 -17 62l-1 312l-34 52l-58 -50v-272c0 -20 2 -34 6 -42l24 -30c-26.667 -14 -49.667 -38.667 -69 -74c-22 35.333 -44.333 60 -67 74c18 25.333 27 48.333 27 69v272
l-51 58c-3.33301 -0.666992 -23.666 -17 -60.999 -49l2 -284c0 -22.667 9.66699 -44.667 29 -66c-30.667 -18 -55.334 -42 -74.001 -72c-19.333 38.667 -41.666 62.667 -66.999 72c19.333 19.333 29 37 29 53c0 8 0.333008 27 1 57v80v137c0 12 -0.833008 20.833 -2.5 26.5
s-7.16699 12.834 -16.5 21.501s-16 13 -20 13c-2 0 -5.83301 -2.83301 -11.5 -8.5s-9.83398 -8.5 -12.501 -8.5c-6 0 -9 4 -9 12c0 12 28 40 84 84c26.667 -19.333 49 -47 67 -83c17.333 12.667 52.333 42.667 105 90c5.33301 -16 32 -50.333 80 -103
c33.333 23.333 68.666 57.333 105.999 102c43.333 -58 74.666 -93.333 93.999 -106c-8.66699 -8.66699 -16.334 -19.334 -23.001 -32.001v-263c0 -14 5 -27.167 15 -39.5s22 -19.166 36 -20.499h-7c5.33301 0 10.666 3.66699 15.999 11c2.66699 4 6.66699 9.66699 12 17
c8 1.33301 12 -2.33398 12 -11.001z" />
    <glyph glyph-name="n" unicode="n" horiz-adv-x="422" 
d="M251 538c21.333 -22 56.333 -54.334 105 -97.001c-16 -12.667 -23.667 -24.334 -23 -35.001c1.33301 -26.667 1.33301 -117.667 0 -273c-3.33301 -21.333 8 -37.333 34 -48c2 -0.666992 5.33301 -0.666992 10 0c8 0 17.667 7.33301 29 22l12 -11l-74 -96l-15 3
c-20 4.66699 -37 16.334 -51 35.001s-21 38.334 -21 59.001v316l-47 46l-64 -49c-0.666992 -8.66699 -1.33398 -43 -2.00098 -103c-0.666992 -73.333 -0.333984 -128.333 0.999023 -165c0.666992 -19.333 1.33398 -30 2.00098 -32c4 -12 13.667 -26 29 -42
c-28 -16.667 -51.667 -40.334 -71 -71.001c-19.333 37.333 -41.666 61 -66.999 71c16.667 14.667 26 26.334 28 35.001c0.666992 2 1 15.333 1 40v213c0 34 -1.66699 56 -5 66c-2 5.33301 -7 11.833 -15 19.5s-14 11.5 -18 11.5c-2 0 -6 -2.83301 -12 -8.5
s-10 -8.5 -12 -8.5c-4 0 -7 4 -9 12l80 87c13.333 -8.66699 27.333 -21 42 -37c19.333 -22 29 -42.667 29 -62c32 22 66.667 56 104 102z" />
    <glyph glyph-name="o" unicode="o" horiz-adv-x="362" 
d="M321 111c-72.667 -40 -129.331 -80.333 -169.998 -121c-36.667 32 -84.667 60 -144 84c2 2 6.16699 11.833 12.5 29.5s8.5 26.5 6.5 26.5l-1 -1v265c0 10.667 -0.666992 17.667 -2 21l-16 26c37.333 12 68.333 25.667 93 41c15.333 9.33301 41.666 29 78.999 59
c11.333 -16 58.666 -49.333 141.999 -100c-15.333 -18 -23 -36.667 -23 -56v-228c0 -6.66699 7.66699 -22 23 -46zM221.003 409l-84 64l-30 -19v-335c30 -22.667 59.667 -41.667 89 -57l25 22v325z" />
    <glyph glyph-name="p" unicode="p" horiz-adv-x="431" 
d="M372 102c-5.33301 2.66699 -11.3359 4 -18.0029 4c-22 0 -42.667 -10.833 -62 -32.5s-29.666 -43.5 -30.999 -65.5l-3 -6c-18 32 -46.667 52 -86 60v-59c0 -96.667 4.66699 -160.667 14 -192c0 -1.33301 3.66699 -8.66602 11 -21.999s11 -22 11 -26
c0 -0.666992 -0.333008 -1 -1 -1c-19.333 0 -36.666 16.667 -51.999 50c-10.667 23.333 -18.334 48.333 -23.001 75c-1.33301 -30 -11.666 -68.667 -30.999 -116c-22.667 -54 -45.667 -81 -69 -81c-8 0 -14.333 1 -19 3c44 30.667 66 73 66 127c0 6 0.333008 23 1 51v72v124
h-13c-13.333 0 -22 0.333008 -26 1c-4 0 -2.66699 0.333008 4 1c-6 -1.33301 -10 -6.66602 -12 -15.999c14.667 -8 22 -18 22 -30c0 -12.667 -8 -19 -24 -19c-15.333 0 -23 9.33301 -23 28c0 45.333 24.667 71 74 77c0 8.66699 0.666992 29.667 2 63v86v150
c-20 35.333 -34 53 -42 53c-6.66699 -2.66699 -16.667 -7 -30 -13c-3.33301 1.33301 -5 5.66602 -5 12.999l48 36c22.667 18 36.334 28 41.001 30c17.333 0 43 -26.667 77 -80c32.667 26 69.334 53.667 110.001 83c15.333 -26.667 47.666 -57.334 96.999 -92.001
c-12.667 -16 -19 -32.333 -19 -49v-247c0 -3.33301 1.83301 -10 5.5 -20s5.5 -16.667 5.5 -20zM282.997 398l-53.999 54c-22 -14 -40.667 -26.667 -56 -38l2 -296c29.333 0 59.666 -13.333 90.999 -40l17 16v304z" />
    <glyph glyph-name="q" unicode="q" horiz-adv-x="348" 
d="M326 -253c-27.333 14.667 -45.001 29.668 -53.001 45.001l-25 62c-14.667 -25.333 -25 -41.333 -31 -48c-8 -9.33301 -23 -20.333 -45 -33c0 3.33301 3.5 11 10.5 23s10.833 20 11.5 24c10.667 40 16 70.333 16 91l-1 153l-77 -73c-27.333 14 -48.666 25.667 -63.999 35
c-26.667 17.333 -46.667 31 -60 41c16 14 24 30.333 24 49v278c0 14 -9 31.333 -27 52c36 3.33301 77.333 20.666 124 51.999l70 49c21.333 -32.667 59 -58 113 -76c-8.66699 -8.66699 -16 -26 -22 -52l1 -519c0 -54.667 11.667 -105.667 35 -153zM209.999 91.001v334
l-62 54l-38 -25v-357c34 -29.333 53.333 -44 58 -44c6.66699 0 20.667 12.667 42 38z" />
    <glyph glyph-name="r" unicode="r" horiz-adv-x="329" 
d="M311 479l-50.998 -61c-20.667 -24 -31 -47.333 -31 -70c0 -10 2.66699 -15 8 -15c0.666992 0 2.66699 1 6 3s5.66602 3 6.99902 3c12.667 0 19 -6.33301 19 -19c0 -14.667 -8 -22 -24 -22c-12 0 -22.5 5.83301 -31.5 17.5s-13.5 24.5 -13.5 38.5
c0 18.667 7 35.334 21 50.001c-8 9.33301 -22.667 25.333 -44 48c-21.333 -13.333 -32 -25 -32 -35v-310c28 -12 47 -29 57 -51l-68 -73l-45 52c-18.667 19.333 -37.334 32.666 -56.001 39.999c19.333 13.333 29 30 29 50v286c0 32.667 -10 49 -30 49
c-6.66699 0 -15.667 -5.66699 -27 -17l-7 15l91 80c30 -9.33301 51 -37 63 -83l81 84c10 -12 26.667 -33.333 50 -64c4.66699 2.66699 10.667 7.66699 18 15z" />
    <glyph glyph-name="s" unicode="s" horiz-adv-x="389" 
d="M432 607c0 -15.333 -5.66797 -23.001 -17.001 -23.001c-16 0 -24 10 -24 30c-2.66699 3.33301 -5.33398 5 -8.00098 5c-11.333 0 -20.666 -5.16699 -27.999 -15.5s-11 -21.833 -11 -34.5c0 -4.66699 -0.333008 -14 -1 -28s-1 -23 -1 -27c0 -18 -3.66699 -31.667 -11 -41
c-4.66699 -16 -18.167 -38.5 -40.5 -67.5s-41.5 -50.5 -57.5 -64.5c36 -5.33301 60.667 -12.333 74 -21c20.667 -13.333 31 -36.333 31 -69v-68c0 -42 -1 -66 -3 -72c-3.33301 -12.667 -19 -29 -47 -49c-10.667 -5.33301 -26 -15.333 -46 -30
c-19.333 -19.333 -36.333 -35.666 -51 -48.999l-143 122c-10.667 -20.667 -18 -38 -22 -52c-1.33301 -8 -4 -21 -8 -39c-2 -6 -3 -10.667 -3 -14c0 -26.667 10.333 -45.667 31 -57c10.667 6.66699 18 10 22 10s8.66699 -2.66699 14 -8s8 -9.33301 8 -12
c0 -7.33301 -4.16699 -14.166 -12.5 -20.499s-16.5 -9.5 -24.5 -9.5c-10.667 0 -22.167 7.5 -34.5 22.5s-19.166 28.167 -20.499 39.5s-2 21 -2 29c0 50 14.667 96.667 44 140l50 74c25.333 36 43 58 53 66c-60 14.667 -90 43 -90 85c0 33.333 20.333 68 61 104
c13.333 12 46 39.667 98 83l40 -29l55 -41c8.66699 14 13 27.333 13 40v43c0 19.333 6.5 37.666 19.5 54.999s28.167 26 45.5 26c10 0 20.333 -3.5 31 -10.5s16 -14.5 16 -22.5zM271.999 412.999l-98.999 66c-12.667 0 -24.334 -9.16699 -35.001 -27.5
s-16 -34.166 -16 -47.499c0 -22 10.333 -37.333 31 -46c10 -4.66699 29.667 -9.33398 59 -14.001zM266 72.999l0.00195312 156c0 16 -12 27.333 -36 34c-6 1.33301 -15.333 3 -28 5s-22.334 3.33301 -29.001 4l-48 -52c-22.667 -25.333 -34 -44 -34 -56l142 -117
c3.33301 2 9.16602 6.33301 17.499 13s13.5 11 15.5 13z" />
    <glyph glyph-name="t" unicode="t" horiz-adv-x="304" 
d="M269 521c-0.666992 -2.66699 -2.66602 -5.00098 -5.99902 -7.00098l-10 -7c-10 -10 -15 -26.333 -15 -49c0 -0.666992 2.16699 -2.83398 6.5 -6.50098s6.5 -7.5 6.5 -11.5c0 -6.66699 -4 -10 -12 -10c-14 0 -21 10.333 -21 31c0 6 0.666992 13 2 21h-59v-383l52 -44
l31 31l11 -13l-91 -84c-14 9.33301 -43 35.333 -87 78l-26 -27l-16 11l46 48l-1 381l-81 -1c6 13.333 12.333 28.333 19 45l60 1c0 36 -9 78 -27 126c5.33301 -1.33301 14.166 -8.66602 26.499 -21.999s20 -23.166 23 -29.499l15.5 -33.5c4 14 14.333 38.333 31 73
c19.333 28.667 32 46 38 52c13.333 17.333 29.333 30 48 38c-49.333 -77.333 -74 -143.333 -74 -198c2 -6 3 -8 3 -6h78c2 0 7.33301 2 16 6h9c2.66699 0 4 -3.33301 4 -10z" />
    <glyph glyph-name="u" unicode="u" horiz-adv-x="397" 
d="M384 87l-73.998 -89.001c-15.333 9.33301 -30.166 25 -44.499 47s-21.5 41.333 -21.5 58c-28.667 -21.333 -65 -57 -109 -107c-24.667 27.333 -59.334 59 -104.001 95c15.333 14 23 26.333 23 37c0.666992 28 1 119.333 1 274c0 20.667 -6.33301 37.334 -19 50.001
l-32 -19l-6 19c23.333 16.667 37.666 27.334 42.999 32.001c17.333 16 33 32 47 48c24 -18.667 38.667 -39.667 44 -63c0.666992 -4 1.66699 -16 3 -36c30 21.333 68.333 55.333 115 102l1 1c2.66699 -5.33301 12.334 -18.833 29.001 -40.5s26.334 -32.5 29.001 -32.5
c1.33301 2 9.66602 9.33301 24.999 22c6.66699 0 10 -4 10 -12c0 -1.33301 -4.33301 -6 -13 -14s-13 -13 -13 -15c0.666992 -46.667 0.666992 -151.667 0 -315c3.33301 -22.667 14.333 -39 33 -49c1.33301 -0.666992 5.16602 2.16602 11.499 8.49902s10.166 9.5 11.499 9.5
c4 0 7.33301 -3.66699 10 -11zM241.002 413.999l-35 51l-71 -58v-291l45 -49l61 56c1.33301 6.66699 2 31 2 73c0 48 -0.666992 120.667 -2 218z" />
    <glyph glyph-name="v" unicode="v" horiz-adv-x="355" 
d="M305 151c-0.666992 -20 -6.66895 -36.335 -18.002 -49.002c-2 -1.33301 -5.16699 -3.66602 -9.5 -6.99902l-10.5 -8c-17.333 -9.33301 -44 -27.333 -80 -54c-2.66699 -5.33301 -10.667 -17.333 -24 -36l-8 -11c-2 -3.33301 -10.667 0.333984 -26 11.001
c-12.667 8 -22 15 -28 21c-8.66699 8.66699 -19.167 24 -31.5 46s-20.166 39.333 -23.499 52l-1 236c0 66.667 -3.66699 109.334 -11 128.001c-8.66699 10.667 -19.334 31.667 -32.001 63c0 0.666992 -0.5 7 -1.5 19s-1.5 18.667 -1.5 20c0 12.667 5 27.5 15 44.5
s20.667 25.5 32 25.5c4.66699 0 7 -2 7 -6c-10.667 -12.667 -16 -24.667 -16 -36c0 -20.667 12.333 -38.334 37 -53.001s41 -33 49 -55c2.66699 -6 6 -22 10 -48l99 79c48.667 -40.667 73.334 -72 74.001 -94c2.66699 -65.333 2.33398 -161.333 -0.999023 -288z
M220.998 418.998c-5.33301 18.667 -17.668 33.334 -37.001 44.001l-51 -35c-0.666992 -16 -0.666992 -123 0 -321c19.333 -32.667 35 -49 47 -49c12.667 0 23.334 11.333 32.001 34c6.66699 17.333 10 31.666 10 42.999v142v83c-0.666992 31.333 -1 51 -1 59z" />
    <glyph glyph-name="w" unicode="w" horiz-adv-x="563" 
d="M512 107l-96 -72c-4 -3.33301 -9.16699 -8.5 -15.5 -15.5s-11.166 -12.167 -14.499 -15.5c-12.667 -12 -24.334 -19 -35.001 -21c-38 23.333 -72.333 54 -103 92l-90 -86c-44.667 38 -75.334 69.667 -92.001 95v354c0 2.66699 -10.167 15.667 -30.5 39
s-30.5 45.333 -30.5 66c0 21.333 3.16699 37 9.5 47s16.166 23.667 29.499 41c-0.666992 -0.666992 2.33301 -1.33398 9 -2.00098c-4 -8 -5 -15.333 -3 -22c2 -11.333 3 -18 3 -20c0 -17.333 13.667 -36.666 41 -57.999c31.333 -24.667 48.333 -40.667 51 -48
c0 -10 2.33301 -23.333 7 -40c21.333 13.333 52 44 92 92c14.667 -20 40.334 -50.667 77.001 -92c22.667 18 55.334 48.667 98.001 92c14.667 -18 43.667 -46 87 -84v-96c-21.333 -16.667 -46.333 -37.667 -75 -63c17.333 -11.333 45 -36.333 83 -75zM429 81v128.001
c-22 27.333 -37 41 -45 41c-0.666992 0 -4.66699 -2.66699 -12 -8s-13 -8 -17 -8c-3.33301 0 -5 3 -5 9c50 48 75 77 75 87c0 2.66699 0.333008 9.66699 1 21v29v48c-3.33301 2 -10.333 8.5 -21 19.5s-17.667 17.167 -21 18.5c-4.66699 -3.33301 -25 -20 -61 -50
c0.666992 -27.333 0.666992 -66 0 -116c-0.666992 -36 -1 -74.667 -1 -116c0 -24.667 0.333008 -48.334 1 -71.001c20.667 -29.333 42 -50.333 64 -63zM241 409.001c-19.333 32.667 -31 49 -35 49c-4.66699 0 -23 -15 -55 -45l1 -297c2 -16.667 18.667 -37 50 -61
c12 8.66699 25 23.667 39 45c1.33301 6.66699 2 35.667 2 87c0 52 -0.666992 126 -2 222z" />
    <glyph glyph-name="x" unicode="x" horiz-adv-x="365" 
d="M304 384l-98.999 -116h56c10.667 0 23.334 6.33301 38.001 19l10 -11c-2.66699 5.33301 -15.334 -12.667 -38.001 -54h-105v-130l51 -40c8 8 17.667 19 29 33c6.66699 0 10.334 -2.66699 11.001 -8c0 -2 -11.667 -17.5 -35 -46.5s-36.666 -44.167 -39.999 -45.5
c-10 -1.33301 -41.667 21 -95 67l-52 -52c-9.33301 -13.333 -18.333 -27 -27 -41c-4 -6 -7.66699 -18.667 -11 -38c21.333 -12.667 32 -23.667 32 -33c0 -8.66699 -4 -16.5 -12 -23.5s-15.667 -9.5 -23 -7.5c-18 5.33301 -27 16.666 -27 33.999
c0 14.667 4.66699 33.334 14 56.001c8 20.667 17.333 37.334 28 50.001c17.333 19.333 42.666 50.666 75.999 93.999c0.666992 0.666992 2 12 4 34v99h-46l-25 -7c-6 3.33301 -9 7 -9 11s8 18.667 24 44l56 -1v166c-20 22.667 -32.333 34 -37 34c-4 0 -15.333 -9 -34 -27
l-10 14c11.333 11.333 23.333 22.333 36 33c8.66699 7.33301 19.334 18.333 32.001 33c9.33301 10.667 15.666 16.667 18.999 18c18.667 -0.666992 35.667 -10.334 51 -29.001s24.666 -38.334 27.999 -59.001c20 4.66699 49 30.334 87 77.001l84 -83
c3.33301 -3.33301 -10.334 -24.666 -41.001 -63.999zM283.001 398c0 1.33301 -10.667 11.168 -32 29.501s-33.333 29.166 -36 32.499c-14.667 -12 -29.667 -23 -45 -33l-1 -27l1 -132h8l60 70c30 35.333 45 55.333 45 60z" />
    <glyph glyph-name="y" unicode="y" horiz-adv-x="393" 
d="M431 -145c0 -34 -14.667 -51 -44 -51c-18 0 -27 6.33301 -27 19c0 14 6.66699 21 20 21c7.33301 0 13.333 -5 18 -15h4c8.66699 10.667 11.334 19.334 8.00098 26.001c-8 18 -21.333 27 -40 27c-28.667 0 -56.334 -7.33301 -83.001 -22l-86 -51
c-31.333 -18.667 -63.333 -28 -96 -28c-61.333 0 -92 26.333 -92 79c0 19.333 10.667 41 32 65c17.333 20.667 36.333 37 57 49c-34 16.667 -51 63 -51 139v38c0 5.33301 0.333008 11.666 1 18.999v13v113v65c-0.666992 24.667 -1 40.334 -1 47.001c0 22.667 -6 40 -18 52
l-28 -21l-7 13c44 34.667 74 61.334 90 80.001c19.333 -14.667 31.833 -28.167 37.5 -40.5s8.83398 -31.833 9.50098 -58.5c30 21.333 68.333 55.333 115 102l1 1c32 -48.667 51.333 -73 58 -73c2 0 10.333 7.33301 25 22c6.66699 1.33301 10 -2.66699 10 -12
c0 -1.33301 -4.16699 -5.83301 -12.5 -13.5s-12.833 -13 -13.5 -16s-1 -53.167 -1 -150.5c0 -24 0.333008 -59.333 1 -106s1 -82 1 -106c0 -12.667 3.83301 -24.334 11.5 -35.001s17.167 -16 28.5 -16c3.33301 0 6 0.333008 8 1l-1 -16h-62c-34 0 -70.667 -6.33301 -110 -19
s-72.333 -29 -99 -49c-12.667 -8.66699 -25.667 -22.667 -39 -42c-15.333 -21.333 -23 -38 -23 -50c0 -8.66699 5 -18.334 15 -29.001s19.333 -16 28 -16c20 0 44.667 9 74 27c49.333 30.667 77.666 48 84.999 52c37.333 18 76.333 27 117 27
c21.333 0 39.833 -5.66699 55.5 -17s23.5 -26 23.5 -44zM243 118c0 21.333 -0.667969 120 -2.00098 296l-35 51l-71 -54v-332c0 -30.667 17 -52.667 51 -66c34 8 46.667 12 38 12c2 0 5.33301 3.83301 10 11.5s7.33398 11.5 8.00098 11.5c0.666992 10.667 1 34 1 70z" />
    <glyph glyph-name="z" unicode="z" horiz-adv-x="311" 
d="M260 173c0 -32 -12 -66.3301 -36 -102.997l-70 -104c-4.66699 -6 -22 -29.667 -52 -71c-14 -18.667 -21 -34.334 -21 -47.001c0 -4 1.33301 -7.66699 4 -11c8.66699 4.66699 15.667 8.66699 21 12c4 0 7.83301 -3.66699 11.5 -11s5.5 -12.666 5.5 -15.999
c0 -6.66699 -3.66699 -13 -11 -19s-14.666 -9 -21.999 -9c-20.667 0 -31 15.333 -31 46c0 35.333 13.667 73.666 41 114.999c12.667 18.667 27 47 43 85c17.333 40 27 69.333 29 88c2 26 -3 51.667 -15 77c-14.667 28.667 -34.334 43 -59.001 43
c-8.66699 0 -18 -2.66699 -28 -8l-6 16l109 96c-20.667 21.333 -49.334 60 -86.001 116c-6 1.33301 -17.833 -4.83398 -35.5 -18.501s-26.5 -23.167 -26.5 -28.5c0 -0.666992 1.66699 -3.66699 5 -9s5 -9.33301 5 -12c0 -6 -2.66699 -12.333 -8 -19s-11 -10 -17 -10
c-14 0 -21 9.66699 -21 29s21.333 43.333 64 72l94 64c2.66699 -3.33301 6.33398 -12 11.001 -26c5.33301 -10.667 11.333 -24 18 -40c6 -10.667 18.833 -27.334 38.5 -50.001s29.5 -34.667 29.5 -36c-6.66699 -6 -39 -33.333 -97 -82c38 -4 67 -20.333 87 -49
c17.333 -23.333 26 -50 26 -80z" />
    <glyph glyph-name="braceleft" unicode="{" horiz-adv-x="334" 
d="M183 661c-31.333 -92 -46.999 -205.332 -46.999 -339.999c0 -137.333 15.667 -254 47 -350c52 2.66699 90.667 -23 116 -77c0 11.333 0.333008 26.666 1 45.999l-67 78c-16.667 106 -25 218.667 -25 338c0 108.667 8.33301 196.667 25 264l67 68l-2 36
c-10 -18.667 -25.667 -32.667 -47 -42c-10.667 -4.66699 -33.334 -11.667 -68.001 -21zM107.001 311.001c0 23.333 -5 43 -15 59s-22.333 24 -37 24s-27 -8 -37 -24s-15 -35.667 -15 -59s5 -43 15 -59s22.333 -24 37 -24s27 8 37 24s15 35.667 15 59z" />
    <glyph glyph-name="bar" unicode="|" horiz-adv-x="566" 
d="M236 696h91v-831h-91v831z" />
    <glyph glyph-name="braceright" unicode="}" horiz-adv-x="368" 
d="M119 661c31.333 -92 47 -205.667 47 -341c0 -138.667 -15.333 -255 -46 -349c-24.667 1.33301 -47.667 -5.33398 -69 -20.001s-37.333 -33.667 -48 -57v46l66 78c17.333 109.333 26 221.333 26 336c0 106.667 -8.66699 195.334 -26 266.001l-66 68l1 36
c10.667 -18.667 26.667 -32.667 48 -42c10 -4.66699 32.333 -11.667 67 -21zM195 311c0 23.333 5 43 15 59s22.333 24 37 24s27.167 -8.16699 37.5 -24.5s15.5 -35.833 15.5 -58.5s-5.16699 -42.167 -15.5 -58.5s-22.833 -24.5 -37.5 -24.5s-27 8 -37 24s-15 35.667 -15 59z
" />
    <glyph glyph-name="asciitilde" unicode="~" horiz-adv-x="402" 
d="M335 790c-20.667 -44 -47.668 -66 -81.001 -66c-14 0 -34 5.5 -60 16.5s-46 16.5 -60 16.5c-22.667 0 -41.667 -9.66699 -57 -29l-16 8c19.333 46 51.333 69 96 69c12 0 29.667 -5.16699 53 -15.5s41.333 -15.5 54 -15.5c18.667 0 38.334 8.66699 59.001 26z" />
    <glyph glyph-name="exclamdown" unicode="&#xa1;" horiz-adv-x="196" 
d="M148 436c-20 -12 -41.667 -34.999 -65 -68.999c-4.66699 7.33301 -12.667 18.333 -24 33s-25 26.667 -41 36c27.333 20 49 42.667 65 68c12 -20.667 33.667 -43.334 65 -68.001zM-2 -199.999c30.667 20.667 46.333 47.333 47 80c0.666992 58.667 0.666992 118 0 178
l28 252h24l29 -252v-107c0 -30.667 12 -59 36 -85c-12 0 -38.833 -12.5 -80.5 -37.5s-69.5 -37.833 -83.5 -38.5v10z" />
    <glyph glyph-name="cent" unicode="&#xa2;" 
d="M140 151v-93.999h-23v102l-112 67c16 13.333 24 23.666 24 30.999v161c0 44 -7.66699 80.667 -23 110c44.667 5.33301 81.667 17 111 35v109h23v-94c13.333 9.33301 27.333 22 42 38c14 -16 37.667 -44.667 71 -86c-9.33301 -6 -28 -26 -56 -60l-66 74l-21 -11v-262
c42 -30 65 -45 69 -45s20.333 17 49 51l18 -18z" />
    <glyph glyph-name="sterling" unicode="&#xa3;" horiz-adv-x="535" 
d="M283 233l-122.998 -0.000976562c-5.33301 -16.667 -13.333 -34 -24 -52l-42 -57c-16.667 -22.667 -27 -42.334 -31 -59.001l9 2c45.333 22 80.666 36.333 105.999 43c29.333 8 67.333 12 114 12c8.66699 0 22 -0.5 40 -1.5s31.667 -1.5 41 -1.5
c34 0 61.5 8.33301 82.5 25s34.167 25.334 39.5 26.001c-10.667 -24.667 -29 -54.334 -55 -89.001c-28.667 -38 -50.334 -70.667 -65.001 -98c-2 -2 -22.333 5.66699 -61 23c-40.667 10 -86 15 -136 15c-22.667 0 -52 -4 -88 -12c-39.333 -8.66699 -66.666 -18 -81.999 -28
c-2.66699 2 -4 6.33301 -4 13c0 30.667 9 63.334 27 98.001c7.33301 14.667 28.333 47 63 97c5.33301 18 8.66602 32.667 9.99902 44h-83v40h85c-3.33301 30 -13.666 59.333 -30.999 88c-18 24.667 -46 60.667 -84 108c6 6 17 20.333 33 43
c18.667 48.667 42 85.334 70 110.001c53.333 47.333 116.666 69 189.999 65c49.333 -2.66699 91.666 -18 126.999 -46c39.333 -30.667 59 -69.667 59 -117c0 -51.333 -14 -95 -42 -131c-30.667 -38.667 -71 -58 -121 -58l-2 2c-40.667 40.667 -75 84 -103 130
c9.33301 0.666992 24.833 -2.33301 46.5 -9s38.167 -10 49.5 -10c32.667 0 60.334 9.16699 83.001 27.5s34 42.5 34 72.5c0 35.333 -12.5 63 -37.5 83s-55.833 30 -92.5 30c-102 0 -153 -65.333 -153 -196c0 -16 6.83301 -42.167 20.5 -78.5s20.5 -64.833 20.5 -85.5
c0 -6.66699 -0.666992 -16 -2 -28h112v-40z" />
    <glyph glyph-name="currency" unicode="&#xa4;" horiz-adv-x="700" 
d="M2 412l97.002 0.000976562c0.666992 2 2 5.66699 4 11c26.667 74.667 61.667 134.334 105 179.001c53.333 55.333 114.666 83 183.999 83c44 0 83.333 -9 118 -27c28.667 -14.667 51.334 -31.334 68.001 -50.001c6 -6.66699 14.667 -17 26 -31l-62 -31
c-46.667 68 -97 102 -151 102c-62.667 0 -107.667 -25 -135 -75c-20.667 -38 -32.334 -91.667 -35.001 -161h176v-42h-177v-68h177v-42h-177c1.33301 -71.333 12.333 -125.333 33 -162c27.333 -49.333 73.666 -74 138.999 -74c42 0 83 16 123 48
c29.333 23.333 50 46.666 62 69.999l49 -40c-85.333 -80.667 -165.333 -121 -240 -121c-134 0 -231 90 -291 270c-0.666992 0.666992 -1.66699 3.66699 -3 9h-90v42h75c-6 18 -9 29 -9 33s4.33301 15.667 13 35h-79v42z" />
    <glyph glyph-name="yen" unicode="&#xa5;" horiz-adv-x="912" 
d="M603 144l-133 -0.00195312c0 -38 12 -67.333 36 -88c15.333 -13.333 50 -23 104 -29c42.667 -4.66699 64 -18.667 64 -42c0 -12.667 -8 -20 -24 -22c-44.667 22.667 -78 36.667 -100 42c-51.333 4.66699 -100.333 7 -147 7c-58 0 -104.667 -4 -140 -12
c-32 -14.667 -62.667 -26.667 -92 -36c-17.333 -3.33301 -26 6.33398 -26 29.001c0 16 17 28 51 36l102 24c14 3.33301 26.333 16 37 38c8.66699 18 13.667 35.667 15 53h-124v38h125l-1 62h-124v38h124v75l-41 61c-33.333 54.667 -59.666 95.667 -78.999 123
c-41.333 58.667 -72.333 91.334 -93 98.001c-9.33301 3.33301 -26.333 6 -51 8c-60 5.33301 -90 19.666 -90 42.999c0 20 10.667 30 32 30c12.667 0 26.667 -10.333 42 -31c3.33301 -3.33301 13.166 -6.66602 29.499 -9.99902s27.833 -5 34.5 -5h569
c31.333 0 53.666 2.66699 66.999 8c3.33301 1.33301 9.33301 6.66602 18 15.999s18.334 14 29.001 14c19.333 0 29 -8 29 -24c0 -30 -31.333 -45 -94 -45h-19c-13.333 3.33301 -26.5 -0.166992 -39.5 -10.5s-19.5 -22.166 -19.5 -35.499c0 -5.33301 1 -17.5 3 -36.5
s3 -31.5 3 -37.5c0 -67.333 -32.333 -114.333 -97 -141c-12.667 -3.33301 -31.667 -8.83301 -57 -16.5l-57 -17.5c0.666992 -11.333 1 -33.333 1 -66h133v-38h-133v-62h133v-38zM579 494.998c0 28.667 -5.66895 56.667 -17.002 84c-13.333 33.333 -31.666 53.333 -54.999 60
c-14 4 -32.667 6 -56 6c-66 0 -99 -18.667 -99 -56c0 -8.66699 2.33301 -18.667 7 -30c6.66699 -15.333 41.334 -74.333 104.001 -177c9.33301 1.33301 18.333 3 27 5c59.333 13.333 89 49.333 89 108z" />
    <glyph glyph-name="brokenbar" unicode="&#xa6;" horiz-adv-x="566" 
d="M242 346v344h79v-344h-79zM242 -129v343h79v-343h-79z" />
    <glyph glyph-name="section" unicode="&#xa7;" horiz-adv-x="510" 
d="M369 107c26.667 -29.333 40.001 -57.334 40.001 -84.001c0 -32 -12.667 -65.333 -38 -100c-8 -10.667 -33 -37.667 -75 -81l-195 69l40 69l205 -73c18.667 24.667 28 45 28 61c0 25.333 -17.667 51 -53 77c-10.667 8 -47.667 31.667 -111 71
c-47.333 29.333 -78.333 50.333 -93 63c-42 35.333 -63 77 -63 125c0 47.333 29 96 87 146c-25.333 28 -38 56.667 -38 86c0 52 38 111.333 114 178l192 -69l-41 -68l-205 73c-17.333 -27.333 -26 -47.666 -26 -60.999c0 -32 30.333 -66 91 -102
c46 -26.667 77.333 -45.667 94 -57c35.333 -23.333 63.666 -45.333 84.999 -66c32.667 -32 49 -67.667 49 -107c0 -47.333 -29 -97.333 -87 -150zM188.001 409.999l-41.001 33c-11.333 -10 -26 -26.667 -44 -50c-6.66699 -12.667 -10 -26.667 -10 -42
c0 -29.333 19 -59.333 57 -90c18.667 -14.667 49.334 -35.334 92.001 -62.001c48 -29.333 88.667 -57.666 122 -84.999c36 32 54 61.667 54 89c0 28 -16.333 56.667 -49 86c-16 14.667 -44.333 34.667 -85 60z" />
    <glyph glyph-name="dieresis" unicode="&#xa8;" horiz-adv-x="262" 
d="M6 523c0 11.333 4 21.333 12 30s17.667 13 29 13c12 0 22 -4.16699 30 -12.5s12 -18.5 12 -30.5s-4 -22.333 -12 -31s-18 -13 -30 -13c-11.333 0 -21 4.33301 -29 13s-12 19 -12 31zM146 523c0 11.333 4 21.333 12 30s17.667 13 29 13c12 0 22 -4.16699 30 -12.5
s12 -18.5 12 -30.5s-4 -22.333 -12 -31s-18 -13 -30 -13c-11.333 0 -21 4.33301 -29 13s-12 19 -12 31z" />
    <glyph glyph-name="copyright" unicode="&#xa9;" horiz-adv-x="793" 
d="M377 721c100 0 185.668 -36.334 257.001 -109.001s107 -159 107 -259c0 -102.667 -35.667 -189.667 -107 -261s-158.333 -107 -261 -107c-102 0 -188.833 35.667 -260.5 107s-107.5 158 -107.5 260c0 104.667 35.667 192.334 107 263.001s159.666 106 264.999 106z
M369.001 668.999c-85.333 0 -156.833 -31.167 -214.5 -93.5s-86.5 -136.5 -86.5 -222.5c0 -86.667 29.333 -161 88 -223s131 -93 217 -93s158.333 31 217 93s88 136.333 88 223c0 88 -29.5 162.667 -88.5 224s-132.5 92 -220.5 92zM531.001 553.999l6 -160l-36 -4
c-22.667 86 -62 129 -118 129c-63.333 0 -95 -54.333 -95 -163c0 -110.667 34 -166 102 -166c62 0 100 38.667 114 116l41 -10c-20 -98.667 -77.667 -148 -173 -148c-59.333 0 -107.333 18.333 -144 55s-55 84.667 -55 144c0 61.333 19 111.5 57 150.5s87.333 58.5 148 58.5
c34.667 0 67 -9 97 -27l28 25h28z" />
    <glyph glyph-name="ordfeminine" unicode="&#xaa;" horiz-adv-x="302" 
d="M208 431c-20 13.333 -31.332 34.332 -33.999 62.999l-101 -63c-33.333 24 -50 49.333 -50 76c0 35.333 22 72 66 110l-33 79l9 15c14 -4 25.333 -6 34 -6c13.333 0 31.333 6.66699 54 20l62 -23c5.33301 -2 9.66602 -3 12.999 -3c8 0 17 6 27 18l9 -7
c-7.33301 -11.333 -15.333 -27.666 -24 -48.999c-3.33301 -14.667 -5 -30.667 -5 -48v-68c0 -44 7 -66 21 -66l21 11l6 -10zM175.001 662.999l-107 34l30 -70l77 -37v73zM175.001 577.999l-74 35.999c-12.667 -28 -19 -49 -19 -63c0 -27.333 12 -53.666 36 -78.999l57 37v69
z" />
    <glyph glyph-name="guillemotleft" unicode="&#xab;" horiz-adv-x="264" 
d="M202 386l15 -16.001c-9.33301 -27.333 -25.666 -70.333 -48.999 -129c8.66699 -19.333 26 -62.666 52 -129.999l-18 -12l-91 141c5.33301 7.33301 35.666 56 90.999 146zM102 385.999l15 -16.001c-9.33301 -27.333 -25.666 -70.333 -48.999 -129
c8.66699 -19.333 26 -62.666 52 -129.999l-18 -12l-91 141c5.33301 7.33301 35.666 56 90.999 146z" />
    <glyph glyph-name="logicalnot" unicode="&#xac;" horiz-adv-x="667" 
d="M519 172v238h-450v78h528v-316h-78z" />
    <glyph glyph-name="registered" unicode="&#xae;" horiz-adv-x="376" 
d="M185 720c39.333 0 73.332 -14.5 101.999 -43.5s43 -63.5 43 -103.5c0 -41.333 -14.167 -76.166 -42.5 -104.499s-63.166 -42.5 -104.499 -42.5c-42 0 -77 14 -105 42s-42 63 -42 105c0 41.333 14.5 76.166 43.5 104.499s64.167 42.5 105.5 42.5zM181.999 699
c-34 0 -62.666 -12.333 -85.999 -37s-35 -54 -35 -88c0 -34.667 11.833 -64.167 35.5 -88.5s52.5 -36.5 86.5 -36.5s62.833 12.167 86.5 36.5s35.5 53.833 35.5 88.5c0 33.333 -11.833 62.5 -35.5 87.5s-52.834 37.5 -87.501 37.5zM166 568v-41c0 -8 0.333008 -13 1 -15
c5.33301 -2 13.333 -3 24 -3v-14h-89v14c9.33301 0 16.333 1 21 3c1.33301 6.66699 2 11.667 2 15v92c0 0.666992 -0.666992 5.66699 -2 15c-6.66699 1.33301 -13.667 2 -21 2v15h95c38.667 0 58 -13.333 58 -40c0 -20.667 -12.667 -33.667 -38 -39c14 -6 24 -25 30 -57
c1.33301 -1.33301 3 -2.33301 5 -3c5.33301 0 8 6.66699 8 20h15v-5c0 -23.333 -12.667 -35 -38 -35c-18 0 -29.333 7.33301 -34 22c-2 6 -4.33301 21 -7 45c-2.66699 6 -12.667 9 -30 9zM166 583h11c22.667 0 34 9 34 27c0 17.333 -8.33301 26 -25 26h-9
c-7.33301 0 -11 -4 -11 -12v-41z" />
    <glyph glyph-name="macron" unicode="&#xaf;" horiz-adv-x="279" 
d="M28 535h208v-46h-208v46z" />
    <glyph glyph-name="macron" unicode="&#x2c9;" horiz-adv-x="279" 
d="M28 535h208v-46h-208v46z" />
    <glyph glyph-name="degree" unicode="&#xb0;" horiz-adv-x="244" 
d="M113 492c-28 0 -51.833 9.5 -71.5 28.5s-29.5 42.167 -29.5 69.5c0 26.667 10.167 49.5 30.5 68.5s43.833 28.5 70.5 28.5s50.167 -9.5 70.5 -28.5s30.5 -41.833 30.5 -68.5c0 -27.333 -9.83301 -50.5 -29.5 -69.5s-43.5 -28.5 -71.5 -28.5zM113 662
c-20.667 0 -38.5 -7.16797 -53.5 -21.501s-22.5 -31.166 -22.5 -50.499c0 -20 7.5 -37.167 22.5 -51.5s32.833 -21.5 53.5 -21.5c21.333 0 39.333 7.16699 54 21.5s22 31.5 22 51.5s-7.33301 37 -22 51s-32.667 21 -54 21z" />
    <glyph glyph-name="plusminus" unicode="&#xb1;" horiz-adv-x="667" 
d="M372 374v-224h-78v224h-225v78h225v225h78v-225h225v-78h-225zM69 -20v78h528v-78h-528z" />
    <glyph glyph-name="twosuperior" unicode="&#xb2;" horiz-adv-x="333" 
d="M250 317c-42 12.667 -77.667 19 -107 19c-32.667 0 -65 -6.66699 -97 -20l-20 7c9.33301 38 45.666 79 108.999 123c32 22 53.333 41.333 64 58c16.667 26 25 52 25 78c0 16 -8.66699 33.333 -26 52l-121 -75l-48 43l105 67l164 -67c2.66699 -10.667 4 -20 4 -28
c0 -34.667 -12 -62.667 -36 -84c-16 -14 -42.167 -29 -78.5 -45s-60.833 -28.333 -73.5 -37c-17.333 -12 -35.666 -31.667 -54.999 -59c61.333 26.667 113 40 155 40c30 0 58 -4.33301 84 -13z" />
    <glyph glyph-name="threesuperior" unicode="&#xb3;" horiz-adv-x="333" 
d="M85 317l-80.001 63.998l52 49l122 -94c21.333 21.333 32 45.333 32 72c0 61.333 -35.667 92 -107 92h-12v13c70.667 0.666992 106 29 106 85c0 28 -10 42 -30 42c-7.33301 0 -16.666 -4 -27.999 -12l-67 -47l-44 47l59 39l194 -53c-6 -30 -14.833 -52.167 -26.5 -66.5
s-35.167 -27.166 -70.5 -38.499c46 -12 75.667 -25.333 89 -40s20 -29 20 -43c0 -65.333 -69.667 -101.666 -209 -108.999z" />
    <glyph glyph-name="acute" unicode="&#xb4;" horiz-adv-x="214" 
d="M141 569c18 -28.667 26.667 -43.333 26 -44c-12.667 -4 -51 -17.333 -115 -40l-8 15z" />
    <glyph glyph-name="mu" unicode="&#xb5;" horiz-adv-x="500" 
d="M42 462l98.998 0.000976562v-275c0 -41.333 3 -71.666 9 -90.999c10.667 -34.667 32 -52 64 -52c18.667 0 38 8.66699 58 26l48 42v350h99v-385c2.66699 -24.667 11.334 -37 26.001 -37c24.667 0 39.334 20 44.001 60h24c-4 -76 -38.333 -114 -103 -114
c-52.667 0 -82.667 31 -90 93l-66 -61c-27.333 -21.333 -54.333 -32 -81 -32c-34 0 -62.667 14 -86 42c-0.666992 -6.66699 -1 -14.334 -1 -23.001c0 -24.667 6.66699 -63.334 20 -116.001c5.33301 -21.333 8 -38.333 8 -51c0 -15.333 -5.33301 -28.166 -16 -38.499
s-23.667 -15.5 -39 -15.5c-36 0 -54 17.667 -54 53c0 15.333 5.66699 42.333 17 81l14 52c4 29.333 6 56.666 6 81.999v410z" />
    <glyph glyph-name="mu" unicode="&#x3bc;" horiz-adv-x="500" 
d="M42 462l98.998 0.000976562v-275c0 -41.333 3 -71.666 9 -90.999c10.667 -34.667 32 -52 64 -52c18.667 0 38 8.66699 58 26l48 42v350h99v-385c2.66699 -24.667 11.334 -37 26.001 -37c24.667 0 39.334 20 44.001 60h24c-4 -76 -38.333 -114 -103 -114
c-52.667 0 -82.667 31 -90 93l-66 -61c-27.333 -21.333 -54.333 -32 -81 -32c-34 0 -62.667 14 -86 42c-0.666992 -6.66699 -1 -14.334 -1 -23.001c0 -24.667 6.66699 -63.334 20 -116.001c5.33301 -21.333 8 -38.333 8 -51c0 -15.333 -5.33301 -28.166 -16 -38.499
s-23.667 -15.5 -39 -15.5c-36 0 -54 17.667 -54 53c0 15.333 5.66699 42.333 17 81l14 52c4 29.333 6 56.666 6 81.999v410z" />
    <glyph glyph-name="paragraph" unicode="&#xb6;" horiz-adv-x="487" 
d="M462 -65h-282v30c26.667 0 43.667 5 51 15c5.33301 7.33301 8 24 8 50v283l-31 -1c-56.667 -2 -102.167 12.833 -136.5 44.5s-51.5 75.5 -51.5 131.5c0 68 22.333 115.333 67 142c35.333 21.333 89 32 161 32h214v-30c-25.333 0 -41.166 -4 -47.499 -12
s-9.5 -26 -9.5 -54v-536c0 -27.333 3.16699 -45 9.5 -53s22.166 -12 47.499 -12v-30zM352 -35v667h-63v-667h63z" />
    <glyph glyph-name="periodcentered" unicode="&#xb7;" horiz-adv-x="201" 
d="M78 217c-15.333 24.667 -39.333 50.333 -72 77c16.667 12.667 30 24.5 40 35.5s20.333 26.833 31 47.5c18 -24 29 -39 33 -45c12 -14 26 -27.333 42 -40c-35.333 -19.333 -60 -44.333 -74 -75z" />
    <glyph glyph-name="periodcentered" unicode="&#x2219;" horiz-adv-x="201" 
d="M78 217c-15.333 24.667 -39.333 50.333 -72 77c16.667 12.667 30 24.5 40 35.5s20.333 26.833 31 47.5c18 -24 29 -39 33 -45c12 -14 26 -27.333 42 -40c-35.333 -19.333 -60 -44.333 -74 -75z" />
    <glyph glyph-name="cedilla" unicode="&#xb8;" 
d="M113 -48l14.999 -0.000976562c39.333 0 59 -19.333 59 -58c0 -22 -7.66699 -40.833 -23 -56.5s-34 -23.5 -56 -23.5c-17.333 0 -35.666 5 -54.999 15l11 23c10.667 -6.66699 21.334 -10 32.001 -10c12.667 0 23.5 5.16699 32.5 15.5s13.5 21.833 13.5 34.5
c0 22.667 -11 34 -33 34c-4.66699 0 -8.33398 -0.333008 -11.001 -1l-28 -15c14 24.667 30 57.667 48 99v-2c2.66699 2.66699 6 3.33398 10 2.00098l9 3c4 -0.666992 6.33301 -2 7 -4c0 -2.66699 -4.66699 -11.5 -14 -26.5l-14 -22.5z" />
    <glyph glyph-name="onesuperior" unicode="&#xb9;" horiz-adv-x="333" 
d="M182 320l-65 37.001l14 16v194c0 39.333 -6.33301 59 -19 59c-4 0 -12.333 -4.33301 -25 -13l-5 8l72 49c22 -8 36.667 -20.667 44 -38c4 -12 6 -32.333 6 -61v-184c2 -4.66699 6 -10 12 -16c1.33301 -0.666992 4.33301 -3.33398 9 -8.00098l26 17l6 -8z" />
    <glyph glyph-name="ordmasculine" unicode="&#xba;" horiz-adv-x="281" 
d="M144 435c-48.667 21.333 -84.998 32.001 -108.998 32.001h-6l-4 7c12 15.333 18 38.666 18 69.999v137c33.333 6.66699 64.666 20.667 93.999 42c31.333 -19.333 64.666 -30.333 99.999 -33v-211c-31.333 -9.33301 -62.333 -24 -93 -44zM184.002 651.001
c-24.667 12.667 -53.667 21.333 -87 26v-170l87 -32v176z" />
    <glyph glyph-name="guillemotright" unicode="&#xbb;" horiz-adv-x="264" 
d="M29 99l-15.001 15l49 130c-11.333 26 -28.666 69.333 -51.999 130l18 12c21.333 -36 44 -72.333 68 -109c12 -18.667 18.667 -28.667 20 -30s2.33301 -2 3 -2zM128.999 99l-15.001 15l49 130c-11.333 26 -28.666 69.333 -51.999 130l18 12c21.333 -36 44 -72.333 68 -109
c12 -18.667 18.667 -28.667 20 -30s2.33301 -2 3 -2z" />
    <glyph glyph-name="onequarter" unicode="&#xbc;" horiz-adv-x="1010" 
d="M828 100v-20.002l18 -26l24 12l10 -14l-75 -49l-68 39l13 19v39h-138l-16 63l166 197c26 -5.33301 43.5 -14.666 52.5 -27.999s13.5 -34.666 13.5 -63.999v-114h49l14 -54h-63zM310 -30.002h-57l441 706h57zM273 315.998l-69.999 41l16 17v193
c0 37.333 -5.33301 56 -16 56c-4 0 -12.667 -4.66699 -26 -14l-9 13l76 51c23.333 -8 38.666 -21 45.999 -39c4.66699 -12 7 -33 7 -63l1 -183c1.33301 -4 5 -8.66699 11 -14l7 -7l26 18l9 -14zM739.001 302.998c-5.33301 0 -12.667 -5.66699 -22 -17l-107 -128l140 -4v102
c0 12 0.333008 21.667 1 29c-0.666992 12 -4.66699 18 -12 18z" />
    <glyph glyph-name="onehalf" unicode="&#xbd;" horiz-adv-x="1010" 
d="M838 3c-44 13.333 -80.3311 20 -108.998 20c-32 0 -64 -6.66699 -96 -20l-23 8c8 40 45 82.333 111 127c30.667 20.667 51.667 40 63 58c16 24.667 24 49.667 24 75c0 16 -7.66699 32.333 -23 49l-121 -75l-53 47l110 70l167 -68c2.66699 -11.333 4 -21.333 4 -30
c0 -35.333 -12 -64 -36 -86c-15.333 -14 -42 -29.333 -80 -46c-34.667 -15.333 -57.334 -26.333 -68.001 -33c-18.667 -12 -36.334 -29.667 -53.001 -53c51.333 23.333 100 35 146 35c30 0 59.667 -4.66699 89 -14zM310.002 -30h-57l441 706h57zM273.002 316l-69.999 41
l16 17v193c0 37.333 -5.33301 56 -16 56c-4 0 -12.667 -4.66699 -26 -14l-9 13l76 51c23.333 -8 38.666 -21 45.999 -39c4.66699 -12 7 -33 7 -63l1 -183c1.33301 -4 5 -8.66699 11 -14l7 -7l26 18l9 -14z" />
    <glyph glyph-name="threequarters" unicode="&#xbe;" horiz-adv-x="1010" 
d="M827 100v-20l19 -26l23 12l11 -14l-75 -49l-68 39l13 19v39h-138l-16 63l166 197c26.667 -4.66699 44.667 -14.667 54 -30c7.33301 -12 11 -32.667 11 -62v-114h50l14 -54h-64zM310 -30h-57l441 706h57zM174 314l-82.998 67l56 53l122 -94c19.333 19.333 29 42 29 68
c0 32.667 -11 57.334 -33 74.001c-12.667 10 -36.334 15 -71.001 15h-14v19c70.667 0.666992 106 28 106 82c0 26 -9 39 -27 39c-8 0 -17 -3.66699 -27 -11l-69 -49l-48 51l62 43l199 -55c-6.66699 -32 -16.334 -55.667 -29.001 -71s-32.667 -27.333 -60 -36
c67.333 -16.667 101 -44.334 101 -83.001c0 -68 -71.333 -105.333 -214 -112zM739.002 303c-5.33301 0 -12.667 -5.66699 -22 -17l-107 -128l140 -4v102c0 12 0.333008 21.667 1 29c-1.33301 12 -5.33301 18 -12 18z" />
    <glyph glyph-name="questiondown" unicode="&#xbf;" horiz-adv-x="538" 
d="M284 228c-10 -10 -21.3311 -20.002 -33.998 -30.002c-60.667 -47.333 -93.334 -106.666 -98.001 -177.999c-1.33301 -20 -2 -36.333 -2 -49c0 -90 38.667 -135 116 -135c39.333 0 75.666 10.333 108.999 31c38.667 23.333 58 53.666 58 90.999
c0 31.333 -11.167 55.333 -33.5 72s-49.5 25 -81.5 25c-24 0 -42 -3.33301 -54 -10c-15.333 -8.66699 -26.333 -14 -33 -16c18.667 48.667 47.667 91 87 127l8 2c50.667 0 89.834 -15.333 117.501 -46s41.5 -71.334 41.5 -122.001c0 -51.333 -24.333 -95.333 -73 -132
c-45.333 -34 -94.333 -50.333 -147 -49c-46 0.666992 -91 14.334 -135 41.001c-46 28 -77.333 62.667 -94 104c-11.333 28 -24 49 -38 63c14.667 19.333 22.667 30 24 32c10 14 15.333 25.667 16 35c29.333 62.667 80.666 104.667 153.999 126c34.667 10 52 27.667 52 53
c0 20.667 -13.333 36.334 -40 47.001c16 21.333 35 32 57 32c15.333 0 28.833 -5.5 40.5 -16.5s17.5 -24.167 17.5 -39.5c0 -21.333 -11.667 -40.666 -35 -57.999zM193.002 440.998c18 12.667 39.666 37 64.999 73l24 -34.5c10.667 -15 25 -27.833 43 -38.5
c-23.333 -8.66699 -45.666 -31.334 -66.999 -68.001c-12 20.667 -33.667 43.334 -65 68.001z" />
    <glyph glyph-name="longs" unicode="&#x17f;" horiz-adv-x="249" 
d="M172 -36c0 -9.33301 3.66797 -19.665 11.001 -30.998l15 -18c-28.667 -4 -49.667 -21 -63 -51c-2 -4 -9 -30.667 -21 -80c-6.66699 -28.667 -17.334 -43.334 -32.001 -44.001v626c-17.333 1.33301 -30.333 2 -39 2c-7.33301 0 -22.333 -0.666992 -45 -2
c-1.33301 1.33301 -2 7.66602 -2 18.999c0 12 0.666992 29.333 2 52h87c2.66699 68 -6 119.333 -26 154c31.333 1.33301 67 13.166 107 35.499s67.333 46.5 82 72.5c10.667 -13.333 37 -41.666 79 -84.999c0 -1.33301 -9 -10 -27 -26s-32.667 -29.667 -44 -41
c-12 12 -32 33.667 -60 65l-24 -15v-633z" />
    <glyph glyph-name="florin" unicode="&#x192;" horiz-adv-x="488" 
d="M445 602l-86.001 22.001l-30 -131h76l-10 -43h-76l-99 -429c-2 -8.66699 -3 -17.334 -3 -26.001c0 -20.667 7 -37 21 -49l-2 -5c-43.333 -12.667 -88.666 -36.667 -135.999 -72l-85 84l6 5l30 -30l71 46l111 476h-46l10 43h46l27 119c53.333 31.333 95.333 58.333 126 81
l78 -20z" />
    <glyph glyph-name="circumflex" unicode="&#x2c6;" 
d="M131 534c-14.667 -10 -47.668 -26.333 -99.001 -49l-10 19l106 85l2 -1l1 1l2 -3l104 -82l-10 -19c-14 4.66699 -30.667 12.667 -50 24c-21.333 12.667 -36.666 21 -45.999 25z" />
    <glyph glyph-name="caron" unicode="&#x2c7;" 
d="M129 540c21.333 14 54 30.333 98 49l10 -19l-106 -85l-1 1l-2 -1l-2 3l-104 82l10 19c12.667 -4 29.5 -12.167 50.5 -24.5s36.5 -20.5 46.5 -24.5z" />
    <glyph glyph-name="breve" unicode="&#x2d8;" horiz-adv-x="259" 
d="M218 511c-23.333 -39.333 -57.667 -59 -103 -59c-49.333 0 -83 19.667 -101 59l14 9c19.333 -23.333 48.333 -35 87 -35c13.333 0 30.333 3 51 9c25.333 7.33301 38 16 38 26z" />
    <glyph glyph-name="dotaccent" unicode="&#x2d9;" horiz-adv-x="210" 
d="M67 524c0 10.667 3.66699 19.834 11 27.501s16.333 11.5 27 11.5c10 0 18.667 -3.83301 26 -11.5s11 -16.834 11 -27.501s-3.66699 -19.834 -11 -27.501s-16 -11.5 -26 -11.5c-10.667 0 -19.667 3.83301 -27 11.5s-11 16.834 -11 27.501z" />
    <glyph glyph-name="ring" unicode="&#x2da;" horiz-adv-x="342" 
d="M164 610c18 0 33.333 -6.16699 46 -18.5s19 -27.5 19 -45.5s-6.33301 -33.167 -19 -45.5s-28 -18.5 -46 -18.5s-33.5 6.16699 -46.5 18.5s-19.5 27.5 -19.5 45.5s6.5 33.167 19.5 45.5s28.5 18.5 46.5 18.5zM164 584c-11.333 0 -20.833 -3.66699 -28.5 -11
s-11.5 -16.333 -11.5 -27s3.83301 -19.667 11.5 -27s17.167 -11 28.5 -11c10.667 0 19.834 3.66699 27.501 11s11.5 16.333 11.5 27s-3.83301 19.667 -11.5 27s-16.834 11 -27.501 11z" />
    <glyph glyph-name="ogonek" unicode="&#x2db;" horiz-adv-x="210" 
d="M115 -4l-42.001 -35.998c-12 -10 -22.167 -24.833 -30.5 -44.5s-12.5 -37.5 -12.5 -53.5c0 -41.333 16 -62 48 -62c32.667 0 56.334 21 71.001 63c-22.667 -20 -40.667 -30 -54 -30c-16 0 -24 12 -24 36c0 57.333 30 104.666 90 141.999
c-1.33301 1.33301 -9 -0.333984 -23 -5.00098s-21.667 -8 -23 -10z" />
    <glyph glyph-name="tilde" unicode="&#x2dc;" horiz-adv-x="342" 
d="M305 557c-20.667 -44 -47.668 -66 -81.001 -66c-14 0 -34 5.5 -60 16.5s-46 16.5 -60 16.5c-22.667 0 -41.667 -9.66699 -57 -29l-16 8c19.333 46 51.333 69 96 69c12 0 29.667 -5.16699 53 -15.5s41.333 -15.5 54 -15.5c18.667 0 38.334 8.66699 59.001 26z" />
    <glyph glyph-name="hungarumlaut" unicode="&#x2dd;" horiz-adv-x="262" 
d="M164 582c30 -14.667 45 -23 45 -25l-80 -92l-14 9zM95 581c30.667 -15.333 45.333 -23.667 44 -25c-14 -18 -40.333 -48.667 -79 -92l-15 9z" />
    <glyph glyph-name="Delta" unicode="&#x394;" horiz-adv-x="612" 
d="M599 0h-586l306 677zM483 40l-194 472l-215 -472h409z" />
    <glyph glyph-name="Delta" unicode="&#x2206;" horiz-adv-x="612" 
d="M599 0h-586l306 677zM483 40l-194 472l-215 -472h409z" />
    <glyph glyph-name="Omega" unicode="&#x3a9;" horiz-adv-x="740" 
d="M28 153h16.999c2 -23.333 10.333 -40.333 25 -51c10 -7.33301 28.333 -11 55 -11h132v33c-46.667 8.66699 -90.334 32 -131.001 70c-54 50 -81 115 -81 195c0 87.333 33.333 158 100 212c62 50.667 137.667 76 227 76s164.333 -25 225 -75
c65.333 -53.333 98 -123.666 98 -210.999c0 -66.667 -18.667 -123.334 -56 -170.001s-89.666 -79 -156.999 -97v-33h135c25.333 0 44 4.5 56 13.5s19 25.167 21 48.5h17v-153h-273l11 147c84 27.333 126 105 126 233c0 70.667 -16.333 130 -49 178
c-37.333 55.333 -89.666 83 -156.999 83c-78.667 0 -137 -39 -175 -117c-19.333 -40 -29 -85.667 -29 -137c0 -128.667 41.667 -208.667 125 -240l11 -147h-273v153z" />
    <glyph glyph-name="Omega" unicode="&#x2126;" horiz-adv-x="740" 
d="M28 153h16.999c2 -23.333 10.333 -40.333 25 -51c10 -7.33301 28.333 -11 55 -11h132v33c-46.667 8.66699 -90.334 32 -131.001 70c-54 50 -81 115 -81 195c0 87.333 33.333 158 100 212c62 50.667 137.667 76 227 76s164.333 -25 225 -75
c65.333 -53.333 98 -123.666 98 -210.999c0 -66.667 -18.667 -123.334 -56 -170.001s-89.666 -79 -156.999 -97v-33h135c25.333 0 44 4.5 56 13.5s19 25.167 21 48.5h17v-153h-273l11 147c84 27.333 126 105 126 233c0 70.667 -16.333 130 -49 178
c-37.333 55.333 -89.666 83 -156.999 83c-78.667 0 -137 -39 -175 -117c-19.333 -40 -29 -85.667 -29 -137c0 -128.667 41.667 -208.667 125 -240l11 -147h-273v153z" />
    <glyph glyph-name="pi" unicode="&#x3c0;" horiz-adv-x="531" 
d="M491 447l0.000976562 -70.999h-113c-12.667 -76 -19 -150.667 -19 -224c0 -56 20.333 -84 61 -84c32 0 50 18 54 54h17c-10.667 -90.667 -44 -136 -100 -136c-57.333 0 -86 56.333 -86 169c0 22.667 2 56 6 100c5.33301 60.667 9.66602 101 12.999 121h-115l-11 -149
c-4.66699 -62 -15 -122 -31 -180c-11.333 -40.667 -29 -61 -53 -61c-12 0 -22.333 3.83301 -31 11.5s-13 17.5 -13 29.5c0 8 1.66699 16.333 5 25c28.667 48 43.667 73.667 45 77c10 20.667 17.667 51.667 23 93c0.666992 7.33301 4.66699 58.666 12 153.999h-14
c-25.333 0 -46 -6 -62 -18c-11.333 -8.66699 -24.666 -25.667 -39.999 -51h-18c19.333 72 48 115.667 86 131c15.333 6 39.666 9 72.999 9h311z" />
    <glyph glyph-name="afii10023" unicode="&#x401;" horiz-adv-x="714" 
d="M416 630c-49.333 0 -81 -11.667 -95 -35c-8.66699 -14.667 -13.667 -49 -15 -103c-0.666992 -3.33301 -1 -24.333 -1 -63c0 -38 0.333008 -57.333 1 -58l303 1c1.33301 5.33301 2 13.333 2 24c0 83.333 -11 141 -33 173c-28 40.667 -82 61 -162 61zM641 339
c2.66699 -22.667 6.33398 -48.166 11.001 -76.499s9.83398 -57.833 15.501 -88.5l17.5 -93.5l17 -92.5c-164 18 -319.333 27 -466 27c-12.667 0 -31.334 -1 -56.001 -3c-12.667 -0.666992 -23.5 -1.16699 -32.5 -1.5s-16.5 -0.5 -22.5 -0.5c-18 0 -36.333 -5.33301 -55 -16
c-19.333 -11.333 -30.333 -17 -33 -17c-20 0 -30 8.66699 -30 26c0 19.333 16 31 48 35c42 4.66699 65.333 8.33398 70 11.001c39.333 23.333 59 65.666 59 126.999c0.666992 15.333 1 50.166 1 104.499v221.5c0 61.333 -19.667 103.666 -59 126.999
c-4.66699 2.66699 -28 6.33398 -70 11.001c-32 4 -48 15.667 -48 35c0 17.333 10 26 30 26c2.66699 0 13.667 -5.66699 33 -17c18.667 -10.667 37 -16 55 -16c11.333 0 29.666 -1 54.999 -3c12.667 -0.666992 23.5 -1.16699 32.5 -1.5s16.833 -0.5 23.5 -0.5
c146.667 0 302 9 466 27l-17 -92.5l-17.5 -93.5l-16 -88.5c-5 -28.333 -8.83301 -53.833 -11.5 -76.5zM415 48.001c80 0 133.999 20.334 161.999 61.001c22 32 33 89.667 33 173c0 6 0.833008 10.667 2.5 14s-0.166016 5.66602 -5.49902 6.99902l-302 4
c-0.666992 -0.666992 -1 -20 -1 -58c0 -38.667 0.333008 -59.667 1 -63c1.33301 -54 6.33301 -88.333 15 -103c14 -23.333 45.667 -35 95 -35zM478.999 736.002c-14 0 -26 5.33105 -36 15.998s-15 23.334 -15 38.001s5 27.167 15 37.5s22 15.5 36 15.5
c14.667 0 27 -5.16699 37 -15.5s15 -22.833 15 -37.5c0 -15.333 -5 -28.166 -15 -38.499s-22.333 -15.5 -37 -15.5zM288.999 736c-14 0 -26 5.33105 -36 15.998s-15 23.334 -15 38.001s5 27.167 15 37.5s22 15.5 36 15.5c14.667 0 27 -5.16699 37 -15.5s15 -22.833 15 -37.5
c0 -15.333 -5 -28.166 -15 -38.499s-22.333 -15.5 -37 -15.5z" />
    <glyph glyph-name="afii10017" unicode="&#x410;" horiz-adv-x="794" 
d="M781 -25c0 -18 -11.332 -26.9951 -33.999 -26.9951c-14.667 0 -26.667 6.66699 -36 20c-11.333 15.333 -24.333 25 -39 29c-28 7.33301 -78 11 -150 11c-21.333 0 -54 -2 -98 -6l-98 -9c-8.66699 -1.33301 -17 6.66699 -25 24l-15 35l36 -12c14 -4.66699 26.667 -7 38 -7
c80 0 120 57 120 171c0 28.667 -0.666992 49 -2 61c-19.333 0 -47.833 -0.333008 -85.5 -1s-66.167 -1 -85.5 -1c-31.333 0 -59.666 1 -84.999 3v-129c0 -15.333 1.16699 -38 3.5 -68s3.5 -52.667 3.5 -68c0 -50.667 -13 -96.334 -39 -137.001c-30 -47.333 -69 -71 -117 -71
c-42 0 -63 14.333 -63 43c0 10 4.83301 18.833 14.5 26.5s20.5 11.5 32.5 11.5c9.33301 0 22 -4.66699 38 -14s26.667 -14 32 -14c17.333 0 31.666 11.333 42.999 34c8.66699 18.667 13 38 13 58c0 41.333 -14 79 -42 113c-10.667 13.333 -30 31 -58 53
c-0.666992 1.33301 -2.33398 2.66602 -5.00098 3.99902c0 75.333 20.667 173 62 293c46.667 136.667 98 215 154 235h-210c-18.667 0 -37 4 -55 12c-22 9.33301 -33 22.333 -33 39c0 5.33301 3.33301 10.833 10 16.5s12.667 8.5 18 8.5c12 0 29.833 -6 53.5 -18
s41.167 -18 52.5 -18h480c21.333 0 66.333 9.66699 135 29c24 0 36 -8.66699 36 -26c0 -22.667 -15.667 -34.334 -47 -35.001c-46 -1.33301 -75.667 -5.33301 -89 -12c-31.333 -16.667 -47 -53.667 -47 -111v-377c0 -52.667 15.667 -87.334 47 -104.001
c7.33301 -4 37 -10 89 -18c31.333 -4.66699 47 -20.334 47 -47.001zM480.001 320.005l-0.000976562 108c0 71.333 -1.66699 115 -5 131c-10.667 51.333 -38.334 77 -83.001 77c-55.333 0 -98.666 -41 -129.999 -123c-21.333 -57.333 -33.666 -122.333 -36.999 -195z" />
    <glyph glyph-name="afii10018" unicode="&#x411;" horiz-adv-x="823" 
d="M432 444c-26 -19.333 -39.0039 -45.6631 -39.0039 -78.9961c0 -28 8.66699 -50.667 26 -68s39.333 -26 66 -26c22 0 39.667 4.33301 53 13c19.333 12 33.666 19 42.999 21c-5.33301 -11.333 -20 -33.666 -44 -66.999l-26 -36l-30 -42
c-98.667 22.667 -148 76.667 -148 162c0 48 18.333 88.333 55 121c18.667 16.667 38 28.334 58 35.001s42 10 66 10c24.667 -1.33301 47.167 -5.83301 67.5 -13.5s42.833 -19.834 67.5 -36.501c48.667 -32.667 83.334 -71.334 104.001 -116.001l18 -31
c7.33301 -13.333 11 -23.333 11 -30c0 -4.66699 -3 -14 -9 -28l-12 -28c-3.33301 -10 -9.83301 -25.833 -19.5 -47.5s-24.834 -43.834 -45.501 -66.501s-47.5 -43.167 -80.5 -61.5s-74.167 -29.5 -123.5 -33.5c-40.667 5.33301 -76.834 9.33301 -108.501 12
s-59.167 4 -82.5 4c-8.66699 2.66699 -22 4 -40 4c-54 0 -98 -4.66699 -132 -14c-29.333 -9.33301 -47.333 -22 -54 -38c-2.66699 -8.66699 -13 -13 -31 -13c-16.667 0 -25 9.66699 -25 29c0 16 20.667 31.667 62 47l34 8c11.333 2.66699 22.666 5.66699 33.999 9
c26.667 8 44 21 52 39c3.33301 7.33301 6.33301 23 9 47v2l3 303c0.666992 25.333 0.833984 45.833 0.500977 61.5s-0.833008 27.167 -1.5 34.5c-5.33301 59.333 -36.666 93 -93.999 101c-9.33301 1.33301 -20.666 2.83301 -33.999 4.5s-29.333 3.83398 -48 6.50098
c-19.333 5.33301 -29 15.666 -29 30.999c0 14.667 8.33301 22 25 22c8 0 19.333 -3.66699 34 -11c19.333 -9.33301 31 -14.333 35 -15l588 3c4.66699 0 14.834 1.33301 30.501 4s36.834 6.66699 63.501 12c-7.33301 -18 -28.333 -33.667 -63 -47
c-30.667 -10.667 -46 -17.334 -46 -20.001c-2 -3.33301 -2 -9.33301 0 -18c2 -9.33301 3 -16.333 3 -21c0 -6 -1.66699 -11.667 -5 -17c-43.333 26 -78.666 43 -105.999 51c-57.333 15.333 -100.333 23 -129 23c-72.667 0 -109.667 -40.667 -111 -122l-3 -277v-60
c0 -40.667 4 -70.334 12 -89.001c14 -32.667 42 -49 84 -49c48 -4.66699 86.833 0.5 116.5 15.5s52.5 33.833 68.5 56.5s26.667 46 32 70s8 42.333 8 55c0 56 -11.667 103.333 -35 142c-7.33301 11.333 -16.333 22.666 -27 33.999s-23.167 20.833 -37.5 28.5
s-30.666 12 -48.999 13s-38.833 -3.5 -61.5 -13.5z" />
    <glyph glyph-name="afii10019" unicode="&#x412;" horiz-adv-x="776" 
d="M742 178c-54.667 -124.667 -146.336 -187.001 -275.003 -187.001c-57.333 0 -111.666 11.333 -162.999 34l-115 65c-40 22.667 -76 34 -108 34c-8.66699 0 -17 -2 -25 -6c6.66699 -9.33301 10 -18 10 -26c0 -9.33301 -3.5 -17.833 -10.5 -25.5s-15.167 -11.5 -24.5 -11.5
c-22.667 0 -34 14 -34 42c0 38.667 29.333 58 88 58c4 0 13 -0.333008 27 -1s23.333 -1 28 -1c28.667 0 48.334 8.33301 59.001 25c8 12.667 12 34 12 64v216c0 14 -3.66699 29.333 -11 46c-8.66699 19.333 -19 29 -31 29h-83c-20 0 -37.833 8 -53.5 24s-23.5 34 -23.5 54
c0 10 4 19 12 27s17 12 27 12s18.667 -4.16699 26 -12.5s11 -17.5 11 -27.5c0 -2 -4.66699 -14.333 -14 -37l6 -6h8c44 0 85.333 11 124 33l105 62c40 22 85.333 33 136 33c52 0 107 -17.667 165 -53c12 -7.33301 34 -26.666 66 -57.999c34 -33.333 51 -53.666 51 -60.999
c0 -20 -13.333 -41 -40 -63c-34.667 -28.667 -66.667 -49.334 -96 -62.001c-24 -10 -58 -20 -102 -30c132.667 -42.667 215.334 -106 248.001 -190zM598.998 170.999c0 46.667 -10.333 85.998 -31 117.998c-24 37.333 -58.333 56 -103 56c-17.333 0 -48.333 -12.333 -93 -37
c1.33301 1.33301 2 2.33301 2 3c0 2.66699 -1.16699 3.83398 -3.5 3.50098s-3.5 0.166992 -3.5 1.5c0 2 0.333008 3.33301 1 4c16 20 46.333 40.667 91 62c51.333 24.667 83.333 42.667 96 54c29.333 26.667 44 62 44 106c0 33.333 -15.333 62.833 -46 88.5
s-63 38.5 -97 38.5c-56.667 0 -95.667 -27 -117 -81c-14 -35.333 -21 -86.666 -21 -153.999v-179c0 -68 8 -119.667 24 -155c22.667 -50.667 64.667 -76 126 -76c42.667 0 75.667 14 99 42c21.333 26.667 32 61.667 32 105z" />
    <glyph glyph-name="afii10020" unicode="&#x413;" horiz-adv-x="752" 
d="M697 165c0 -15.333 -5.33496 -23.001 -16.002 -23.001c-27.333 0 -48.333 29.333 -63 88c-10 40 -15 81.667 -15 125c0 24 1.66699 44.333 5 61l41 203c-6 -2.66699 -22.333 -20.334 -49 -53.001c-21.333 -26 -44 -39 -68 -39c-11.333 0 -33.666 15.833 -66.999 47.5
s-62 47.5 -86 47.5c-26.667 0 -44.334 -11.667 -53.001 -35c-4 -10.667 -6.33301 -33.667 -7 -69c-1.33301 -63.333 -1.66602 -132.666 -0.999023 -207.999c1.33301 -138 2 -207.667 2 -209c0 -30.667 20 -52.334 60 -65.001
c10.667 -3.33301 48.334 -9.66602 113.001 -18.999c40 -6 60 -16 60 -30c0 -4 -3.16699 -8.33301 -9.5 -13s-11.833 -7 -16.5 -7c-8 0 -17.667 3 -29 9l-28 14c-22 6.66699 -57.667 10 -107 10h-214c-24.667 0 -45 -2 -61 -6
c-4.66699 -1.33301 -14.167 -6.16602 -28.5 -14.499s-21.833 -12.5 -22.5 -12.5c-21.333 0 -32 8 -32 24c0 14.667 17 24.667 51 30c42 6 73.333 10.667 94 14c34 8.66699 51 24.667 51 48v468c0 6 -2 18.333 -6 37s-9.5 31 -16.5 37s-20.167 9 -39.5 9
c-28.667 0 -55 3 -79 9c-36.667 10 -55 25 -55 45c0 4 1.83301 8.66699 5.5 14s7.5 8 11.5 8c10 0 23.667 -5.33301 41 -16c22.667 -14 36 -21.667 40 -23c27.333 -10.667 67 -16 119 -16h220c19.333 0 60 2 122 6c52 3.33301 92.667 5 122 5c2 0 3.66699 -0.666992 5 -2
c-30.667 -128.667 -46 -236.667 -46 -324c0 -27.333 8.66699 -60.5 26 -99.5s26 -64.167 26 -75.5z" />
    <glyph glyph-name="afii10021" unicode="&#x414;" horiz-adv-x="809" 
d="M775 343l-17 -35.001c-12 -26 -20.333 -46 -25 -60c-54.667 -170 -154.334 -255 -299.001 -255c-48.667 0 -95.667 10.667 -141 32l-101 61c-36 21.333 -68.333 32 -97 32c-25.333 0 -38 -9.33301 -38 -28v-12c0 -16 -10 -24 -30 -24s-30 13.333 -30 40
c0 16.667 8.66699 31.334 26 44.001c15.333 12 31.666 18 48.999 18h89c26 0 39 51.333 39 154v75c0 36.667 -1.33301 61.667 -4 75c-7.33301 37.333 -23.666 56 -48.999 56c-5.33301 0 -13.5 -0.333008 -24.5 -1s-19.167 -1 -24.5 -1c-62.667 0 -94 21.333 -94 64
c0 28 12.667 42 38 42c8 0 15.5 -3.33301 22.5 -10s10.5 -13 10.5 -19c0 -4 -3.33301 -15 -10 -33c4 -4 9.33301 -6 16 -6c38.667 0 78 11.667 118 35l106 64c42.667 23.333 92.334 35 149.001 35c88 0 159.667 -44.333 215 -133c14 -22 36.333 -68.667 67 -140
c4.66699 -10.667 11.667 -24 21 -40c6 -9.33301 12 -19.333 18 -30zM622 346.999c0 204 -55 306 -165 306c-103.333 0 -155 -81.333 -155 -244c0 -20 0.333008 -36 1 -48c0.666992 -16 1 -27.333 1 -34c-0.666992 -23.333 -1 -43.333 -1 -60
c0 -70.667 8.33301 -124.667 25 -162c24 -54 67 -81 129 -81c73.333 0 122.333 43.333 147 130c12 42 18 106.333 18 193z" />
    <glyph glyph-name="afii10022" unicode="&#x415;" horiz-adv-x="714" 
d="M416 630c-49.333 0 -81 -11.667 -95 -35c-8.66699 -14.667 -13.667 -49 -15 -103c-0.666992 -3.33301 -1 -24.333 -1 -63c0 -38 0.333008 -57.333 1 -58l303 1c1.33301 5.33301 2 13.333 2 24c0 83.333 -11 141 -33 173c-28 40.667 -82 61 -162 61zM641 339
c2.66699 -22.667 6.33398 -48.166 11.001 -76.499s9.83398 -57.833 15.501 -88.5l17.5 -93.5l17 -92.5c-164 18 -319.333 27 -466 27c-12.667 0 -31.334 -1 -56.001 -3c-12.667 -0.666992 -23.5 -1.16699 -32.5 -1.5s-16.5 -0.5 -22.5 -0.5c-18 0 -36.333 -5.33301 -55 -16
c-19.333 -11.333 -30.333 -17 -33 -17c-20 0 -30 8.66699 -30 26c0 19.333 16 31 48 35c42 4.66699 65.333 8.33398 70 11.001c39.333 23.333 59 65.666 59 126.999c0.666992 15.333 1 50.166 1 104.499v221.5c0 61.333 -19.667 103.666 -59 126.999
c-4.66699 2.66699 -28 6.33398 -70 11.001c-32 4 -48 15.667 -48 35c0 17.333 10 26 30 26c2.66699 0 13.667 -5.66699 33 -17c18.667 -10.667 37 -16 55 -16c11.333 0 29.666 -1 54.999 -3c12.667 -0.666992 23.5 -1.16699 32.5 -1.5s16.833 -0.5 23.5 -0.5
c146.667 0 302 9 466 27l-17 -92.5l-17.5 -93.5l-16 -88.5c-5 -28.333 -8.83301 -53.833 -11.5 -76.5zM415 48.001c80 0 133.999 20.334 161.999 61.001c22 32 33 89.667 33 173c0 6 0.833008 10.667 2.5 14s-0.166016 5.66602 -5.49902 6.99902l-302 4
c-0.666992 -0.666992 -1 -20 -1 -58c0 -38.667 0.333008 -59.667 1 -63c1.33301 -54 6.33301 -88.333 15 -103c14 -23.333 45.667 -35 95 -35z" />
    <glyph glyph-name="afii10024" unicode="&#x416;" horiz-adv-x="1259" 
d="M620 -4l-172.996 5l-285 -3c-27.333 0 -68.333 -18 -123 -54c-16.667 0 -25 6.33301 -25 19c0 17.333 20 30.666 60 39.999c32.667 7.33301 55.667 15.333 69 24c20.667 14 31 34.333 31 61v41c0 40.667 26.333 83.334 79 128.001c46 38.667 91.667 64.667 137 78
c-48 4 -95.167 28.333 -141.5 73s-69.5 90.667 -69.5 138c0 8 0.333008 13.667 1 17c1.33301 13.333 -4.33398 28.333 -17.001 45s-25.334 25.334 -38.001 26.001c-32 2 -56 3.33301 -72 4c-28 5.33301 -42 16.666 -42 33.999c0 16 8 24 24 24
c9.33301 0 20.5 -5.5 33.5 -16.5s28.833 -16.5 47.5 -16.5l284 -4c80 -1.33301 154.667 -1 224 1c69.333 -2 144 -2.33301 224 -1l284 4c18.667 0 34.5 5.5 47.5 16.5s24.167 16.5 33.5 16.5c16 0 24 -8 24 -24c0 -17.333 -14 -28.666 -42 -33.999
c-16 -0.666992 -40 -2 -72 -4c-12.667 -0.666992 -25.334 -9.33398 -38.001 -26.001s-18.334 -31.667 -17.001 -45c0.666992 -3.33301 1 -9 1 -17c0 -47.333 -23.167 -93.333 -69.5 -138s-93.5 -69 -141.5 -73c45.333 -13.333 91 -39.333 137 -78
c52.667 -44.667 79 -87.334 79 -128.001v-41c0 -26.667 10.333 -47 31 -61c13.333 -8.66699 36.333 -16.667 69 -24c40 -9.33301 60 -22.666 60 -39.999c0 -12.667 -8.33301 -19 -25 -19c-54.667 36 -95.667 54 -123 54l-285 3l-177 -8zM960.004 512
c0 45.333 -11.001 76.332 -33.001 92.999c-18 13.333 -50.667 20 -98 20c-0.666992 0 -6.66699 0.333008 -18 1s-19.666 1 -24.999 1c-68 0 -101.667 -24 -101 -72c1.33301 -67.333 1.33301 -134.666 0 -201.999h128c48 0 85.333 16.667 112 50c23.333 28.667 35 65 35 109z
M959.003 109.999c0 68 -18.832 120.833 -56.499 158.5s-90.834 56.5 -159.501 56.5c-26 0 -45 0.666992 -57 2l-1 -176c0 -44.667 5.66699 -75.334 17 -92.001c14.667 -20.667 42.667 -31 84 -31h53c41.333 0 68.333 2.66699 81 8c26 10.667 39 35.334 39 74.001z
M288.004 511.999c0 -44 11.666 -80.332 34.999 -108.999c26.667 -33.333 64 -50 112 -50h128c-1.33301 67.333 -1.33301 134.666 0 201.999c0.666992 48 -33 72 -101 72c-5.33301 0 -13.666 -0.333008 -24.999 -1s-17.333 -1 -18 -1c-47.333 0 -80 -6.66699 -98 -20
c-22 -16.667 -33 -47.667 -33 -93zM289.003 110c0 -38.667 13.001 -63.334 39.001 -74.001c12.667 -5.33301 39.667 -8 81 -8h53c41.333 0 69.333 10.333 84 31c11.333 16.667 17 47.334 17 92.001l-1 176c-12 -1.33301 -31 -2 -57 -2
c-68.667 0 -121.834 -18.833 -159.501 -56.5s-56.5 -90.5 -56.5 -158.5z" />
    <glyph glyph-name="afii10025" unicode="&#x417;" horiz-adv-x="576" 
d="M553 114c-15.333 -43.333 -45.3174 -76.5 -89.9844 -99.5s-98.334 -34.5 -161.001 -34.5c-77.333 0 -149.333 32 -216 96l-1 -3c-11.333 -32 -23.833 -63.5 -37.5 -94.5s-28.334 -60 -44.001 -87s-31.5 -51.333 -47.5 -73s-32 -39.167 -48 -52.5v19
c19.333 24.667 36.666 51.667 51.999 81s28.166 60.333 38.499 93s18.166 66 23.499 100s8 68 8 102s-6 84.667 -18 152v15c5.33301 -0.666992 12.166 -5.5 20.499 -14.5s17.166 -20.667 26.499 -35s18.666 -31 27.999 -50s17.666 -38.833 24.999 -59.5
c18 -50 42.667 -85.667 74 -107s70 -32 116 -32c29.333 0 53 6 71 18s31.167 27.333 39.5 46s12.5 39.334 12.5 62.001s-3 44.667 -9 66s-14.667 40.333 -26 57s-24 28.667 -38 36c-17.333 9.33301 -38.166 16.166 -62.499 20.499s-52.833 3.16602 -85.5 -3.50098l3 48
c14.667 1.33301 28.667 1.83301 42 1.5s25.5 -0.666016 36.5 -0.999023s21.167 -0.333008 30.5 0s17.666 2.16602 24.999 5.49902c10.667 4.66699 20 14.334 28 29.001s14 31.5 18 50.5s5.5 39 4.5 60s-4.66699 40.333 -11 58s-15.833 32.167 -28.5 43.5s-28.667 17 -48 17
c-52.667 0 -101.334 -36 -146.001 -108l-53 -85.5c-16 -25.667 -32.667 -41.834 -50 -48.501l-11 7c24.667 34.667 37 81.334 37 140.001c0 50 -8 94.667 -24 134l14 8c6 -4 10.833 -7.33301 14.5 -10s7.83398 -6.5 12.501 -11.5s9.83398 -11.333 15.501 -19l23.5 -32.5
c63.333 45.333 119.666 68 168.999 68c19.333 0 38.666 -2.5 57.999 -7.5s37.5 -12.667 54.5 -23s32.5 -23.166 46.5 -38.499s25 -33.333 33 -54c11.333 -19.333 18.666 -31.333 21.999 -36c10.667 -16 16 -25 16 -27c0 -1.33301 -4 -10.333 -12 -27
c-8.66699 -18.667 -18 -34.334 -28 -47.001c-8.66699 -15.333 -19.834 -29.5 -33.501 -42.5s-29.167 -22.167 -46.5 -27.5c31.333 -8 58.166 -22.167 80.499 -42.5s39.166 -41.166 50.499 -62.499c11.333 -19.333 18.666 -31.333 21.999 -36c10.667 -16 16 -25 16 -27
c0 -1.33301 -4 -10.333 -12 -27c-8.66699 -18.667 -15.334 -34.334 -20.001 -47.001z" />
    <glyph glyph-name="afii10026" unicode="&#x418;" horiz-adv-x="816" 
d="M787 688c0 -6.66699 -3.49707 -14.334 -10.4971 -23.001s-13.5 -13 -19.5 -13c-116 -4 -174 -39 -174 -105l-1 -367c0 -44.667 2 -75.667 6 -93c10.667 -46 34 -69 70 -69c27.333 0 47.333 27 60 81c-2 36 -14.667 54 -38 54c-0.666992 0 -6.33398 -2.5 -17.001 -7.5
s-18.667 -7.5 -24 -7.5c-6.66699 0 -9.33398 5 -8.00098 15c4 26 13 42.667 27 50c8 3.33301 22.667 5 44 5c26.667 0 47.334 -10.333 62.001 -31c14 -18 21 -40.667 21 -68c0 -30.667 -14.167 -59 -42.5 -85s-58.166 -39 -89.499 -39c-32.667 0 -59.667 11 -81 33
c-16.667 16.667 -35.667 48.667 -57 96c-0.666992 0 -2.33398 -1.33301 -5.00098 -4c-42.667 -80 -105.667 -120 -189 -120c-130 0 -224 83.667 -282 251c-2.66699 6.66699 -8.33398 19.334 -17.001 38.001c-8 16.667 -12 25.667 -12 27c0 2 5.33301 11 16 27
c3.33301 4.66699 10.666 16.667 21.999 36c36 75.333 63 126.333 81 153c35.333 51.333 80 88 134 110h-160c-18.667 -2 -39.667 1 -63 9c-28 10 -42 22.667 -42 38c0 14 1.33301 23 4 27c6 9.33301 19.667 14 41 14c7.33301 0 19.5 -7.16699 36.5 -21.5
s33.5 -21.5 49.5 -21.5c-4.66699 0 4.33301 -0.333008 27 -1c27.333 0 60 -0.333008 98 -1l228 -2c139.333 0 214.333 3 225 9l31 27c6 4 14.667 6 26 6c15.333 0 23 -9 23 -27zM469.003 542c1.33301 62.667 -28.3311 94 -88.998 94
c-72.667 0 -129.334 -37.333 -170.001 -112c-32.667 -60 -49 -130 -49 -210c0 -61.333 10.333 -118 31 -170c29.333 -73.333 71.333 -110 126 -110c98.667 0 148.667 48.333 150 145c-0.666992 69.333 -0.333984 190.333 0.999023 363z" />
    <glyph glyph-name="afii10027" unicode="&#x419;" horiz-adv-x="816" 
d="M787 688c0 -6.66699 -3.49902 -14.333 -10.499 -23s-13.5 -13 -19.5 -13c-116 -4 -174 -39 -174 -105l-1 -367c0 -45.333 2 -76.333 6 -93c10.667 -46 34 -69 70 -69c26.667 0 46.667 27 60 81c-2 36 -14.667 54 -38 54c0.666992 0 -5 -2.66699 -17 -8
c-10 -4.66699 -18 -7 -24 -7c-6.66699 0 -9.33398 5 -8.00098 15c4 26.667 13 43.334 27 50.001c8.66699 3.33301 23.334 5 44.001 5c26.667 0 47.334 -10.333 62.001 -31c14 -18 21 -40.667 21 -68c0 -30.667 -14.333 -59 -43 -85c-28 -26 -57.667 -39 -89 -39
c-33.333 0 -60.333 11 -81 33c-17.333 16.667 -36.333 48.667 -57 96c-0.666992 0 -2.33398 -1.33301 -5.00098 -4c-43.333 -80 -106.333 -120 -189 -120c-130 0 -224 83.667 -282 251l-6 14.5c-2.66699 6.33301 -6.33398 14.166 -11.001 23.499
c-8 16.667 -12 25.667 -12 27c0 2.66699 5.33301 11.667 16 27c1.33301 2.66699 4 7 8 13s8.66699 13.667 14 23c36 74.667 63 125.667 81 153c35.333 51.333 80 88 134 110h-160c-19.333 -2 -40.333 1 -63 9c-28 10 -42 22.667 -42 38c0 14.667 1.33301 23.667 4 27
c6 9.33301 19.667 14 41 14c7.33301 0 19.333 -7.33301 36 -22c16.667 -14 33.334 -21 50.001 -21c-2.66699 0 -1.66699 0 3 0s12.667 -0.333008 24 -1h44.5c16.333 0 34.166 -0.333008 53.499 -1l228 -2c138.667 0 213.667 3 225 9l12.5 10.5l18.5 16.5c6 4 14.667 6 26 6
c15.333 0 23 -9 23 -27zM469.001 542.001c0.666992 62.667 -28.998 94 -88.998 94c-72.667 0 -129.334 -37.333 -170.001 -112c-32.667 -59.333 -49 -129.333 -49 -210c0 -62 10.333 -118.667 31 -170c29.333 -73.333 71.333 -110 126 -110c99.333 0 149.333 48.333 150 145
c-0.666992 34.667 -0.833984 82 -0.500977 142s0.833008 133.667 1.5 221zM412.003 717.001c-12 0 -23.498 1.5 -34.498 4.5s-20.833 7 -29.5 12s-15.667 10.667 -21 17s-8 12.833 -8 19.5c0 32.667 13.667 53 41 61c4 -4.66699 5.33301 -8.66699 4 -12
c-0.666992 -3.33301 -1.33398 -6 -2.00098 -8s-1 -3.66699 -1 -5c0 -23.333 16.667 -35 50 -35s50 11.667 50 35c0 1.33301 -0.333008 3 -1 5s-1.33398 4.66699 -2.00098 8c-1.33301 3.33301 0 7.33301 4 12c27.333 -8 41 -28.333 41 -61
c0 -6.66699 -2.33301 -13.167 -7 -19.5s-11.167 -12 -19.5 -17s-18 -9 -29 -12s-22.833 -4.5 -35.5 -4.5z" />
    <glyph glyph-name="afii10028" unicode="&#x41a;" horiz-adv-x="856" 
d="M844 679c0 -17.333 -14 -28.6641 -42 -33.9971c-16 -0.666992 -40 -2 -72 -4c-12.667 -0.666992 -25.334 -9.33398 -38.001 -26.001s-18.334 -31.667 -17.001 -45c0.666992 -3.33301 1 -9 1 -17c0 -47.333 -23.167 -93.333 -69.5 -138s-93.5 -69 -141.5 -73
c45.333 -13.333 91 -39.333 137 -78c52.667 -44.667 79 -87.334 79 -128.001v-41c0 -26.667 10.333 -47 31 -61c13.333 -8.66699 36.333 -16.667 69 -24c40 -9.33301 60 -22.666 60 -39.999c0 -12.667 -8.33301 -19 -25 -19c-54.667 36 -95.667 54 -123 54l-285 3l-229 -6
c-10.667 -1.33301 -26.667 -2.33301 -48 -3c-17.333 -0.666992 -30.666 -3.33398 -39.999 -8.00098c-2 -1.33301 -11.333 -9.33301 -28 -24c-12 -10.667 -22.667 -16 -32 -16c-15.333 0 -23 7 -23 21c0 14.667 17 28.667 51 42c29.333 11.333 52 17.333 68 18
c26 1.33301 42.667 17 50 47c3.33301 14.667 5 41 5 79v361c0 83.333 -40 125 -120 125c-7.33301 0 -19.333 -0.666992 -36 -2c-6 -0.666992 -12.5 2.33301 -19.5 9s-10.5 13.667 -10.5 21c0 17.333 9.33301 26 28 26c10.667 0 16.334 -1 17.001 -3
c9.33301 -14 28.333 -22 57 -24c16 -0.666992 40 -1.33398 72 -2.00098c86 -3.33301 181 -4.33301 285 -3l284 4c18.667 0 34.5 5.5 47.5 16.5s24.167 16.5 33.5 16.5c16 0 24 -8 24 -24zM567 519.002c0 45.333 -11.001 76.332 -33.001 92.999c-18 13.333 -50.667 20 -98 20
c-0.666992 0 -6.66699 0.333008 -18 1s-19.666 1 -24.999 1c-68 0 -101.667 -24 -101 -72c1.33301 -67.333 1.33301 -134.666 0 -201.999h128c48 0 85.333 16.667 112 50c23.333 28.667 35 65 35 109zM565.999 117.001c0 68 -18.832 120.833 -56.499 158.5
s-90.834 56.5 -159.501 56.5c-26 0 -45 0.666992 -57 2l-1 -176c0 -44.667 5.66699 -75.334 17 -92.001c14.667 -20.667 42.667 -31 84 -31h53c41.333 0 68.333 2.66699 81 8c26 10.667 39 35.334 39 74.001z" />
    <glyph glyph-name="afii10029" unicode="&#x41b;" horiz-adv-x="827" 
d="M1 340c1.33301 4 12.6709 30 34.0039 78c38 85.333 77.667 148.666 119 189.999c54.667 54.667 122 82 202 82c46.667 0 89 -13 127 -39l99 -74c36 -26 70.667 -39 104 -39c20 0 35.667 6.66699 47 20c-22 13.333 -33 26.333 -33 39c0 21.333 11.667 32 35 32
c11.333 0 22.166 -5.66699 32.499 -17s15.5 -23 15.5 -35c0 -40 -17.667 -63 -53 -69c-26.667 -4.66699 -59.667 -10 -99 -16c-35.333 -16 -53 -55 -53 -117v-115v-67c0.666992 -26 1 -42.333 1 -49c0 -44.667 16 -77 48 -97c6.66699 -4 37 -14.333 91 -31
c32 -10 48 -26.333 48 -49c0 -15.333 -8.66699 -23 -26 -23c-10.667 0 -22.667 5.66699 -36 17c-18.667 16.667 -33.667 27.334 -45 32.001c-25.333 11.333 -59 17 -101 17c-40 0 -70.667 -1 -92 -3l-147 -14c-6 -0.666992 -11.667 6.33301 -17 21c-4.66699 12 -7 22 -7 30
c51.333 -5.33301 78.666 -8 81.999 -8c38 0 63.667 15.667 77 47c8.66699 20 13.334 52.667 14.001 98c1.33301 93.333 2 168 2 224c0 1.33301 -0.666992 11.666 -2 30.999c-1.33301 16.667 -2 27 -2 31c-2.66699 58 -10.334 100.333 -23.001 127
c-19.333 40.667 -54.666 61 -105.999 61c-64 0 -112.333 -34.333 -145 -103c-25.333 -53.333 -38 -116 -38 -188c0 -82 13.333 -157 40 -225c20.667 -48.667 36.667 -85 48 -109c21.333 -48.667 32 -85.334 32 -110.001c0 -36.667 -9 -68.667 -27 -96
c-26.667 -40 -63.334 -60 -110.001 -60c-26.667 0 -49.834 7.83301 -69.501 23.5s-29.5 35.834 -29.5 60.501c0 19.333 7.66699 36.5 23 51.5s33.666 24.167 54.999 27.5c-8 -21.333 -12 -34.666 -12 -39.999c0 -17.333 6 -31.5 18 -42.5s27 -16.5 45 -16.5
c20 0 36.667 9.16699 50 27.5s20 38.833 20 61.5c0 40 -26 95.333 -78 166l-117 157c-4.66699 6 -12.667 22.833 -24 50.5s-17 44.167 -17 49.5z" />
    <glyph glyph-name="afii10030" unicode="&#x41c;" horiz-adv-x="937" 
d="M892 357l-35.002 -86.001c-43.333 -108 -105 -185.667 -185 -233c29.333 -3.33301 73.333 -8.66602 132 -15.999c55.333 -8 83 -25.333 83 -52c0 -19.333 -10.667 -29 -32 -29c-20 0 -36.333 7.33301 -49 22c-18 20 -30.667 31.833 -38 35.5s-55 6.16699 -143 7.5
c-64.667 0.666992 -145.667 0.666992 -243 0l-161 -2c-40.667 0 -73 -6.66699 -97 -20c-10.667 -6 -25 -18.333 -43 -37c-12.667 -13.333 -27.334 -20 -44.001 -20c-20.667 0 -31 10 -31 30c0 25.333 28.333 43.333 85 54c28.667 5.33301 71.334 12.666 128.001 21.999
c-11.333 2.66699 -39 31 -83 85c-25.333 30.667 -51.666 67.334 -78.999 110.001c-37.333 58 -56 97.667 -56 119c0 4 11 27.667 33 71c48 94.667 93.333 161.667 136 201c60 56 136 84 228 84h76c74 0 147.333 -26.333 220 -79c68.667 -49.333 120 -109 154 -179
c26.667 -54.667 41.334 -84 44.001 -88zM736.998 338.999c0 59.333 -10.667 119 -32 179c-32 90 -81.333 135 -148 135c-40.667 0 -61 -42 -61 -126v-31c0 -4.66699 0.333008 -9.66699 1 -15v-9l-1 -299c0 -0.666992 -0.333008 -4 -1 -10v-17v-26
c0 -30 6.16699 -51.333 18.5 -64s33.5 -19 63.5 -19c60.667 0 105 42.667 133 128c18 54.667 27 112.667 27 174zM384.998 172.999l1.99902 303.999c0.666992 117.333 -25 176 -77 176c-64.667 0 -108.667 -39.333 -132 -118c-12.667 -43.333 -19.667 -107.333 -21 -192
c-0.666992 -58.667 8 -116.667 26 -174c28 -88 72.667 -132 134 -132c34 0 55 14.667 63 44c2.66699 10.667 4.33398 41.334 5.00098 92.001z" />
    <glyph glyph-name="afii10031" unicode="&#x41d;" horiz-adv-x="823" 
d="M484 0c-53.333 6.66699 -97.668 11.001 -133.001 13.001s-66 3 -92 3c-52 0 -94.167 -4.16699 -126.5 -12.5s-52.166 -21.5 -59.499 -39.5c-2.66699 -8.66699 -13 -13 -31 -13c-16.667 0 -25 9.66699 -25 29c0 14.667 11.667 26.167 35 34.5s55 18.166 95 29.499
c10.667 2.66699 19.5 6 26.5 10s12.833 9 17.5 15s8.16699 13.833 10.5 23.5s4.5 22.167 6.5 37.5l3 305v39c0 34.667 -2 62 -6 82s-12.333 35.5 -25 46.5s-30.667 19.167 -54 24.5s-54 10.666 -92 15.999c-19.333 5.33301 -29 15.666 -29 30.999c0 14.667 8.33301 22 25 22
c4 0 9.66699 -1.33301 17 -4s14.666 -5.5 21.999 -8.5s13.833 -6 19.5 -9s9.16699 -4.5 10.5 -4.5l572 -1h105c30 0 55.333 2 76 6c10.667 6.66699 21.667 11.667 33 15c6 0.666992 16.333 1.66699 31 3c13.333 -4 20 -10.667 20 -20c0 -22 -17.667 -34.667 -53 -38
c-1.33301 0 -34 -2 -98 -6c-32 -5.33301 -52.333 -21 -61 -47c-2.66699 -7.33301 -5 -35.333 -7 -84c-0.666992 -26 -0.666992 -141.333 0 -346c0 -22.667 3.5 -42 10.5 -58s15.5 -28.667 25.5 -38c14.667 -13.333 49.334 -23 104.001 -29
c42.667 -4.66699 64 -18.667 64 -42c0 -12.667 -8 -20 -24 -22c-8 4.66699 -19.5 10.334 -34.5 17.001s-33.833 14.334 -56.5 23.001c-74 6 -132.333 9 -175 9c-11.333 0 -24 -0.333008 -38 -1s-28 -1.5 -42 -2.5s-27 -2.33301 -39 -4s-21.333 -3.16699 -28 -4.5z
M610.998 501.001c0.666992 19.333 0.166992 35.168 -1.5 47.501s-3.16699 22.166 -4.5 29.499c-3.33301 14 -11.333 25.667 -24 35s-27.5 16.5 -44.5 21.5s-34.667 7.83301 -53 8.5s-34.5 -0.333008 -48.5 -3c-72.667 0 -109.667 -40.667 -111 -122l-2 -147l288 1z
M320.998 241.003v-59.999c0 -52 7.5 -88 22.5 -108s39.5 -30 73.5 -30c63.333 -2.66699 111 4.16602 143 20.499s48 46.833 48 91.5l1 152h-288v-66z" />
    <glyph glyph-name="afii10032" unicode="&#x41e;" horiz-adv-x="689" 
d="M651 337c0 -0.666992 -4.16504 -13.334 -12.498 -38.001l-14.5 -43c-20 -73.333 -56.333 -135.666 -109 -186.999c-58.667 -57.333 -123.667 -86 -195 -86c-70.667 0 -131.834 23.333 -183.501 70s-88.834 112.667 -111.501 198c-2 7.33301 -6.66699 21.333 -14 42
c-8.66699 24 -13 38 -13 42s4 15.333 12 34c6.66699 14 14.334 32 23.001 54c26.667 74.667 61.667 134.334 105 179.001c53.333 55.333 114.666 83 183.999 83c68 0 128.333 -24.667 181 -74c50 -46.667 88.667 -112.334 116 -197.001zM497.002 326
c0 101.333 -6.33301 171 -19 209c-25.333 75.333 -77.666 113 -156.999 113c-74.667 0 -124.667 -36.667 -150 -110c-14 -40.667 -21 -109 -21 -205c0 -102 5.33301 -170 16 -204c23.333 -73.333 74.666 -110 153.999 -110c80 0 132.333 36.333 157 109
c13.333 38.667 20 104.667 20 198z" />
    <glyph glyph-name="afii10033" unicode="&#x41f;" horiz-adv-x="827" 
d="M783 340c0 -5.33301 -5.66211 -21.833 -16.9951 -49.5s-19.333 -44.5 -24 -50.5l-117 -157c-52 -70.667 -78 -126 -78 -166c0 -22.667 6.66699 -43.167 20 -61.5s30 -27.5 50 -27.5c18 0 33 5.5 45 16.5s18 25.167 18 42.5c0 5.33301 -4 18.666 -12 39.999
c21.333 -3.33301 39.666 -12.5 54.999 -27.5s23 -32.167 23 -51.5c0 -24.667 -9.83301 -44.834 -29.5 -60.501s-42.834 -23.5 -69.501 -23.5c-46.667 0 -83.334 20 -110.001 60c-18 27.333 -27 59.333 -27 96c0 24.667 10.667 61.334 32 110.001
c11.333 24 27.333 60.333 48 109c26.667 68 40 143 40 225c0 72 -12.667 134.667 -38 188c-32.667 68.667 -81 103 -145 103c-51.333 0 -86.666 -20.333 -105.999 -61c-12.667 -26.667 -20.334 -69 -23.001 -127c0 -4 -0.666992 -14.333 -2 -31
c-1.33301 -19.333 -2 -29.666 -2 -30.999c0 -56 0.666992 -130.667 2 -224c0.666992 -45.333 5.33398 -78 14.001 -98c13.333 -31.333 39 -47 77 -47c3.33301 0 30.666 2.66699 81.999 8c0 -8 -2.33301 -18 -7 -30c-5.33301 -14.667 -11 -21.667 -17 -21l-147 14
c-21.333 2 -52 3 -92 3c-42 0 -75.667 -5.66699 -101 -17c-11.333 -4.66699 -26.333 -15.334 -45 -32.001c-13.333 -11.333 -25.333 -17 -36 -17c-17.333 0 -26 7.66699 -26 23c0 22.667 16 39 48 49c54 16.667 84.333 27 91 31c32 20 48 52.333 48 97
c0 6.66699 0.333008 23 1 49v67v115c0 62 -17.667 101 -53 117c-39.333 6 -72.333 11.333 -99 16c-35.333 6 -53 29 -53 69c0 12 5.16699 23.667 15.5 35s21.166 17 32.499 17c23.333 0 35 -10.667 35 -32c0 -12.667 -11 -25.667 -33 -39c11.333 -13.333 27 -20 47 -20
c33.333 0 68 13 104 39l99 74c38 26 80.333 39 127 39c80 0 147.333 -27.333 202 -82c41.333 -41.333 81 -104.666 119 -189.999c21.333 -48 32.666 -74 33.999 -78z" />
    <glyph glyph-name="afii10034" unicode="&#x420;" horiz-adv-x="791" 
d="M763 448c-10 -11.333 -22.6729 -32.665 -38.0059 -63.998c-12 -48.667 -43 -87.667 -93 -117c-44.667 -26.667 -93.667 -40 -147 -40c-40.667 0 -74.667 14.167 -102 42.5s-41 63.166 -41 104.499c0 32.667 12 60.5 36 83.5s52.333 34.5 85 34.5
c26.667 0 49.834 -8.16699 69.501 -24.5s29.5 -36.5 29.5 -60.5c0 -18.667 -9.16699 -34.834 -27.5 -48.501s-37.166 -20.5 -56.499 -20.5c-15.333 0 -27.666 3.66699 -36.999 11c2 6 9.66699 11.333 23 16c10 3.33301 15 15.333 15 36c0 30.667 -17 46 -51 46
c-16 0 -28.833 -7.16699 -38.5 -21.5s-14.5 -31.166 -14.5 -50.499c0 -34.667 10.833 -62.834 32.5 -84.501s49.834 -32.5 84.501 -32.5c42.667 0 74.334 18.333 95.001 55c17.333 30.667 26 68.667 26 114c0 66 -7 115.667 -21 149c-21.333 50.667 -60.666 76 -117.999 76
c-112 0 -168 -75.667 -168 -227v-275c0 -42 10.333 -70.667 31 -86c17.333 -14 47.666 -21 90.999 -21c79.333 0 162 15.667 248 47c-8.66699 -30.667 -22 -64.334 -40 -101.001c-104 17.333 -227.667 26 -371 26c-96 0 -153.333 -7.33301 -172 -22
c-2 -0.666992 -11.333 -11.667 -28 -33c-11.333 -14 -23 -21 -35 -21c-17.333 0 -26 9.33301 -26 28c0 30.667 16.667 49.334 50 56.001c54 11.333 85.333 20 94 26c33.333 23.333 50 68.333 50 135v136c0 100.667 -20.333 151 -61 151c-4 0 -13.167 -0.833008 -27.5 -2.5
s-23.833 -2.5 -28.5 -2.5c-21.333 0 -39.333 5.66699 -54 17c-16.667 12 -25 28.333 -25 49c0 28 12.333 42 37 42c23.333 0 35 -9 35 -27c0 -2.66699 -0.5 -8.16699 -1.5 -16.5s-1.5 -13.5 -1.5 -15.5c0 -12 6.33301 -18 19 -18c35.333 0 73.333 16.333 114 49
c24.667 20.667 62.334 50.667 113.001 90c45.333 32.667 97.333 49 156 49c57.333 0 107.333 -17.333 150 -52c32.667 -26 66.667 -67.667 102 -125c8 -25.333 20.667 -45.333 38 -60z" />
    <glyph glyph-name="afii10035" unicode="&#x421;" horiz-adv-x="645" 
d="M614 700c-8 -16.667 -15.999 -44.335 -23.999 -83.002c-12.667 -60 -19 -123 -19 -189v-139c0 -76 13 -172.667 39 -290c-8 6 -32 39 -72 99c-6 -6.66699 -17.667 -19 -35 -37c-32.667 -31.333 -61.667 -52.333 -87 -63c-22 -9.33301 -54.667 -14 -98 -14
c-134.667 0 -229.334 91.333 -284.001 274c-1.33301 5.33301 -7.5 18 -18.5 38s-16.5 31.333 -16.5 34c0.666992 2 5.66699 12.667 15 32c5.33301 10.667 12 27 20 49c36 142 104 231.333 204 268l74 18c74 -5.33301 144.667 -34.666 212 -87.999
c3.33301 2.66699 8.66602 8.33398 15.999 17.001c34.667 41.333 59.334 66 74.001 74zM532.001 279.999l0.000976562 72c0 57.333 -16.333 117.333 -49 180c-43.333 83.333 -99 125 -167 125c-70.667 0 -118 -42.333 -142 -127c-12 -42.667 -18 -105 -18 -187
c0 -215.333 56.667 -323 170 -323c71.333 0 125.666 31.333 162.999 94c28.667 48 43 103.333 43 166z" />
    <glyph glyph-name="afii10036" unicode="&#x422;" horiz-adv-x="707" 
d="M667 230c-10 -15.333 -20.998 -33.9971 -32.998 -55.9971c-25.333 -69.333 -63.666 -119 -114.999 -149c-46.667 -26.667 -108.667 -40 -186 -40c-59.333 0 -112.333 12.333 -159 37c-51.333 26.667 -89.333 65 -114 115c-20 41.333 -40.333 76.666 -61 105.999
c14 15.333 32.333 53 55 113c17.333 46 49.666 90 96.999 132s94.666 67.667 141.999 77l21 6c0 3.33301 -1.66699 5.66602 -5 6.99902c-80.667 46 -144 69 -190 69c-20.667 0 -40.334 -5.33301 -59.001 -16c-22.667 -12.667 -34 -28.334 -34 -47.001
c0 -26 13.333 -39 40 -39s40 11.333 40 34c0 2 -0.666992 6 -2 12c-0.666992 3.33301 0.333008 7.33301 3 12c22 -8 33 -27.667 33 -59c0 -13.333 -6.83301 -25.333 -20.5 -36s-27.5 -16 -41.5 -16c-22.667 0 -41.5 7.5 -56.5 22.5s-22.5 34.167 -22.5 57.5
c0 76.667 56.667 115 170 115c40.667 0 79.334 -7 116.001 -21c25.333 20 44.666 29.667 57.999 29c30 -1.33301 70 -22.166 120 -62.499s84.667 -60.5 104 -60.5c17.333 0 32.666 5.16699 45.999 15.5s20 23.166 20 38.499c0 6.66699 -2.33301 12.667 -7 18
c-19.333 -19.333 -34.333 -29 -45 -29c-26.667 0 -40 12.333 -40 37c0 11.333 5.16699 22.166 15.5 32.499s20.833 15.5 31.5 15.5c44 0 66 -25.667 66 -77c0 -39.333 -22 -67 -66 -83c-23.333 -8.66699 -48.333 -12.334 -75 -11.001c-15.333 0.666992 -40.333 4 -75 10
c-32 5.33301 -56.667 8 -74 8c-34 0 -68.667 -8.33301 -104 -25c-42.667 -20 -72 -49.333 -88 -88c-13.333 -30.667 -20 -72.667 -20 -126c0 -136 24 -223 72 -261c26 -20.667 63.667 -31 113 -31c66.667 0 115 16.667 145 50c28 31.333 42 80.666 42 147.999
c0 52.667 -8.66699 95.667 -26 129c-22 43.333 -57 65 -105 65c-28.667 0 -51.5 -8.16699 -68.5 -24.5s-25.5 -38.833 -25.5 -67.5c0 -21.333 8.16699 -39.666 24.5 -54.999s35.5 -23 57.5 -23c12.667 0 25 4.33301 37 13c1.33301 0.666992 11 9.33398 29 26.001
c2.66699 0 8.33398 -3 17.001 -9c-26 -26 -45 -45.667 -57 -59c-24.667 -27.333 -40 -48.333 -46 -63c-0.666992 0 -7 1 -19 3c-29.333 0 -55.5 14 -78.5 42s-34.5 56.667 -34.5 86c0 50 18 89.667 54 119c33.333 28 75.333 42 126 42c47.333 0 91 -14.167 131 -42.5
s71.333 -66.833 94 -115.5c0.666992 -1.33301 7 -9.66602 19 -24.999c9.33301 -12 14 -20.333 14 -25z" />
    <glyph glyph-name="afii10037" unicode="&#x423;" horiz-adv-x="838" 
d="M822 678c0 -16.667 -14.3311 -27.998 -42.998 -33.998c-22 -2 -43.667 -4.33301 -65 -7c-25.333 -7.33301 -38 -22 -38 -44c0 -3.33301 3.66699 -24 11 -62c11.333 -59.333 17 -105.666 17 -138.999c0 -90.667 -32.667 -168.667 -98 -234
c-26.667 -26.667 -87.334 -68.334 -182.001 -125.001c-65.333 -39.333 -98 -74 -98 -104c0 -44.667 30.667 -67 92 -67c20 0 37.667 6.16699 53 18.5s23 27.5 23 45.5c0 10.667 -1.33301 18.334 -4 23.001c-4.66699 8 -7.33398 14 -8.00098 18c22 0 41.5 -8 58.5 -24
s25.5 -35 25.5 -57c0 -34.667 -12.833 -62.167 -38.5 -82.5s-57.5 -30.5 -95.5 -30.5c-41.333 0 -77.333 12 -108 36c-33.333 26 -50 59 -50 99c0 25.333 13 54.166 39 86.499s39 52.166 39 59.499c0 23.333 -40.333 152.333 -121 387
c-21.333 61.333 -34.333 97.666 -39 108.999c-22 50 -43.667 78.667 -65 86c-30 4.66699 -54.667 9 -74 13c-34.667 6.66699 -52 18.667 -52 36c0 12.667 8.33301 19 25 19c4 0 14 -5 30 -15s30.333 -15 43 -15h604c18 0 36.833 5 56.5 15s33.167 15 40.5 15
c6 0 11.167 -2.83301 15.5 -8.5s6.5 -11.5 6.5 -17.5zM609.002 332.002c0 44.667 -9.33496 96.665 -28.002 155.998c-17.333 55.333 -35.666 93.333 -54.999 114c-26 28 -64 42 -114 42c-21.333 0 -40 -4.33301 -56 -13c-20 -10.667 -30 -26 -30 -46c0 -22 19 -107 57 -255
c38.667 -150 63 -232.667 73 -248c44.667 22.667 81.334 57.334 110.001 104.001s43 95.334 43 146.001z" />
    <glyph glyph-name="afii10038" unicode="&#x424;" horiz-adv-x="1048" 
d="M791 661c0 -22 -17.6602 -34.6729 -52.9932 -38.0059c-1.33301 0 -34 -2 -98 -6c-32 -5.33301 -52.333 -21 -61 -47c-2.66699 -7.33301 -5 -31 -7 -71c10.667 8.66699 26.667 17.334 48 26.001s45.333 15.5 72 20.5s54.834 7.66699 84.501 8s58.167 -3 85.5 -10
s52.166 -18.333 74.499 -34s39.166 -37.167 50.499 -64.5c8 -26 20.667 -47.333 38 -64c-10 -12 -22.667 -35 -38 -69c-6 -25.333 -16.667 -48.166 -32 -68.499s-33.833 -38 -55.5 -53s-45.667 -26.5 -72 -34.5s-53.5 -12 -81.5 -12c-20.667 0 -39.834 4.16699 -57.501 12.5
s-32.834 19.666 -45.501 33.999s-22.5 31 -29.5 50s-10.5 39.167 -10.5 60.5c0 17.333 3.33301 33.666 10 48.999s15.5 28.833 26.5 40.5s23.833 20.834 38.5 27.501s30 10 46 10c13.333 0 26 -2.33301 38 -7s22.5 -11.167 31.5 -19.5s16.167 -18 21.5 -29
s8 -22.833 8 -35.5c0 -10 -2.66699 -19.5 -8 -28.5s-12 -16.833 -20 -23.5s-17 -12 -27 -16s-19.667 -6 -29 -6c-16 0 -28.333 4 -37 12c0.666992 4 3.16699 6.66699 7.5 8s8.66602 3.5 12.999 6.5s8.33301 7.5 12 13.5s5.5 15 5.5 27c0 32.667 -17 49 -51 49
c-16 0 -28.833 -7.5 -38.5 -22.5s-14.5 -33.167 -14.5 -54.5c0 -36.667 10.833 -66.667 32.5 -90s49.834 -35 84.501 -35c20 0 37.5 4.5 52.5 13.5s27.667 21.5 38 37.5s18.166 35 23.499 57s8 46.333 8 73c0 39.333 -11 70.833 -33 94.5s-48.833 39 -80.5 46
s-64.834 5.5 -99.501 -4.5s-65 -28.333 -91 -55v-59c0 -29.333 0.166992 -63.833 0.5 -103.5s0.5 -85.167 0.5 -136.5c0 -22.667 3.5 -42 10.5 -58s15.5 -28.667 25.5 -38c14.667 -13.333 49.334 -23 104.001 -29c42.667 -4.66699 64 -18.667 64 -42
c0 -12.667 -8 -20 -24 -22c-8 4.66699 -19.5 10.334 -34.5 17.001s-33.833 14.334 -56.5 23.001c-74 6 -132.333 9 -175 9c-30 0 -55.667 -1.83301 -77 -5.5s-39.666 -8.16699 -54.999 -13.5s-28.5 -10.666 -39.5 -15.999s-21.5 -9.66602 -31.5 -12.999
c-1.33301 0 -2.33301 -0.166992 -3 -0.5s-1.66699 -0.5 -3 -0.5c-13.333 0 -20 10 -20 30c0 16 17 28 51 36l102 24c6.66699 1.33301 13.167 5.5 19.5 12.5s12 15.5 17 25.5s9 20.667 12 32s4.5 22 4.5 32l2 293c-16.667 18.667 -36 33.667 -58 45s-44.333 18.5 -67 21.5
s-45 2.33301 -67 -2s-41.5 -12.5 -58.5 -24.5s-30.833 -27.667 -41.5 -47s-16 -42.333 -16 -69s2.66699 -51 8 -73s13.166 -41 23.499 -57s23 -28.5 38 -37.5s32.5 -13.5 52.5 -13.5c34.667 0 62.834 11.667 84.501 35s32.5 53.666 32.5 90.999
c0 20.667 -4.83301 38.667 -14.5 54s-22.5 23 -38.5 23c-34 0 -51 -16.667 -51 -50c0 -12 1.83301 -21 5.5 -27s7.66699 -10.5 12 -13.5s8.5 -5.16699 12.5 -6.5s6.66699 -4 8 -8c-9.33301 -8 -21.666 -12 -36.999 -12c-9.33301 0 -19 2 -29 6s-19 9.33301 -27 16
s-14.667 14.5 -20 23.5s-8 18.5 -8 28.5c0 12.667 2.66699 24.5 8 35.5s12.5 20.667 21.5 29s19.5 14.833 31.5 19.5s24.667 7 38 7c16 0 31.333 -3.33301 46 -10s27.5 -15.834 38.5 -27.501s19.833 -25.167 26.5 -40.5s10 -31.666 10 -48.999
c0 -21.333 -3.5 -41.5 -10.5 -60.5s-16.833 -35.667 -29.5 -50s-27.834 -25.666 -45.501 -33.999s-36.834 -12.5 -57.501 -12.5c-28 0 -55.167 4.16699 -81.5 12.5s-50.333 19.833 -72 34.5s-40.167 32.334 -55.5 53.001s-26 43.334 -32 68.001c-15.333 34 -28 57 -38 69
c17.333 16.667 30 38 38 64c12 28 29.333 50 52 66s48.167 27.333 76.5 34s57.666 9.5 87.999 8.5s59 -4.33301 86 -10s51 -12.834 72 -21.501s35.833 -17.667 44.5 -27l2 -11v21c0 18 -1 33 -3 45s-5.33301 21.833 -10 29.5s-10.834 13.667 -18.501 18
s-17.167 7.83301 -28.5 10.5l-97 12c-35.333 4 -53 17 -53 39c0 15.333 9.33301 23 28 23c12.667 0 23.167 -2 31.5 -6s14.833 -9 19.5 -15c52 -8 115.667 -12 191 -12c79.333 0 139.666 4 180.999 12c10 6.66699 18.833 11 26.5 13s20.167 3.66699 37.5 5
c13.333 -4 20 -10.667 20 -20z" />
    <glyph glyph-name="afii10039" unicode="&#x425;" horiz-adv-x="878" 
d="M868 -22c0 -6.66699 -2.99805 -13.0029 -8.99805 -19.0029s-12.667 -9 -20 -9c-5.33301 0 -18.833 9.33301 -40.5 28s-45.834 28 -72.501 28h-560c-29.333 0 -55.333 -8 -78 -24s-37 -24 -43 -24c-7.33301 0 -14 2.83301 -20 8.5s-9 12.167 -9 19.5
c0 17.333 22.333 31.666 67 42.999c48.667 12.667 76 27.334 82 44.001c5.33301 14.667 11.333 43.334 18 86.001c5.33301 36.667 13.333 64.334 24 83.001c16 28 42 54 78 78c12.667 8 38 19 76 33l-42 65l-77 120c-42 60.667 -73.667 94.334 -95 101.001
c-9.33301 3.33301 -26.333 6 -51 8c-60 5.33301 -90 19.666 -90 42.999c0 20 10.667 30 32 30c12.667 0 26.667 -10.333 42 -31c3.33301 -3.33301 13.166 -6.66602 29.499 -9.99902s27.833 -5 34.5 -5h569c31.333 0 53.666 2.66699 66.999 8
c3.33301 1.33301 9.33301 6.66602 18 15.999s18.334 14 29.001 14c19.333 0 29 -8 29 -24c0 -30 -31.333 -45 -94 -45h-19c-13.333 3.33301 -26.5 -0.166992 -39.5 -10.5s-19.5 -22.166 -19.5 -35.499c0 -5.33301 1 -17.5 3 -36.5s3 -31.5 3 -37.5
c0 -68 -30.333 -114.333 -91 -139c-48 -13.333 -84 -23.666 -108 -30.999c10 -16.667 31.333 -49.334 64 -98.001l73 -117c29.333 -45.333 62.666 -75 99.999 -89c18.667 -4.66699 46.334 -12 83.001 -22c38 -12 57 -28.333 57 -49zM589.002 494.997
c0 28.667 -5.66895 56.667 -17.002 84c-13.333 33.333 -31.666 53.333 -54.999 60c-14 4 -32.667 6 -56 6c-66 0 -99 -18.667 -99 -56c0 -8.66699 2.33301 -18.667 7 -30c6.66699 -15.333 41.334 -74.333 104.001 -177c9.33301 1.33301 18.333 3 27 5
c59.333 13.333 89 49.333 89 108zM513 77.9971c0 14 -46.334 96.667 -139.001 248c-3.33301 -2 -12.666 -6.33301 -27.999 -13c-51.333 -30.667 -77 -71 -77 -121c0 -4.66699 0.666992 -11.667 2 -21c11.333 -79.333 37 -122.333 77 -129c19.333 -3.33301 49.333 -5 90 -5
c50 0 75 13.667 75 41z" />
    <glyph glyph-name="afii10040" unicode="&#x426;" horiz-adv-x="816" 
d="M653 -15c-33.333 0 -60.3311 11.0029 -80.998 33.0029c-17.333 16.667 -36.333 48.667 -57 96c-0.666992 0 -2.33398 -1.33301 -5.00098 -4c-43.333 -80 -106.333 -120 -189 -120c-130 0 -224 83.667 -282 251l-6 14.5c-2.66699 6.33301 -6.33398 14.166 -11.001 23.499
c-8 16.667 -12 25.667 -12 27c0 2.66699 5.33301 11.667 16 27c1.33301 2.66699 4 7 8 13s8.66699 13.667 14 23c36 74.667 63 125.667 81 153c35.333 51.333 80 88 134 110h-160c-19.333 -2 -40.333 1 -63 9c-28 10 -42 22.667 -42 38c0 14.667 1.33301 23.667 4 27
c6 9.33301 19.667 14 41 14c7.33301 0 19.333 -7.33301 36 -22c16.667 -14 33.334 -21 50.001 -21c-2.66699 0 -1.66699 0 3 0s12.667 -0.333008 24 -1h44.5c16.333 0 34.166 -0.333008 53.499 -1l228 -2c138.667 0 213.667 3 225 9l12.5 10.5l18.5 16.5c6 4 14.667 6 26 6
c15.333 0 23 -9 23 -27c0 -6.66699 -3.5 -14.334 -10.5 -23.001s-13.5 -13 -19.5 -13c-116 -4 -174 -39 -174 -105l-1 -367c0 -45.333 2 -76.333 6 -93c10.667 -46 34 -69 70 -69c26.667 0 46.667 27 60 81c-2 36 -14.667 54 -38 54c0.666992 0 -5 -2.66699 -17 -8
c-10 -4.66699 -18 -7 -24 -7c-6.66699 0 -9.33398 5 -8.00098 15c2.66699 19.333 9.83398 33.5 21.501 42.5s24.5 13.667 38.5 14s28.167 -3 42.5 -10s26.166 -17.167 35.499 -30.5c14.667 -26.667 24.5 -53.5 29.5 -80.5s6.16699 -53.333 3.5 -79
s-8.5 -49.834 -17.5 -72.501s-19.833 -42.834 -32.5 -60.501s-26.5 -32.334 -41.5 -44.001s-29.833 -18.834 -44.5 -21.501c-12 -2.66699 -24.167 -5.16699 -36.5 -7.5s-25.166 -3.16602 -38.499 -2.49902c-7.33301 0.666992 -17.333 1.66699 -30 3
s-27.667 3.66602 -45 6.99902c-16 2.66699 -30.167 6.83398 -42.5 12.501s-22.833 8.5 -31.5 8.5l-72 32c-20 11.333 -38.167 20.666 -54.5 27.999s-31.333 13 -45 17s-26.5 6.66699 -38.5 8s-23.667 2 -35 2c-20.667 0 -40.334 -5.33301 -59.001 -16
c-22.667 -12.667 -34 -28.334 -34 -47.001c0 -26 13.333 -39 40 -39s40 11.333 40 34c0 1.33301 -0.166992 2.83301 -0.5 4.5l-1.5 7.5c-1.33301 2.66699 -0.333008 6.66699 3 12c22 -8 33 -27.667 33 -59c0 -6.66699 -2 -13.167 -6 -19.5s-9 -11.833 -15 -16.5
s-12.667 -8.5 -20 -11.5s-14.333 -4.5 -21 -4.5c-22.667 0 -41.5 7.5 -56.5 22.5s-22.5 34.167 -22.5 57.5c0 76.667 56.667 115 170 115c40 0 78.667 -7 116 -21c25.333 20.667 44.666 30.334 57.999 29.001c29.333 -0.666992 69.333 -21.334 120 -62.001
c30 -24.667 59.333 -37.667 88 -39s53.834 6.33398 75.501 23.001s38.834 40.834 51.501 72.501s18 68.167 16 109.5c-3.33301 -5.33301 -7.83301 -13.166 -13.5 -23.499s-11.167 -18.166 -16.5 -23.499c-28 -26 -57.667 -39 -89 -39zM469.002 542.003
c0.666992 62.667 -28.998 94 -88.998 94c-72.667 0 -129.334 -37.333 -170.001 -112c-32.667 -59.333 -49 -129.333 -49 -210c0 -62 10.333 -118.667 31 -170c29.333 -73.333 71.333 -110 126 -110c99.333 0 149.333 48.333 150 145
c-0.666992 34.667 -0.833984 82 -0.500977 142s0.833008 133.667 1.5 221z" />
    <glyph glyph-name="afii10041" unicode="&#x427;" horiz-adv-x="816" 
d="M476 538c0 16 -2.99805 29.832 -8.99805 41.499s-14.167 21.334 -24.5 29.001s-22.333 13.5 -36 17.5s-27.834 6 -42.501 6c-42 0 -79 -13.333 -111 -40s-57.333 -62.667 -76 -108c-6.66699 -34 -8.16699 -68.833 -4.5 -104.5s11.667 -68 24 -97
s28.666 -52.667 48.999 -71s43.5 -26.833 69.5 -25.5c50 2 89.833 14.5 119.5 37.5s44.5 58.833 44.5 107.5zM43.002 357.999l-6 14.5c-2.66699 6.33301 -6.33398 14.166 -11.001 23.499c-8 16.667 -12 25.667 -12 27c0 2.66699 5.33301 11.667 16 27
c1.33301 2.66699 4 7 8 13s8.66699 13.667 14 23c14.667 34 36.5 63.833 65.5 89.5s61.5 43.167 97.5 52.5h-143c-1.33301 -0.666992 -5.83301 -1 -13.5 -1h-15.5c-11.333 0 -22.666 1.5 -33.999 4.5s-21.333 6.66699 -30 11s-15.667 9.33301 -21 15s-8 11.5 -8 17.5
c0 17.333 3.16699 28.5 9.5 33.5s18.166 7.5 35.499 7.5c2.66699 0 7.33398 -2.16699 14.001 -6.5l22 -15c8 -5.66699 16.5 -10.667 25.5 -15s17.167 -6.5 24.5 -6.5h-1h402h98c26 0 47.333 0.5 64 1.5s29.667 2.16699 39 3.5s16.833 3.33301 22.5 6s10.834 6 15.501 10
l17 15c6 4 14.667 6 26 6c15.333 0 23 -9 23 -27c0 -6.66699 -3.5 -14.334 -10.5 -23.001s-13.5 -13 -19.5 -13c-116 -4 -174 -39 -174 -105l-1 -367c0 -30.667 1.5 -56.334 4.5 -77.001s7.5 -37.167 13.5 -49.5s13.833 -21.166 23.5 -26.499s21.167 -8.33301 34.5 -9
c14 -0.666992 26.333 6 37 20s17.834 29.5 21.501 46.5s3 32.667 -2 47s-16.5 21.5 -34.5 21.5c0.666992 0 -0.833008 -0.833008 -4.5 -2.5s-7.83398 -3.33398 -12.501 -5.00098l-14 -5c-4.66699 -1.66699 -8 -2.5 -10 -2.5c-5.33301 0 -8 3.66699 -8 11
c0 25.333 6.16699 41.5 18.5 48.5s29.833 10.5 52.5 10.5c25.333 0 45.5 -9.5 60.5 -28.5s22.5 -42.5 22.5 -70.5c0 -15.333 -3.5 -30.166 -10.5 -44.499s-16.5 -27.333 -28.5 -39s-26 -21.167 -42 -28.5s-33 -11.333 -51 -12c-22 -1.33301 -43.167 3.66699 -63.5 15
s-38.5 27.833 -54.5 49.5s-28.833 47.834 -38.5 78.501s-14.5 65 -14.5 103l-36 -38c-10.667 -11.333 -22 -20.666 -34 -27.999s-25.5 -13 -40.5 -17s-32.833 -6 -53.5 -6c-28.667 0 -57.334 3.66699 -86.001 11s-55.5 19.5 -80.5 36.5s-47 39.167 -66 66.5
s-33.167 61.333 -42.5 102z" />
    <glyph glyph-name="afii10042" unicode="&#x428;" horiz-adv-x="1207" 
d="M370 2c-130 0 -223.999 83.6689 -281.999 251.002l-6 14.5c-2.66699 6.33301 -6.33398 14.166 -11.001 23.499c-8 16.667 -12 25.667 -12 27c0 2.66699 5.33301 11.667 16 27c1.33301 2.66699 4 7 8 13s8.66699 13.667 14 23c36 74.667 63 125.667 81 153
c35.333 51.333 80 88 134 110h-160c-19.333 -2 -40.333 1 -63 9c-28 10 -42 22.667 -42 38c0 14.667 1.33301 23.667 4 27c6 9.33301 19.667 14 41 14c7.33301 0 19.333 -7.33301 36 -22c16.667 -14 33.334 -21 50.001 -21c-2.66699 0 -1.66699 0 3 0
s12.667 -0.333008 24 -1h44.5c16.333 0 34.166 -0.333008 53.499 -1c101.333 0.666992 181.5 1.16699 240.5 1.5s98.167 0.166016 117.5 -0.500977l228 -2c138.667 0 213.667 3 225 9l12.5 10.5l18.5 16.5c6 4 14.667 6 26 6c15.333 0 23 -9 23 -27
c0 -6.66699 -3.5 -14.334 -10.5 -23.001s-13.5 -13 -19.5 -13c-116 -4 -174 -39 -174 -105l-1 -367c0 -45.333 2 -76.333 6 -93c10.667 -46 34 -69 70 -69c26.667 0 46.667 27 60 81c-2 36 -14.667 54 -38 54c0.666992 0 -5 -2.66699 -17 -8c-10 -4.66699 -18 -7 -24 -7
c-6.66699 0 -9.33398 5 -8.00098 15c4 26.667 13 43.334 27 50.001c8.66699 3.33301 23.334 5 44.001 5c26.667 0 47.334 -10.333 62.001 -31c14 -18 21 -40.667 21 -68c0 -30.667 -14.333 -59 -43 -85c-28 -26 -57.667 -39 -89 -39c-33.333 0 -60.333 11 -81 33
c-17.333 16.667 -36.333 48.667 -57 96c-0.666992 0 -2.33398 -1.33301 -5.00098 -4c-43.333 -80 -106.333 -120 -189 -120c-76 0 -139.333 28 -190 84c-44 -56.667 -100 -85 -168 -85zM876.001 555.002c0.666992 62.667 -28.998 94 -88.998 94
c-72.667 0 -129.334 -37.333 -170.001 -112c-32.667 -59.333 -49 -129.333 -49 -210c0 -62 10.333 -118.667 31 -170c29.333 -73.333 71.333 -110 126 -110c99.333 0 149.333 48.333 150 145c-0.666992 34.667 -0.833984 82 -0.500977 142s0.833008 133.667 1.5 221z
M416.003 648.002c-64 0 -116.331 -37.332 -156.998 -111.999c-32.667 -59.333 -49 -129.333 -49 -210c0 -62 10.333 -118.667 31 -170c29.333 -73.333 71.333 -110 126 -110c70.667 0 117.667 26.667 141 80c-24.667 35.333 -45.334 78 -62.001 128l-6 14.5
c-2.66699 6.33301 -6.33398 14.166 -11.001 23.499c-8 16.667 -12 25.667 -12 27c0 2.66699 5.33301 11.667 16 27c1.33301 2.66699 4 7 8 13s8.66699 13.667 14 23c36 74.667 63 125.667 81 153c35.333 51.333 80 88 134 110z" />
    <glyph glyph-name="afii10043" unicode="&#x429;" horiz-adv-x="1207" 
d="M370 2c-130 0 -223.998 83.667 -281.998 251l-6 14.5c-2.66699 6.33301 -6.33398 14.166 -11.001 23.499c-8 16.667 -12 25.667 -12 27c0 2.66699 5.33301 11.667 16 27c1.33301 2.66699 4 7 8 13s8.66699 13.667 14 23c36 74.667 63 125.667 81 153
c35.333 51.333 80 88 134 110h-160c-19.333 -2 -40.333 1 -63 9c-28 10 -42 22.667 -42 38c0 14.667 1.33301 23.667 4 27c6 9.33301 19.667 14 41 14c7.33301 0 19.333 -7.33301 36 -22c16.667 -14 33.334 -21 50.001 -21c-2.66699 0 -1.66699 0 3 0
s12.667 -0.333008 24 -1h44.5c16.333 0 34.166 -0.333008 53.499 -1c101.333 0.666992 181.5 1.16699 240.5 1.5s98.167 0.166016 117.5 -0.500977l228 -2c138.667 0 213.667 3 225 9l12.5 10.5l18.5 16.5c6 4 14.667 6 26 6c15.333 0 23 -9 23 -27
c0 -6.66699 -3.5 -14.334 -10.5 -23.001s-13.5 -13 -19.5 -13c-116 -4 -174 -39 -174 -105l-1 -367c0 -45.333 2 -76.333 6 -93c10.667 -46 34 -69 70 -69c26.667 0 46.667 27 60 81c-2 36 -14.667 54 -38 54c0.666992 0 -5 -2.66699 -17 -8c-10 -4.66699 -18 -7 -24 -7
c-6.66699 0 -9.33398 5 -8.00098 15c2.66699 19.333 9.83398 33.5 21.501 42.5s24.5 13.667 38.5 14s28.167 -3 42.5 -10s26.166 -17.167 35.499 -30.5c22.667 -39.333 34.167 -79.166 34.5 -119.499s-6 -77.333 -19 -111s-30.5 -62 -52.5 -85s-44 -37.167 -66 -42.5
c-12 -3.33301 -24.167 -6 -36.5 -8s-25.166 -2.66699 -38.499 -2c-7.33301 0.666992 -17.333 1.66699 -30 3s-27.667 3.66602 -45 6.99902c-16 2.66699 -30.167 6.83398 -42.5 12.501s-22.833 8.5 -31.5 8.5l-72 32c-20 11.333 -38.167 20.666 -54.5 27.999
s-31.333 13 -45 17s-26.5 6.66699 -38.5 8s-23.667 2 -35 2c-20.667 0 -40.334 -5.33301 -59.001 -16c-22.667 -12.667 -34 -28.334 -34 -47.001c0 -26 13.333 -39 40 -39s40 11.333 40 34c0 1.33301 -0.166992 2.83301 -0.5 4.5l-1.5 7.5
c-1.33301 2.66699 -0.333008 6.66699 3 12c22 -8 33 -27.667 33 -59c0 -6.66699 -2 -13.167 -6 -19.5s-9 -11.833 -15 -16.5s-12.667 -8.5 -20 -11.5s-14.333 -4.5 -21 -4.5c-22.667 0 -41.5 7.5 -56.5 22.5s-22.5 34.167 -22.5 57.5c0 76.667 56.667 115 170 115
c40 0 78.667 -7 116 -21c25.333 20.667 44.666 30.334 57.999 29.001c29.333 -0.666992 69.333 -21.334 120 -62.001c30 -24.667 59.333 -37.667 88 -39s53.834 6.33398 75.501 23.001s38.834 40.834 51.501 72.501s18 68.167 16 109.5
c-3.33301 -5.33301 -7.83301 -13.166 -13.5 -23.499s-11.167 -18.166 -16.5 -23.499c-28 -26 -57.667 -39 -89 -39c-33.333 0 -60.333 11 -81 33c-17.333 16.667 -36.333 48.667 -57 96c-0.666992 0 -2.33398 -1.33301 -5.00098 -4c-43.333 -80 -106.333 -120 -189 -120
c-76 0 -139.333 28 -190 84c-44 -56.667 -100 -85 -168 -85zM876.002 555c0.666992 62.667 -28.998 94 -88.998 94c-72.667 0 -129.334 -37.333 -170.001 -112c-32.667 -59.333 -49 -129.333 -49 -210c0 -62 10.333 -118.667 31 -170c29.333 -73.333 71.333 -110 126 -110
c99.333 0 149.333 48.333 150 145c-0.666992 34.667 -0.833984 82 -0.500977 142s0.833008 133.667 1.5 221zM416.004 648c-64 0 -116.331 -37.332 -156.998 -111.999c-32.667 -59.333 -49 -129.333 -49 -210c0 -62 10.333 -118.667 31 -170
c29.333 -73.333 71.333 -110 126 -110c70.667 0 117.667 26.667 141 80c-24.667 35.333 -45.334 78 -62.001 128l-6 14.5c-2.66699 6.33301 -6.33398 14.166 -11.001 23.499c-8 16.667 -12 25.667 -12 27c0 2.66699 5.33301 11.667 16 27c1.33301 2.66699 4 7 8 13
s8.66699 13.667 14 23c36 74.667 63 125.667 81 153c35.333 51.333 80 88 134 110z" />
    <glyph glyph-name="afii10044" unicode="&#x42a;" horiz-adv-x="879" 
d="M361 643c79.333 0 139.667 3.99805 181 11.998c10.667 6.66699 21.667 11.667 33 15c6 0.666992 16.333 1.66699 31 3c13.333 -4 20 -10.667 20 -20c0 -22 -17.667 -34.667 -53 -38c-1.33301 0 -34 -2 -98 -6c-32 -5.33301 -52.333 -21 -61 -47
c-1.33301 -4 -2.66602 -12.833 -3.99902 -26.5s-2.66602 -32.167 -3.99902 -55.5v-275c0 -34.667 4.5 -64.667 13.5 -90s21 -46 36 -62s32.667 -27.667 53 -35s42.166 -10.333 65.499 -9c28.667 1.33301 52.834 8 72.501 20s34.834 30.667 45.501 56
c14 32.667 21 82.334 21 149.001c0 44.667 -8.66699 82.667 -26 114c-20.667 36.667 -52.334 55 -95.001 55c-34.667 0 -62.834 -10.833 -84.501 -32.5s-32.5 -49.834 -32.5 -84.501c0 -19.333 4.83301 -36.166 14.5 -50.499s22.5 -21.5 38.5 -21.5c34 0 51 15.333 51 46
c0 20.667 -5 32.667 -15 36c-13.333 5.33301 -21 10.666 -23 15.999c9.33301 7.33301 21.666 11 36.999 11c19.333 0 38 -7 56 -21c18.667 -12.667 28 -28.667 28 -48c0 -12 -2.66699 -23.167 -8 -33.5s-12.5 -19.333 -21.5 -27s-19.5 -13.667 -31.5 -18
s-24.667 -6.5 -38 -6.5c-33.333 0 -61.666 11.333 -84.999 34c-24 22.667 -36 50.667 -36 84c0 40.667 13.667 75.334 41 104.001c26.667 28.667 60.667 43 102 43c53.333 0 102.333 -13.333 147 -40c50 -29.333 81 -68.333 93 -117c15.333 -31.333 28 -52.666 38 -63.999
c-17.333 -15.333 -30 -35.333 -38 -60c-35.333 -57.333 -69.333 -99 -102 -125c-42.667 -34.667 -92.667 -52 -150 -52c-26.667 0 -52.5 3 -77.5 9s-48.833 14 -71.5 24s-44.167 21.5 -64.5 34.5s-38.833 26.5 -55.5 40.5c-40.667 32.667 -78.667 49 -114 49
c-12.667 0 -19 -6 -19 -18c0 -2 0.5 -7.16699 1.5 -15.5s1.5 -13.833 1.5 -16.5c0 -18 -11.667 -27 -35 -27c-24.667 0 -37 14 -37 42c0 20.667 8.33301 37 25 49c15.333 11.333 33.333 17 54 17c4.66699 0 14 -1 28 -3c7.33301 -0.666992 13.333 -1.16699 18 -1.5
s8 -0.5 10 -0.5c40.667 0 61 50.333 61 151v136c4.66699 36.667 6.83398 64.667 6.50098 84s-2.33301 33.5 -6 42.5s-8 15 -13 18s-9.5 7.16699 -13.5 12.5c-5.33301 -0.666992 -10 -2.16699 -14 -4.5s-8 -5.33301 -12 -9l-13.5 -13c-5 -5 -11.5 -10.833 -19.5 -17.5
c-30 -26 -49.333 -39 -58 -39c-14.667 0 -29.334 8.33301 -44.001 25l-36 40l-1 -15c-0.666992 -6 -0.5 -13.5 0.5 -22.5l3.5 -30.5l3.5 -30c1 -8.66699 1.5 -15.667 1.5 -21c0 -113.333 -14.667 -170 -44 -170c-12 0 -18 7.33301 -18 22c0 2 6 14 18 36
c12 22.667 18 45 18 67c0 31.333 -3 70 -9 116c-3.33301 27.333 -6 50.5 -8 69.5s-3.66699 34.167 -5 45.5c31.333 -7.33301 76.666 -11 135.999 -11h83h52.5c13.667 0 24.5 0.166992 32.5 0.5s15.333 0.833008 22 1.5z" />
    <glyph glyph-name="afii10045" unicode="&#x42b;" horiz-adv-x="1297" 
d="M209 449c2.66699 62 1.66895 99.3311 -2.99805 111.998c-8 22.667 -26 37.334 -54 44.001l-97 12c-35.333 4.66699 -53 17.667 -53 39c0 16 9.33301 23.667 28 23c25.333 -1.33301 42.333 -8.33301 51 -21c52 -8 115.667 -12 191 -12c80 0 140.333 4 181 12
c11.333 7.33301 22.333 12.333 33 15c7.33301 0.666992 17.666 1.66699 30.999 3c13.333 -4 20 -10.667 20 -20c0 -22 -17.667 -34.667 -53 -38c-1.33301 0 -34 -2 -98 -6c-31.333 -4.66699 -51.666 -20.334 -60.999 -47.001c-2.66699 -8 -5.33398 -35.333 -8.00098 -82
v-275c0 -34.667 4.5 -64.667 13.5 -90s21 -46 36 -62s32.667 -27.667 53 -35s42.166 -10.333 65.499 -9c28.667 1.33301 52.834 8 72.501 20s34.834 30.667 45.501 56c14 32.667 21 82.334 21 149.001c0 44.667 -8.66699 82.667 -26 114
c-20.667 36.667 -52.334 55 -95.001 55c-34.667 0 -62.834 -10.833 -84.501 -32.5s-32.5 -49.834 -32.5 -84.501c0 -19.333 4.83301 -36.166 14.5 -50.499s22.5 -21.5 38.5 -21.5c34 0 51 15.333 51 46c0 20.667 -5 32.667 -15 36c-13.333 5.33301 -21 10.666 -23 15.999
c9.33301 7.33301 21.666 11 36.999 11c19.333 0 38 -7 56 -21c18.667 -12.667 28 -28.667 28 -48c0 -12 -2.66699 -23.167 -8 -33.5s-12.5 -19.333 -21.5 -27s-19.5 -13.667 -31.5 -18s-24.667 -6.5 -38 -6.5c-33.333 0 -61.666 11.333 -84.999 34
c-24 22.667 -36 50.667 -36 84c0 40.667 13.667 75.334 41 104.001c26.667 28.667 60.667 43 102 43c53.333 0 102.333 -13.333 147 -40c50 -29.333 81 -68.333 93 -117c15.333 -31.333 28 -52.666 38 -63.999c-17.333 -15.333 -30 -35.333 -38 -60
c-35.333 -57.333 -69.333 -99 -102 -125c-42.667 -34.667 -92.667 -52 -150 -52c-26.667 0 -52.5 3 -77.5 9s-48.833 14 -71.5 24s-44.167 21.5 -64.5 34.5s-38.833 26.5 -55.5 40.5c-40.667 32.667 -78.667 49 -114 49c-12.667 0 -19 -6 -19 -18
c0 -2 0.5 -7.16699 1.5 -15.5s1.5 -13.833 1.5 -16.5c0 -18 -11.667 -27 -35 -27c-24.667 0 -37 14 -37 42c0 20.667 8.33301 37 25 49c15.333 11.333 33.333 17 54 17c4.66699 0 14 -1 28 -3c7.33301 -0.666992 13.333 -1.16699 18 -1.5s8 -0.5 10 -0.5
c40.667 0 61 50.333 61 151v136zM1279 659.998c0 -22 -17.667 -34.667 -53 -38c-1.33301 0 -34 -2 -98 -6c-31.333 -4.66699 -51.666 -20.334 -60.999 -47.001c-2.66699 -8 -5 -36 -7 -84c-1.33301 -26 -1.33301 -141.333 0 -346c0 -22.667 3.5 -42 10.5 -58
s15.5 -28.667 25.5 -38c14 -13.333 48.667 -23 104 -29c42.667 -4.66699 64 -18.667 64 -42c0 -12.667 -8 -20 -24 -22c-16 9.33301 -46.333 22.666 -91 39.999c-74 6 -132.333 9 -175 9c-44.667 0 -80.667 -3 -108 -9c-41.333 -18.667 -73 -31.667 -95 -39
c-17.333 -3.33301 -26 6.33398 -26 29.001c0 16 17 28 51 36l102 24c14.667 3.33301 27.667 17.666 39 42.999c9.33301 21.333 14 41 14 59l3 346c0.666992 38.667 -1.33301 64.334 -6 77.001c-8 22.667 -26 37.334 -54 44.001l-97 12c-35.333 4.66699 -53 17.667 -53 39
c0 16 9.33301 23.667 28 23c25.333 -1.33301 42.333 -8.33301 51 -21c52 -8 115.667 -12 191 -12c80 0 140.333 4 181 12c11.333 7.33301 22.333 12.333 33 15c7.33301 0.666992 17.666 1.66699 30.999 3c13.333 -4 20 -10.667 20 -20z" />
    <glyph glyph-name="afii10046" unicode="&#x42c;" horiz-adv-x="791" 
d="M209 466c2.66699 62 1.66895 99.3311 -2.99805 111.998c-8 22.667 -26 37.334 -54 44.001l-97 12c-35.333 4.66699 -53 17.667 -53 39c0 16 9.33301 23.667 28 23c25.333 -1.33301 42.333 -8.33301 51 -21c52 -8 115.667 -12 191 -12c80 0 140.333 4 181 12
c11.333 7.33301 22.333 12.333 33 15c7.33301 0.666992 17.666 1.66699 30.999 3c13.333 -4 20 -10.667 20 -20c0 -22 -17.667 -34.667 -53 -38c-1.33301 0 -34 -2 -98 -6c-31.333 -4.66699 -51.666 -20.334 -60.999 -47.001c-2.66699 -8 -5.33398 -35.333 -8.00098 -82
v-275c0 -34.667 4.5 -64.667 13.5 -90s21 -46 36 -62s32.667 -27.667 53 -35s42.166 -10.333 65.499 -9c28.667 1.33301 52.834 8 72.501 20s34.834 30.667 45.501 56c14 32.667 21 82.334 21 149.001c0 44.667 -8.66699 82.667 -26 114
c-20.667 36.667 -52.334 55 -95.001 55c-34.667 0 -62.834 -10.833 -84.501 -32.5s-32.5 -49.834 -32.5 -84.501c0 -19.333 4.83301 -36.166 14.5 -50.499s22.5 -21.5 38.5 -21.5c34 0 51 15.333 51 46c0 20.667 -5 32.667 -15 36c-13.333 5.33301 -21 10.666 -23 15.999
c9.33301 7.33301 21.666 11 36.999 11c19.333 0 38 -7 56 -21c18.667 -12.667 28 -28.667 28 -48c0 -12 -2.66699 -23.167 -8 -33.5s-12.5 -19.333 -21.5 -27s-19.5 -13.667 -31.5 -18s-24.667 -6.5 -38 -6.5c-33.333 0 -61.666 11.333 -84.999 34
c-24 22.667 -36 50.667 -36 84c0 40.667 13.667 75.334 41 104.001c26.667 28.667 60.667 43 102 43c53.333 0 102.333 -13.333 147 -40c50 -29.333 81 -68.333 93 -117c15.333 -31.333 28 -52.666 38 -63.999c-17.333 -15.333 -30 -35.333 -38 -60
c-35.333 -57.333 -69.333 -99 -102 -125c-42.667 -34.667 -92.667 -52 -150 -52c-26.667 0 -52.5 3 -77.5 9s-48.833 14 -71.5 24s-44.167 21.5 -64.5 34.5s-38.833 26.5 -55.5 40.5c-40.667 32.667 -78.667 49 -114 49c-12.667 0 -19 -6 -19 -18
c0 -2 0.5 -7.16699 1.5 -15.5s1.5 -13.833 1.5 -16.5c0 -18 -11.667 -27 -35 -27c-24.667 0 -37 14 -37 42c0 20.667 8.33301 37 25 49c15.333 11.333 33.333 17 54 17c4.66699 0 14 -1 28 -3c7.33301 -0.666992 13.333 -1.16699 18 -1.5s8 -0.5 10 -0.5
c40.667 0 61 50.333 61 151v136z" />
    <glyph glyph-name="afii10047" unicode="&#x42d;" horiz-adv-x="659" 
d="M-5 859c0 18 9.33398 27.001 28.001 27.001c22 0 37.333 -16.333 46 -49c6 -21.333 11.667 -61.333 17 -120c6.66699 -68 14 -118.333 22 -151c52.667 86 124.667 129 216 129c72 0 134.667 -28 188 -84c46.667 -50 78.667 -112.667 96 -188
c1.33301 -6 12.333 -33.333 33 -82c0 -2.66699 -5.5 -13.667 -16.5 -33s-17.167 -31.333 -18.5 -36c-50 -187.333 -146 -279 -288 -275c-44.667 1.33301 -81.667 10.666 -111 27.999c-12.667 7.33301 -44.334 34 -95.001 80l-21 -167c-12 -79.333 -32.667 -119 -62 -119
c-16.667 0 -25 9.66699 -25 29c0 12 8 33.333 24 64c17.333 34 27.333 57.333 30 70c8.66699 40 13 80 13 120v73c0 24 1 46.333 3 67l-1 242c0 72 -8.33301 142.667 -25 212c-5.33301 24 -15.5 55.5 -30.5 94.5s-22.5 61.833 -22.5 68.5zM117.001 390.001
c0 -0.666992 1 -4 3 -10h367c-10 186.667 -63.667 280 -161 280c-64 0 -116 -30 -156 -90c-35.333 -52.667 -53 -112.667 -53 -180zM116.001 310.001c0 -76.667 13 -138.667 39 -186c32.667 -60 84.667 -90.667 156 -92c57.333 -1.33301 103.333 31.667 138 99
c28.667 55.333 43 115 43 179h-376v0z" />
    <glyph glyph-name="afii10048" unicode="&#x42e;" horiz-adv-x="1090" 
d="M1072 343c0 -0.666992 -3.83594 -13.667 -11.5029 -39l-13.5 -45c-19.333 -75.333 -53.666 -139.333 -102.999 -192c-55.333 -59.333 -116.666 -89 -183.999 -89c-66.667 0 -124.167 24 -172.5 72s-83.5 116 -105.5 204c-2 8 -6.33301 22.333 -13 43l-4 10h-146
c0 -39.333 0.333008 -91 1 -155c0 -22.667 3.5 -42 10.5 -58s15.5 -28.667 25.5 -38c14 -13.333 48.667 -23 104 -29c42.667 -4.66699 64 -18.667 64 -42c0 -12.667 -8 -20 -24 -22c-16 9.33301 -46.333 22.666 -91 39.999c-74 6 -132.333 9 -175 9
c-44.667 0 -80.667 -3 -108 -9c-41.333 -18.667 -73 -31.667 -95 -39c-17.333 -3.33301 -26 6.33398 -26 29.001c0 16 17 28 51 36l102 24c14.667 3.33301 27.667 17.666 39 42.999c9.33301 21.333 14 41 14 59l3 346c0.666992 38.667 -1.33301 64.334 -6 77.001
c-8 22.667 -26 37.334 -54 44.001l-97 12c-35.333 4.66699 -53 17.667 -53 39c0 16 9.33301 23.667 28 23c25.333 -1.33301 42.333 -8.33301 51 -21c52 -8 115.667 -12 191 -12c80 0 140.333 4 181 12c11.333 7.33301 22.333 12.333 33 15
c7.33301 0.666992 17.666 1.66699 30.999 3c13.333 -4 20 -10.667 20 -20c0 -22 -17.667 -34.667 -53 -38c-1.33301 0 -34 -2 -98 -6c-31.333 -4.66699 -51.666 -20.334 -60.999 -47.001c-2.66699 -8 -5 -36 -7 -84c-0.666992 -13.333 -1 -55.666 -1 -126.999h147
c0.666992 1.33301 1.33398 3 2.00098 5c6 14 13.333 32.333 22 55c24.667 77.333 57.667 138.666 99 183.999c50 57.333 107.667 86 173 86c64.667 0 121.667 -25.333 171 -76c46.667 -48 83 -115.667 109 -203zM926.997 331c0 104.667 -6.00098 176.667 -18.001 216
c-23.333 77.333 -72.666 116 -147.999 116c-70.667 0 -117.667 -37.667 -141 -113c-13.333 -42 -20 -112.667 -20 -212c0 -104.667 5.33301 -174.667 16 -210c21.333 -75.333 69.333 -113 144 -113c76 0 125.333 37.333 148 112c12.667 40 19 108 19 204z" />
    <glyph glyph-name="afii10049" unicode="&#x42f;" horiz-adv-x="776" 
d="M-4 -157c0 29.333 13.999 43.9941 41.999 43.9941c15.333 0 27.333 -5 36 -15s13 -22.667 13 -38c0 -8.66699 -1.33301 -16 -4 -22c0.666992 -2 1.66699 -3 3 -3c20.667 2.66699 36.334 24.334 47.001 65.001c7.33301 28.667 11 59 11 91c0 39.333 -18 109.333 -54 210
c90.667 12 167.667 54 231 126h-8c-38.667 -5.33301 -62.667 -8 -72 -8c-26.667 0 -55.667 8 -87 24c-12 6 -29 21.333 -51 46c-9.33301 10 -24.666 29.333 -45.999 58c-1.33301 1.33301 -8.33301 9.33301 -21 24c-12 12.667 -18 19.334 -18 20.001
c0 3.33301 4.5 11.833 13.5 25.5s14.167 22.167 15.5 25.5c55.333 121.333 148.333 182 279 182c42.667 0 85.667 -12.333 129 -37l114 -70c41.333 -24.667 79.333 -37 114 -37c7.33301 0 14 2 20 6c-0.666992 2.66699 -2.33398 8.66699 -5.00098 18s-4 14.333 -4 15
c0 8 4.33301 15.833 13 23.5s17 11.5 25 11.5c9.33301 0 17.666 -5 24.999 -15s11 -21 11 -33c0 -27.333 -21 -45.666 -63 -54.999c-35.333 -3.33301 -61.666 -6 -78.999 -8c-12 -1.33301 -22.333 -6.33301 -31 -15s-13 -19 -13 -31c0 -198 0.333008 -328.667 1 -392
c0 -13.333 12.333 -25.666 37 -36.999c8.66699 -4 30 -11.667 64 -23c51.333 -17.333 77 -38.666 77 -63.999c0 -14.667 -9.33301 -22 -28 -22c-10.667 0 -19.334 2.66699 -26.001 8l-21 31c-10.667 16 -20 24.667 -28 26c-34 6.66699 -61 10.667 -81 12
c14 -0.666992 -4.33301 -1 -55 -1c-65.333 0 -128.333 -7.33301 -189 -22c-18 24 -27 40.667 -27 50c6 -0.666992 16.667 -2 32 -4s23.333 -3 24 -3c36 0 60.667 4 74 12c19.333 11.333 29 33.333 29 66v340c0 36 -4 73.333 -12 112c-6.66699 32 -23.5 58 -50.5 78
s-57.167 30 -90.5 30c-50 0 -88.333 -18.667 -115 -56c-24 -33.333 -36 -75.666 -36 -126.999c0 -42.667 9.66699 -78.334 29 -107.001c22 -33.333 53.333 -50 94 -50c35.333 0 76.333 14.333 123 43c7.33301 -7.33301 11 -15 11 -23
c0 -1.33301 -4.33301 -4.66602 -13 -9.99902c-65.333 -50 -112.333 -111 -141 -183c-21.333 -54 -39 -106.333 -53 -157l-21 -78c-7.33301 -26.667 -16.666 -50 -27.999 -70c-26 -46.667 -58.667 -70 -98 -70c-45.333 0 -68 21 -68 63z" />
    <glyph glyph-name="afii10065" unicode="&#x430;" horiz-adv-x="369" 
d="M360 102c-47.333 -33.333 -75.001 -72.335 -83.001 -117.002c-15.333 2 -29.333 12.667 -42 32s-18.334 37 -17.001 53c-10.667 -1.33301 -27.667 -13.666 -51 -36.999s-38.666 -41.333 -45.999 -54c-36.667 41.333 -62.667 62 -78 62
c-7.33301 0 -18.666 -2.66699 -33.999 -8v7c0 4 5.33301 11 16 21s16.334 16 17.001 18s1 14.333 1 37v45v25c-0.666992 10 -1 16.333 -1 19c-10.667 22 -23 37 -37 45c14 1.33301 26.667 3 38 5c27.333 6 46.666 13.333 57.999 22c-16 6 -29.833 18 -41.5 36
s-17.5 35.333 -17.5 52c0 26.667 8.33301 50 25 70c10 11.333 28.667 27 56 47s46.333 36.667 57 50c29.333 -48.667 72 -73 128 -73l3 -6c-11.333 -16 -17 -32.667 -17 -50v-274l23 -31c7.33301 2.66699 21 7.33398 41 14.001zM62.999 372.998
c0 -26 8.16699 -46.5 24.5 -61.5s37.833 -22.5 64.5 -22.5c10.667 0 22.5 5.83301 35.5 17.5s20.5 23.167 22.5 34.5c0.666992 2 1 10.333 1 25c0 54 -24.667 81 -74 81c-21.333 0 -39 -6.83301 -53 -20.5s-21 -31.5 -21 -53.5zM211.999 284.998
c-6.66699 -1.33301 -17.334 -5.33203 -32.001 -11.999c-7.33301 -4.66699 -22.666 -7 -45.999 -7c-8.66699 0 -13 -17.667 -13 -53v-30c0 -2.66699 0.333008 -8.33398 1 -17.001v-24v-42c26 -17.333 42.667 -26 50 -26c9.33301 0 23 12 41 36z" />
    <glyph glyph-name="afii10066" unicode="&#x431;" horiz-adv-x="362" 
d="M221 420l-84 64l-30 -19v-346c29.333 -22.667 59 -41.667 89 -57l25 22v336zM19 573c2 12 5.16895 22.3301 9.50195 30.9971s10.333 16.834 18 24.501s16.5 15 26.5 22l35 23.5c14.667 9.33301 27.334 18.333 38.001 27s19.667 17.334 27 26.001c6 0 6.66699 1 2 3l3 -3
c7.33301 -73.333 35 -110 83 -110c24 0 39 5.66699 45 17l5 12c0 8 -6.33301 13 -19 15c-12 2.66699 -18 8 -18 16c0 4 2.66699 9.33301 8 16s10.333 10 15 10c9.33301 0 17.166 -5.83301 23.499 -17.5s9.5 -22.5 9.5 -32.5c0 -46 -30.667 -71.667 -92 -77
c-24 -2.66699 -48.333 3.66602 -73 18.999c-26.667 18 -40 38.667 -40 62l-8 -2c-3.33301 -2 -7.5 -5 -12.5 -9s-9.33301 -8.83301 -13 -14.5s-6.33398 -11.834 -8.00098 -18.501s-0.833984 -13 2.49902 -19c16 -9.33301 29.5 -17.5 40.5 -24.5l30 -19l26.5 -17l31.5 -20
l44 -26.5l63.5 -36c-16 -19.333 -24 -37.666 -24 -54.999v-239c0 -6 7.66699 -21.333 23 -46c-72 -39.333 -128.667 -79.666 -170 -120.999c-37.333 32 -85.333 60 -144 84c2 2 6 11.667 12 29c6.66699 18 9 27 7 27l-1 -1v276c0 10 -0.666992 17 -2 21l-16 26
c18.667 6 35.667 13.167 51 21.5l42 23.5c0.666992 -1.33301 -3.5 0.333984 -12.5 5.00098s-18.833 11 -29.5 19s-20.167 16.667 -28.5 26s-11.833 18 -10.5 26z" />
    <glyph glyph-name="afii10067" unicode="&#x432;" horiz-adv-x="414" 
d="M143 213c0 12 1 22.499 3 31.499s6.33301 17.833 13 26.5s15.834 18.167 27.501 28.5s27.167 23.166 46.5 38.499l-17.5 61c-6.33301 21.333 -13.5 43.666 -21.5 66.999c-8 0 -36.333 -12 -85 -36l1 -296c0 -10 0.666992 -20.167 2 -30.5s3.5 -19.666 6.5 -27.999
s6.83301 -15.333 11.5 -21s10.334 -8.83398 17.001 -9.50098c10.667 0 23 2.66699 37 8s27.167 14 39.5 26s22.666 27.5 30.999 46.5s12.166 41.833 11.499 68.5c-0.666992 23.333 -5 40.333 -13 51s-19.333 17.334 -34 20.001c-12 2 -21 -0.666992 -27 -8
s-9 -17.666 -9 -30.999c13.333 -10 20 -18.333 20 -25c0 -7.33301 -3 -13.666 -9 -18.999s-13.333 -8 -22 -8c-5.33301 0 -11.5 3 -18.5 9s-10.5 16 -10.5 30zM77 505.999c3.33301 19.333 8.16504 37.333 14.498 54s13.666 31.167 21.999 43.5s17.5 21.833 27.5 28.5
s21 9.66699 33 9c5.33301 -0.666992 11.333 -3.33398 18 -8.00098s10 -9.33398 10 -14.001c0 -16 -6.66699 -24 -20 -24c-1.33301 0 -3.16602 0.833008 -5.49902 2.5s-5 3.33398 -8 5.00098s-5.66699 3.33398 -8 5.00098s-3.83301 2.5 -4.5 2.5
c-6 0 -11.833 -4.5 -17.5 -13.5s-10.667 -20.5 -15 -34.5s-7.66602 -29.333 -9.99902 -46s-3.5 -32.334 -3.5 -47.001v-17l65 32c16 8 28.833 15.5 38.5 22.5s17.834 14.667 24.501 23s14.334 19.166 23.001 32.499l5 1c0 -9.33301 -0.166992 -17.833 -0.5 -25.5
s0 -16.167 1 -25.5s3 -20 6 -32s7.83301 -27 14.5 -45c14 -39.333 25.667 -60.666 35 -63.999c-9.33301 -8.66699 -23 -19.167 -41 -31.5l-65 -43.5c15.333 1.33301 29.833 -0.5 43.5 -5.5s25.834 -12 36.501 -21s19.5 -19.167 26.5 -30.5s11.5 -23 13.5 -35
c4.66699 -29.333 2.33398 -54.5 -6.99902 -75.5s-22.833 -39 -40.5 -54s-37.834 -27.5 -60.501 -37.5s-44.667 -18.5 -66 -25.5l-57.5 -18.5c-17 -5.33301 -28.5 -10.333 -34.5 -15c-9.33301 26.667 -32.333 52.334 -69 77.001c20.667 16 31 44.333 31 85v333v31.5
c0 5.66699 -0.166992 9 -0.5 10s-0.666016 1.16699 -0.999023 0.5s-0.5 0.333008 -0.5 3c-3.33301 18 -13.333 53 -30 105c5.33301 -0.666992 11.666 -4.66699 18.999 -12s14.666 -16.666 21.999 -27.999s14.166 -23.833 20.499 -37.5s11.5 -26.834 15.5 -39.501z" />
    <glyph glyph-name="afii10068" unicode="&#x433;" horiz-adv-x="329" 
d="M311 479l-50.998 -61c-20.667 -24 -31 -47.333 -31 -70c0 -10 2.66699 -15 8 -15c0.666992 0 2.66699 1 6 3s5.66602 3 6.99902 3c12.667 0 19 -6.33301 19 -19c0 -14.667 -8 -22 -24 -22c-12 0 -22.5 5.83301 -31.5 17.5s-13.5 24.5 -13.5 38.5
c0 18.667 7 35.334 21 50.001c-8 9.33301 -22.667 25.333 -44 48c-21.333 -13.333 -32 -25 -32 -35v-310c28 -12 47 -29 57 -51l-68 -73l-45 52c-18.667 19.333 -37.334 32.666 -56.001 39.999c19.333 13.333 29 30 29 50v286c0 32.667 -10 49 -30 49
c-6.66699 0 -15.667 -5.66699 -27 -17l-7 15l91 80c30 -9.33301 51 -37 63 -83l81 84c10 -12 26.667 -33.333 50 -64c4.66699 2.66699 10.667 7.66699 18 15z" />
    <glyph glyph-name="afii10069" unicode="&#x434;" horiz-adv-x="330" 
d="M329 -37c0 -38 -8.33301 -67.333 -25 -88c-8.66699 -10.667 -28.667 -26 -60 -46c-28.667 -18 -50.334 -35.667 -65.001 -53c-6 0 -6.66699 -1 -2 -3l-3 3c-7.33301 73.333 -35 110 -83 110c-24 0 -39 -5.66699 -45 -17c-3.33301 -6.66699 -5 -10.667 -5 -12
c0 -8 6.16699 -13.167 18.5 -15.5s18.5 -7.5 18.5 -15.5c0 -4 -2.66699 -9.33301 -8 -16s-10.333 -10 -15 -10c-9.33301 0 -17.166 5.83301 -23.499 17.5s-9.5 22.5 -9.5 32.5c0 46 30.667 71.667 92 77c24.667 2.66699 49 -3.66602 73 -18.999
c26.667 -18 40 -38.667 40 -62l8 2c10 8 20.333 20.667 31 38s16 31 16 41c0 19.333 -9.33301 37 -28 53c-26 22.667 -40.667 37.334 -44 44.001c-3.33301 11.333 -7 21.666 -11 30.999l-69 -59l-116 69c2.66699 5.33301 5.66699 12.833 9 22.5
s5.66602 16.834 6.99902 21.501c2 8 3 23 3 45v228c0 17.333 -7.33301 37.666 -22 60.999c8 0.666992 23.333 3.66699 46 9c34.667 7.33301 73.334 35.666 116.001 84.999c28.667 -26.667 48.334 -43.667 59.001 -51c19.333 -8.66699 41.666 -21.334 66.999 -38.001
c-14 -14 -21 -31.667 -21 -53v-263c0 -19.333 8.5 -47.666 25.5 -84.999s25.5 -65.333 25.5 -84zM197 410c-34.667 34.667 -57 52 -67 52c-4.66699 0 -10 -3.33301 -16 -10l2 -350c27.333 -23.333 47.333 -35 60 -35c6 0 11.167 3.83301 15.5 11.5s6.5 15.5 6.5 23.5z" />
    <glyph glyph-name="afii10070" unicode="&#x435;" horiz-adv-x="296" 
d="M275 468l-6.00195 -10.002c-34.667 -18.667 -65.334 -54.667 -92.001 -108c-24.667 -50 -37 -96.667 -37 -140c0 -30.667 8.33301 -45.334 25 -44.001l8 3c-4.66699 4 -7 9 -7 15c0 8.66699 6 16.334 18 23.001c8.66699 -1.33301 16.334 -9.33301 23.001 -24
c-8 -24 -22.667 -36 -44 -36c-27.333 0 -41 21.667 -41 65c0 30.667 18.333 89.334 55 176.001c-12.667 14.667 -28.667 41.667 -48 81c-4.66699 -3.33301 -13.667 -8.66602 -27 -15.999l-1 -354c12.667 -9.33301 38 -24.333 76 -45c30 14.667 43.667 34.334 41 59.001l9 4
c8.66699 -0.666992 13 -6.66699 13 -18c0 -14.667 -13.333 -36 -40 -64c-24 -24.667 -44 -41.334 -60 -50.001l-137 78c18.667 14 28 32.333 28 55l1 287c0 26 -8.33301 47.667 -25 65c44.667 0.666992 76.834 5.5 96.501 14.5s43.834 29.833 72.501 62.5
c4 -3.33301 12 -20 24 -50c12 -26.667 22 -40 30 -40c-2 0 8 5.33301 30 16h9z" />
    <glyph glyph-name="afii10072" unicode="&#x436;" horiz-adv-x="669" 
d="M479 286c24 -4 43.3369 -13.4961 58.0039 -28.4961s23 -34.167 25 -57.5c1.33301 -23.333 2.66602 -42.833 3.99902 -58.5s2.66602 -27.834 3.99902 -36.501c9.33301 -49.333 21.666 -74 36.999 -74c22 0 35 11.667 39 35c4.66699 0 9.66699 -3.66699 15 -11
c-0.666992 -14.667 -13 -30.334 -37 -47.001c-23.333 -16 -42.666 -24 -57.999 -24c-36.667 0 -60.667 23.667 -72 71c-2.66699 8.66699 -6.33398 53.667 -11.001 135c-3.33301 47.333 -14.333 71 -33 71c-24 0 -36 -13 -36 -39c13.333 -10 20 -18.333 20 -25
c0 -14.667 -8.66699 -22 -26 -22c-11.333 0 -17 9.33301 -17 28c0 33.333 10 59.666 30 78.999c10.667 5.33301 18.667 14.5 24 27.5s9 27.333 11 43s2.83301 31.334 2.5 47.001s-1.5 29.167 -3.5 40.5l63 76c4 5.33301 7.66699 8 11 8
c1.33301 0 4.66602 0.333008 9.99902 1s9.33301 -0.666016 12 -3.99902l56 -73l-27 9c-2 0 -5 -1.83301 -9 -5.5s-8 -8.33398 -12 -14.001s-7.5 -11.834 -10.5 -18.501s-4.5 -13.334 -4.5 -20.001c0 -8 0.5 -13 1.5 -15s1.5 -7 1.5 -15c0 -16 -5.83301 -32 -17.5 -48
s-28.5 -27.667 -50.5 -35zM185.004 288.004c-24 -4 -43.3379 -13.4961 -58.0049 -28.4961s-23 -34.167 -25 -57.5c-1.33301 -23.333 -2.66602 -42.833 -3.99902 -58.5s-2.66602 -27.834 -3.99902 -36.501c-9.33301 -49.333 -21.666 -74 -36.999 -74c-22 0 -35 11.667 -39 35
c-4.66699 0 -9.66699 -3.66699 -15 -11c0.666992 -14.667 13 -30.334 37 -47.001c22.667 -16 42 -24 58 -24c36.667 0 60.667 23.667 72 71c2.66699 8.66699 6.33398 53.667 11.001 135c3.33301 47.333 14.333 71 33 71c24 0 36 -13 36 -39c-13.333 -10 -20 -18.333 -20 -25
c0 -14.667 8.66699 -22 26 -22c11.333 0 17 9.33301 17 28c0 33.333 -10 59.666 -30 78.999c-10.667 5.33301 -18.667 14.5 -24 27.5s-9 27.333 -11 43s-2.83301 31.334 -2.5 47.001s1.5 29.167 3.5 40.5l-63 76c-4 5.33301 -7.66699 8 -11 8
c-1.33301 0 -4.66602 0.333008 -9.99902 1s-9.33301 -0.666016 -12 -3.99902l-56 -73l27 9c2 0 5 -1.83301 9 -5.5s8 -8.33398 12 -14.001s7.5 -11.834 10.5 -18.501s4.5 -13.334 4.5 -20.001c0 -8 -0.5 -13 -1.5 -15s-1.5 -7 -1.5 -15c0 -16 5.83301 -32 17.5 -48
s28.5 -27.667 50.5 -35zM330.999 533.008c67.333 -52 101.001 -85 101.001 -99c0 -12 -5.33301 -18 -16 -18c-6 0 -9 2 -9 6c0 2 0.666992 5.5 2 10.5s2 8.16699 2 9.5c0 6 -2.33301 9 -7 9c-20.667 0 -32 -13.333 -34 -40l1 -277c0 -20 2 -34.333 6 -43
c4 -10.667 13.333 -21.334 28 -32.001c-32 -22 -57 -48 -75 -78c-8.66699 24.667 -31.334 49.334 -68.001 74.001c20.667 16 31 44.333 31 85v272c0 26.667 -10.333 40 -31 40c-4.66699 0 -7 -3 -7 -9c0 -1.33301 0.666992 -4.5 2 -9.5s2 -8.5 2 -10.5c0 -4 -3 -6 -9 -6
c-10.667 0 -16 6 -16 18c0 14 32.333 46.667 97 98z" />
    <glyph glyph-name="afii10073" unicode="&#x437;" horiz-adv-x="311" 
d="M260 173c0 -32 -12 -66.3301 -36 -102.997l-70 -104c-4.66699 -6 -22 -29.667 -52 -71c-14 -18.667 -21 -34.334 -21 -47.001c0 -4 1.33301 -7.66699 4 -11c8.66699 4.66699 15.667 8.66699 21 12c4 0 7.83301 -3.66699 11.5 -11s5.5 -12.666 5.5 -15.999
c0 -6.66699 -3.66699 -13 -11 -19s-14.666 -9 -21.999 -9c-20.667 0 -31 15.333 -31 46c0 35.333 13.667 73.666 41 114.999c12.667 18.667 27 47 43 85c17.333 40 27 69.333 29 88c2 26 -3 51.667 -15 77c-14.667 28.667 -34.334 43 -59.001 43
c-8.66699 0 -18 -2.66699 -28 -8l-6 16l109 96c-20.667 21.333 -49.334 60 -86.001 116c-6 1.33301 -17.833 -4.83398 -35.5 -18.501s-26.5 -23.167 -26.5 -28.5c0 -0.666992 1.66699 -3.66699 5 -9s5 -9.33301 5 -12c0 -6 -2.66699 -12.333 -8 -19s-11 -10 -17 -10
c-14 0 -21 9.66699 -21 29s21.333 43.333 64 72l94 64c2.66699 -3.33301 6.33398 -12 11.001 -26c5.33301 -10.667 11.333 -24 18 -40c6 -10.667 18.833 -27.334 38.5 -50.001s29.5 -34.667 29.5 -36c-6.66699 -6 -39 -33.333 -97 -82c38 -4 67 -20.333 87 -49
c17.333 -23.333 26 -50 26 -80z" />
    <glyph glyph-name="afii10074" unicode="&#x438;" horiz-adv-x="397" 
d="M384 87l-73.998 -89.001c-15.333 9.33301 -30.166 25 -44.499 47s-21.5 41.333 -21.5 58c-28.667 -21.333 -65 -57 -109 -107c-24.667 27.333 -59.334 59 -104.001 95c15.333 14 23 26.333 23 37c0.666992 28 1 119.333 1 274c0 20.667 -6.33301 37.334 -19 50.001
l-32 -19l-6 19c23.333 16.667 37.666 27.334 42.999 32.001c17.333 16 33 32 47 48c24 -18.667 38.667 -39.667 44 -63c0.666992 -4 1.66699 -16 3 -36c30 21.333 68.333 55.333 115 102l1 1c2.66699 -5.33301 12.334 -18.833 29.001 -40.5s26.334 -32.5 29.001 -32.5
c1.33301 2 9.66602 9.33301 24.999 22c6.66699 0 10 -4 10 -12c0 -1.33301 -4.33301 -6 -13 -14s-13 -13 -13 -15c0.666992 -46.667 0.666992 -151.667 0 -315c3.33301 -22.667 14.333 -39 33 -49c1.33301 -0.666992 5.16602 2.16602 11.499 8.49902s10.166 9.5 11.499 9.5
c4 0 7.33301 -3.66699 10 -11zM241.002 413.999l-35 51l-71 -58v-291l45 -49l61 56c1.33301 6.66699 2 31 2 73c0 48 -0.666992 120.667 -2 218z" />
    <glyph glyph-name="afii10075" unicode="&#x439;" horiz-adv-x="397" 
d="M384 87l-73.998 -89.001c-15.333 9.33301 -30.166 25 -44.499 47s-21.5 41.333 -21.5 58c-28.667 -21.333 -65 -57 -109 -107c-24.667 27.333 -59.334 59 -104.001 95c15.333 14 23 26.333 23 37c0.666992 28 1 119.333 1 274c0 20.667 -6.33301 37.334 -19 50.001
l-32 -19l-6 19c23.333 16.667 37.666 27.334 42.999 32.001c17.333 16 33 32 47 48c24 -18.667 38.667 -39.667 44 -63c0.666992 -4 1.66699 -16 3 -36c30 21.333 68.333 55.333 115 102l1 1c2.66699 -5.33301 12.334 -18.833 29.001 -40.5s26.334 -32.5 29.001 -32.5
c1.33301 2 9.66602 9.33301 24.999 22c6.66699 0 10 -4 10 -12c0 -1.33301 -4.33301 -6 -13 -14s-13 -13 -13 -15c0.666992 -46.667 0.666992 -151.667 0 -315c3.33301 -22.667 14.333 -39 33 -49c1.33301 -0.666992 5.16602 2.16602 11.499 8.49902s10.166 9.5 11.499 9.5
c4 0 7.33301 -3.66699 10 -11zM241.002 413.999l-35 51l-71 -58v-291l45 -49l61 56c1.33301 6.66699 2 31 2 73c0 48 -0.666992 120.667 -2 218zM82.002 647.999c28.667 14 54.6641 30 77.9971 48c4.66699 4 7.66699 4 9 0c16.667 -30 39.834 -45.5 69.501 -46.5
s45.834 11.167 48.501 36.5c4 0 6 -0.666992 6 -2c0 -26 -8.66699 -47.333 -26 -64s-37.666 -26.667 -60.999 -30c-31.333 -5.33301 -57 -1.5 -77 11.5s-35.667 28.5 -47 46.5z" />
    <glyph glyph-name="afii10076" unicode="&#x43a;" horiz-adv-x="414" 
d="M110 134c0 -20 2.00098 -34.335 6.00098 -43.002c4 -10.667 13.333 -21.334 28 -32.001c-32 -22 -57 -48 -75 -78c-8.66699 24.667 -31.334 49.334 -68.001 74.001c20.667 16 31 44.333 31 85v333v33c0 6.66699 -0.166992 11.167 -0.5 13.5
s-0.666016 3.66602 -0.999023 3.99902s-0.5 1.83301 -0.5 4.5c-3.33301 18 -13.333 53 -30 105c13.333 -1.33301 29 -17.666 47 -48.999c7.33301 -12 13.333 -25.333 18 -40l12 -38c3.33301 19.333 8.16602 37.333 14.499 54s13.666 31.167 21.999 43.5
s17.5 21.833 27.5 28.5s21 9.66699 33 9c5.33301 -0.666992 11.166 -3.33398 17.499 -8.00098s9.83301 -9.33398 10.5 -14.001c1.33301 -9.33301 0 -15.666 -4 -18.999s-9.33301 -5 -16 -5c-1.33301 0 -3.16602 0.833008 -5.49902 2.5s-5 3.33398 -8 5.00098
s-5.66699 3.33398 -8 5.00098s-3.83301 2.5 -4.5 2.5c-6 0 -12 -6.16699 -18 -18.5s-11.167 -27.666 -15.5 -45.999s-7.66602 -38 -9.99902 -59s-2.83301 -39.833 -1.5 -56.5zM215.001 293.998c24 -4 43.3369 -13.4951 58.0039 -28.4951s23 -34.167 25 -57.5
c1.33301 -23.333 2.66602 -42.833 3.99902 -58.5s2.66602 -27.834 3.99902 -36.501c9.33301 -49.333 21.666 -74 36.999 -74c22 0 35 11.667 39 35c4.66699 0 9.66699 -3.66699 15 -11c-0.666992 -14.667 -13 -30.334 -37 -47.001c-23.333 -16 -42.666 -24 -57.999 -24
c-36.667 0 -60.667 23.667 -72 71c-2.66699 8.66699 -6.33398 53.667 -11.001 135c-3.33301 47.333 -14.333 71 -33 71c-24 0 -36 -13 -36 -39c13.333 -10 20 -18.333 20 -25c0 -14.667 -8.66699 -22 -26 -22c-11.333 0 -17 9.33301 -17 28c0 33.333 10 59.666 30 78.999
c10.667 5.33301 18.667 14.5 24 27.5s9 27.5 11 43.5s2.83301 32 2.5 48s-1.5 29.667 -3.5 41l63 76c4 5.33301 7.66699 8 11 8c1.33301 0 4.66602 0.333008 9.99902 1s9.33301 -0.666016 12 -3.99902l56 -73l-27 9c-2 0 -5 -1.83301 -9 -5.5s-8 -8.33398 -12 -14.001
s-7.5 -11.834 -10.5 -18.501s-4.5 -13.334 -4.5 -20.001c0 -8 0.5 -13.333 1.5 -16s1.5 -8 1.5 -16c0 -16 -5.83301 -32 -17.5 -48s-28.5 -27.667 -50.5 -35z" />
    <glyph glyph-name="afii10077" unicode="&#x43b;" horiz-adv-x="388" 
d="M327 143c0.666992 -19.333 1.33203 -29.998 1.99902 -31.998c4 -12 13.667 -26 29 -42c-28 -16.667 -51.667 -40.334 -71 -71.001c-19.333 37.333 -41.666 61 -66.999 71c16.667 14.667 26 26.334 28 35.001c0.666992 2 1 15.333 1 40v20.5
c0 9.66699 -0.166992 24.5 -0.5 44.5s-0.666016 46.333 -0.999023 79s-0.5 73.667 -0.5 123c-18.667 32.667 -34.334 49 -47.001 49s-23.334 -11.333 -32.001 -34c-6.66699 -16 -10 -30.333 -10 -43v-142v-83c0.666992 -29.333 0.666992 -51.333 0 -66
c0 -21.333 -5.66699 -42 -17 -62c-13.333 -24 -29.333 -36 -48 -36h-23c-48.667 60.667 -73 93 -73 97c0 8.66699 4 12.334 12 11.001c5.33301 -7.33301 9.33301 -13 12 -17c5.33301 -7.33301 10.666 -11 15.999 -11h-7c14 1.33301 24.833 8.16602 32.5 20.499
s11.5 25.5 11.5 39.5c-0.666992 16 -1.16699 31.333 -1.5 46s-0.5 30.5 -0.5 47.5s0.333008 36.5 1 58.5s1.33398 49 2.00098 81c0.666992 19.333 6.66699 35.666 18 48.999c2 1.33301 5.16699 3.66602 9.5 6.99902l10.5 8c18 9.33301 44.667 27.333 80 54
c2.66699 4.66699 10.667 16.667 24 36l8 11c2.66699 3.33301 11.334 -0.333984 26.001 -11.001c12 -7.33301 21.333 -14.333 28 -21c8 -8 18.667 -23.333 32 -46c6 -11.333 10 -21.166 12 -29.499s3.66699 -15.833 5 -22.5z" />
    <glyph glyph-name="afii10078" unicode="&#x43c;" horiz-adv-x="562" 
d="M431 407l-34.001 52.002l-58 -50v-272c0 -20 2 -34 6 -42l24 -30c-26.667 -14 -49.667 -38.667 -69 -74c-22.667 36 -45 60.667 -67 74c18 24.667 27 47.667 27 69v272c-9.33301 16.667 -18.333 29.834 -27 39.501s-16 14.5 -22 14.5
c-12.667 0 -23.334 -11.333 -32.001 -34c-6.66699 -16 -10 -30.333 -10 -43v-142v-83c0.666992 -29.333 0.666992 -51.333 0 -66c0 -21.333 -5.66699 -42 -17 -62c-13.333 -24 -29.333 -36 -48 -36h-23c-48.667 60.667 -73 93 -73 97c0 8.66699 4 12.334 12 11.001
c5.33301 -7.33301 9.33301 -13 12 -17c5.33301 -7.33301 10.666 -11 15.999 -11h-7c14 1.33301 24.833 8.16602 32.5 20.499s11.5 25.5 11.5 39.5c-0.666992 16 -1.16699 31.333 -1.5 46s-0.5 30.5 -0.5 47.5s0.333008 36.5 1 58.5s1.33398 49 2.00098 81
c0.666992 19.333 6.66699 35.666 18 48.999c2 1.33301 5.16699 3.66602 9.5 6.99902l10.5 8c18 9.33301 44.667 27.333 80 54c2.66699 4.66699 10.667 16.667 24 36l8 11c2.66699 3.33301 11.334 -0.333984 26.001 -11.001c12 -7.33301 21.333 -14.333 28 -21
c4.66699 -4.66699 11.167 -13.667 19.5 -27l22.5 -37c16.667 11.333 33.834 25.5 51.501 42.5s35.834 36.833 54.501 59.5c21.333 -29.333 40 -52.666 56 -69.999s28.667 -29.333 38 -36c-8.66699 -8.66699 -16.334 -19.334 -23.001 -32.001v-263
c0 -10 0.833008 -18.5 2.5 -25.5s3.5 -12.5 5.5 -16.5l24 -30c-26.667 -14 -49.667 -38.667 -69 -74c-22.667 36 -45 60.667 -67 74c18 24.667 27 47.667 27 69z" />
    <glyph glyph-name="afii10079" unicode="&#x43d;" horiz-adv-x="422" 
d="M405 74c-10 -9.33301 -36.667 -36.332 -80 -80.999c-16.667 1.33301 -31.667 12.166 -45 32.499s-20 39.166 -20 56.499v195l-116 -2c-1.33301 -71.333 -2 -118.666 -2 -141.999c0 -20 2 -34.333 6 -43c4 -10.667 13.333 -21.334 28 -32.001c-32 -22 -57 -48 -75 -78
c-8.66699 24.667 -31.334 49.334 -68.001 74.001c20.667 16 31 44.333 31 85v271c0 26.667 -10.333 40 -31 40c-4.66699 0 -7 -3 -7 -9c0 -1.33301 0.666992 -4.5 2 -9.5s2 -8.5 2 -10.5c0 -4 -3 -6 -9 -6c-10.667 0 -16 6 -16 18c0 14 29 46.667 87 98l78 -81
c-16 -12 -24 -22.333 -24 -31c-0.666992 -42 -1.33398 -79.667 -2.00098 -113l116 2v108c0 26.667 -10.333 40 -31 40c-4.66699 0 -7 -3 -7 -9c0 -1.33301 0.666992 -4.5 2 -9.5s2 -8.5 2 -10.5c0 -4 -3 -6 -9 -6c-10.667 0 -16 6 -16 18c0 14 29 46.667 87 98l78 -81
c-16 -12 -24 -22.333 -24 -31c0 -153.333 -1.66699 -262.333 -5 -327c10.667 -18.667 21.334 -28 32.001 -28c1.33301 0 6.5 3.33301 15.5 10s14.167 10 15.5 10c0.666992 -2 2.33398 -7.33301 5.00098 -16z" />
    <glyph glyph-name="afii10080" unicode="&#x43e;" horiz-adv-x="352" 
d="M321 111c-72.667 -40 -129.331 -80.333 -169.998 -121c-36.667 32 -84.667 60 -144 84c2 2 6.16699 11.833 12.5 29.5s8.5 26.5 6.5 26.5l-1 -1v265c0 10.667 -0.666992 17.667 -2 21l-16 26c37.333 12 68.333 25.667 93 41c15.333 9.33301 41.666 29 78.999 59
c11.333 -16 58.666 -49.333 141.999 -100c-15.333 -18 -23 -36.667 -23 -56v-228c0 -6.66699 7.66699 -22 23 -46zM221.003 409l-84 64l-30 -19v-335c30 -22.667 59.667 -41.667 89 -57l25 22v325z" />
    <glyph glyph-name="afii10081" unicode="&#x43f;" horiz-adv-x="422" 
d="M251 538c21.333 -22 56.333 -54.334 105 -97.001c-16 -12.667 -23.667 -24.334 -23 -35.001c1.33301 -26.667 1.33301 -117.667 0 -273c-3.33301 -21.333 8 -37.333 34 -48c2 -0.666992 5.33301 -0.666992 10 0c8 0 17.667 7.33301 29 22l12 -11l-74 -96l-15 3
c-20 4.66699 -37 16.334 -51 35.001s-21 38.334 -21 59.001v316l-47 46l-64 -49c-0.666992 -8.66699 -1.33398 -43 -2.00098 -103c-0.666992 -73.333 -0.333984 -128.333 0.999023 -165c0.666992 -19.333 1.33398 -30 2.00098 -32c4 -12 13.667 -26 29 -42
c-28 -16.667 -51.667 -40.334 -71 -71.001c-19.333 37.333 -41.666 61 -66.999 71c16.667 14.667 26 26.334 28 35.001c0.666992 2 1 15.333 1 40v213c0 34 -1.66699 56 -5 66c-2 5.33301 -7 11.833 -15 19.5s-14 11.5 -18 11.5c-2 0 -6 -2.83301 -12 -8.5
s-10 -8.5 -12 -8.5c-4 0 -7 4 -9 12l80 87c13.333 -8.66699 27.333 -21 42 -37c19.333 -22 29 -42.667 29 -62c32 22 66.667 56 104 102z" />
    <glyph glyph-name="afii10082" unicode="&#x440;" horiz-adv-x="407" 
d="M372 102c-5.33301 2.66699 -11.3359 4 -18.0029 4c-22 0 -42.667 -10.833 -62 -32.5s-29.666 -43.5 -30.999 -65.5l-3 -6c-18 32 -46.667 52 -86 60v-59c0 -96.667 4.66699 -160.667 14 -192c0 -1.33301 3.66699 -8.66602 11 -21.999s11 -22 11 -26
c0 -0.666992 -0.333008 -1 -1 -1c-19.333 0 -36.666 16.667 -51.999 50c-10.667 23.333 -18.334 48.333 -23.001 75c-1.33301 -30 -11.666 -68.667 -30.999 -116c-22.667 -54 -45.667 -81 -69 -81c-8 0 -14.333 1 -19 3c44 30.667 66 73 66 127c0 6 0.333008 23 1 51v72v124
h-13c-13.333 0 -22 0.333008 -26 1c-4 0 -2.66699 0.333008 4 1c-6 -1.33301 -10 -6.66602 -12 -15.999c14.667 -8 22 -18 22 -30c0 -12.667 -8 -19 -24 -19c-15.333 0 -23 9.33301 -23 28c0 45.333 24.667 71 74 77c0 8.66699 0.666992 29.667 2 63v86v150
c-20 35.333 -34 53 -42 53c-6.66699 -2.66699 -16.667 -7 -30 -13c-3.33301 1.33301 -5 5.66602 -5 12.999l48 36c22.667 18 36.334 28 41.001 30c17.333 0 43 -26.667 77 -80c32.667 26 69.334 53.667 110.001 83c15.333 -26.667 47.666 -57.334 96.999 -92.001
c-12.667 -16 -19 -32.333 -19 -49v-247c0 -3.33301 1.83301 -10 5.5 -20s5.5 -16.667 5.5 -20zM282.997 398l-53.999 54c-22 -14 -40.667 -26.667 -56 -38l2 -296c29.333 0 59.666 -13.333 90.999 -40l17 16v304z" />
    <glyph glyph-name="afii10083" unicode="&#x441;" horiz-adv-x="278" 
d="M244 490c-46.667 -52.667 -69.999 -97.334 -69.999 -134.001c0 -4 1 -6.66699 3 -8c8 8 14.667 12 20 12c10.667 0 16 -7.33301 16 -22c0 -17.333 -8.33301 -26 -25 -26c-22.667 0 -34 14.333 -34 43c0 4.66699 2.33301 14 7 28s7 22.333 7 25
c0 12.667 -7.33301 23.667 -22 33l-36 23l-10 -5c-0.666992 -72.667 -0.666992 -182 0 -328c40.667 -40.667 65.667 -61 75 -61c3.33301 0 9.66602 5.83301 18.999 17.5s14 19.5 14 23.5c0 0.666992 -0.666992 3.5 -2 8.5s-1.66602 8.16699 -0.999023 9.5
c1.33301 1.33301 6 2 14 2c7.33301 0 11 -4 11 -12c0 -24.667 -37 -66.334 -111 -125.001c-24.667 32.667 -63 64 -115 94c14.667 28.667 22 51.334 22 68.001l-1 241c-2.66699 9.33301 -4.33398 17.333 -5.00098 24c-3.33301 12 -9.33301 21.667 -18 29
c26 10 55.333 24 88 42c12 6.66699 30.333 23.334 55 50.001c30.667 -39.333 54 -59 70 -59l24 12z" />
    <glyph glyph-name="afii10084" unicode="&#x442;" horiz-adv-x="602" 
d="M593 94c0 -4 -24.332 -36.333 -72.999 -97h-23c-19.333 0 -35.333 12 -48 36c-11.333 20.667 -17 41.334 -17 62.001l-1 312l-34 52l-58 -50v-272c0 -20 2 -34 6 -42l24 -30c-26.667 -14 -49.667 -38.667 -69 -74c-22.667 36 -45 60.667 -67 74
c18 24.667 27 47.667 27 69v272c-9.33301 11.333 -18.333 21.666 -27 30.999s-16.667 18.333 -24 27c-4.66699 -1.33301 -25 -17.666 -61 -48.999l2 -284c0 -22.667 9.66699 -44.667 29 -66c-30 -17.333 -54.667 -41.333 -74 -72c-18.667 38.667 -41 62.667 -67 72
c19.333 19.333 29 37 29 53v20c0 9.33301 0.333008 21.666 1 36.999v80v137c0 12 -1 20.667 -3 26c-0.666992 4.66699 -6 12 -16 22c-8.66699 8.66699 -15.334 13 -20.001 13c-2 0 -5.83301 -2.83301 -11.5 -8.5s-9.83398 -8.5 -12.501 -8.5c-6 0 -9 4 -9 12
c0 12 28 40 84 84c26 -18.667 48.333 -46.334 67 -83.001c16.667 12.667 51.667 42.667 105 90c4.66699 -14.667 31.334 -49 80.001 -103c16.667 11.333 33.834 25.5 51.501 42.5s35.834 36.833 54.501 59.5c21.333 -29.333 40 -52.666 56 -69.999s28.667 -29.333 38 -36
c-8.66699 -8.66699 -16.334 -19.334 -23.001 -32.001v-263c0 -14 5 -27.167 15 -39.5s22 -19.166 36 -20.499h-7c5.33301 0 10.666 3.66699 15.999 11l5 7.5c2 3 4.33301 6.16699 7 9.5c8 0.666992 12 -3 12 -11zM98.001 655c2 4 4.16699 7.33301 6.5 10
s4.5 4.16699 6.5 4.5s3.66699 -1 5 -4s2 -8.16699 2 -15.5c0 -4 1.5 -8.66699 4.5 -14s6.66699 -10.333 11 -15s9 -8.5 14 -11.5s9.5 -4.5 13.5 -4.5c20 0 44.667 9 74 27l58.5 36l26.5 16c36.667 18 75.667 27 117 27c21.333 0 39.833 -5.66699 55.5 -17s23.5 -26 23.5 -44
c0 -34 -14.667 -51 -44 -51c-18 0 -27 6.33301 -27 19c0 14 6.66699 21 20 21c6.66699 0 12.667 -5 18 -15h4c8.66699 10 11.334 18.667 8.00098 26c-8 18 -21.333 27 -40 27c-28.667 0 -56.334 -7.33301 -83.001 -22l-35.5 -21l-50.5 -30
c-30.667 -18.667 -62.667 -28 -96 -28c-61.333 0 -92 26.333 -92 79z" />
    <glyph glyph-name="afii10085" unicode="&#x443;" horiz-adv-x="393" 
d="M431 -145c0 -34 -14.667 -51 -44 -51c-18 0 -27 6.33301 -27 19c0 14 6.66699 21 20 21c7.33301 0 13.333 -5 18 -15h4c8.66699 10.667 11.334 19.334 8.00098 26.001c-8 18 -21.333 27 -40 27c-28.667 0 -56.334 -7.33301 -83.001 -22l-86 -51
c-31.333 -18.667 -63.333 -28 -96 -28c-61.333 0 -92 26.333 -92 79c0 19.333 10.667 41 32 65c17.333 20.667 36.333 37 57 49c-34 16.667 -51 63 -51 139v38c0 5.33301 0.333008 11.666 1 18.999v13v113v65c-0.666992 24.667 -1 40.334 -1 47.001c0 22.667 -6 40 -18 52
l-28 -21l-7 13c44 34.667 74 61.334 90 80.001c19.333 -14.667 31.833 -28.167 37.5 -40.5s8.83398 -31.833 9.50098 -58.5c30 21.333 68.333 55.333 115 102l1 1c32 -48.667 51.333 -73 58 -73c2 0 10.333 7.33301 25 22c6.66699 1.33301 10 -2.66699 10 -12
c0 -1.33301 -4.16699 -5.83301 -12.5 -13.5s-12.833 -13 -13.5 -16s-1 -53.167 -1 -150.5c0 -24 0.333008 -59.333 1 -106s1 -82 1 -106c0 -12.667 3.83301 -24.334 11.5 -35.001s17.167 -16 28.5 -16c3.33301 0 6 0.333008 8 1l-1 -16h-62c-34 0 -70.667 -6.33301 -110 -19
s-72.333 -29 -99 -49c-12.667 -8.66699 -25.667 -22.667 -39 -42c-15.333 -21.333 -23 -38 -23 -50c0 -8.66699 5 -18.334 15 -29.001s19.333 -16 28 -16c20 0 44.667 9 74 27c49.333 30.667 77.666 48 84.999 52c37.333 18 76.333 27 117 27
c21.333 0 39.833 -5.66699 55.5 -17s23.5 -26 23.5 -44zM243 118c0 21.333 -0.667969 120 -2.00098 296l-35 51l-71 -54v-332c0 -30.667 17 -52.667 51 -66c34 8 46.667 12 38 12c2 0 5.33301 3.83301 10 11.5s7.33398 11.5 8.00098 11.5c0.666992 10.667 1 34 1 70z" />
    <glyph glyph-name="afii10086" unicode="&#x444;" horiz-adv-x="517" 
d="M216 443c1.33301 47.333 -4.33496 85.666 -17.002 114.999l-37 79c48 -28 78 -62.667 90 -104c5.33301 52.667 27.666 108.334 66.999 167.001c21.333 31.333 44.666 47 69.999 47c5.33301 0 11.333 -2.5 18 -7.5s10 -9.83301 10 -14.5c0 -16 -6.66699 -24 -20 -24
c-1.33301 0 -5.66602 2.5 -12.999 7.5s-11.666 7.5 -12.999 7.5c-12 0 -25.667 -16 -41 -48c-12 -24.667 -19.667 -46.334 -23 -65.001c-8 -43.333 -12 -96.333 -12 -159c32.667 26 69.334 53.667 110.001 83c15.333 -26.667 47.666 -57.334 96.999 -92.001
c-12.667 -16 -19 -32.333 -19 -49v-247c0 -3.33301 1.83301 -10 5.5 -20s5.5 -16.667 5.5 -20c-5.33301 2.66699 -11.333 4 -18 4c-22 0 -42.667 -10.833 -62 -32.5s-29.666 -43.5 -30.999 -65.5l-3 -6c-18 32 -46.667 52 -86 60l1 -159
c4 -35.333 15.333 -58.666 34 -69.999c-35.333 -25.333 -60 -51.333 -74 -78c-9.33301 24.667 -32.333 49 -69 73c20 16 30.333 43.333 31 82v151c-39.333 -8 -68 -28 -86 -60l-3 6c-1.33301 22 -11.666 43.833 -30.999 65.5s-40 32.5 -62 32.5
c-6.66699 0 -12.667 -1.33301 -18 -4c0 3.33301 1.83301 10 5.5 20s5.5 16.667 5.5 20v247c0 16.667 -6.33301 33 -19 49c49.333 34.667 81.666 65.334 96.999 92.001c40.667 -29.333 77.334 -57 110.001 -83zM404.999 395l-53.999 54c-22 -14 -40.667 -26.667 -56 -38
l2 -296c29.333 0 59.666 -13.333 90.999 -40l17 16v304zM106 90l17.001 -16c31.333 26.667 61.666 40 90.999 40l2 296c-15.333 11.333 -34 24 -56 38l-54 -54v-304z" />
    </font>
</defs>
</svg>
